<svg width="36" height="36" viewBox="0 0 36 36" fill="none" xmlns="http://www.w3.org/2000/svg">
<path fill-rule="evenodd" clip-rule="evenodd" d="M20.7216 18.0002L29.1981 9.52368C29.3653 9.35654 29.498 9.15809 29.5886 8.93968C29.6791 8.72126 29.7258 8.48715 29.7258 8.25071C29.7259 8.01427 29.6794 7.78013 29.589 7.56166C29.4986 7.34319 29.366 7.14467 29.1989 6.97743C29.0317 6.81019 28.8333 6.67751 28.6149 6.58696C28.3964 6.49642 28.1623 6.44978 27.9259 6.44971C27.6894 6.44964 27.4553 6.49614 27.2368 6.58656C27.0184 6.67697 26.8198 6.80954 26.6526 6.97668L18.1761 15.4547L9.6981 6.97668C9.35664 6.65774 8.90462 6.48395 8.43744 6.49199C7.97027 6.50002 7.52449 6.68925 7.19419 7.01974C6.8639 7.35023 6.67493 7.79612 6.66717 8.2633C6.65941 8.73048 6.83347 9.1824 7.1526 9.52368L15.6306 18.0002L7.1526 26.4767C6.90204 26.729 6.73168 27.0497 6.66293 27.3986C6.59418 27.7475 6.63012 28.1089 6.76623 28.4374C6.90234 28.7659 7.13255 29.0468 7.42789 29.2448C7.72323 29.4428 8.07053 29.549 8.4261 29.5502C8.8866 29.5502 9.3471 29.3747 9.6981 29.0237L18.1761 20.5457L26.6526 29.0237C26.8195 29.1912 27.0179 29.3241 27.2363 29.4147C27.4547 29.5054 27.6889 29.5521 27.9254 29.5521C28.1618 29.5521 28.396 29.5054 28.6144 29.4147C28.8328 29.3241 29.0312 29.1912 29.1981 29.0237C29.3655 28.8565 29.4982 28.658 29.5888 28.4395C29.6794 28.221 29.726 27.9867 29.726 27.7502C29.726 27.5136 29.6794 27.2794 29.5888 27.0609C29.4982 26.8424 29.3655 26.6438 29.1981 26.4767L20.7216 18.0002Z" fill="#E5E5E5"/>
</svg>
