<svg width="192" height="223" viewBox="0 0 192 223" fill="none" xmlns="http://www.w3.org/2000/svg">
<rect width="192" height="223" rx="4" fill="#F0F0F0"/>
<path d="M79.8594 117.375V131.297H78.625V117.375H79.8594ZM68.9219 123.297C68.9297 120.344 70.3984 118.461 72.4688 118.453C74.5312 118.461 76.0234 120.344 76.0156 123.297C76.0234 126.258 74.5312 128.133 72.4688 128.125C70.3984 128.133 68.9297 126.258 68.9219 123.297ZM70.1094 123.297C70.1094 125.555 71.0781 127.039 72.4688 127.031C73.8672 127.039 74.8281 125.555 74.8281 123.297C74.8281 121.039 73.8672 119.555 72.4688 119.547C71.0781 119.555 70.1094 121.039 70.1094 123.297ZM89.4688 118.75V127.781H83.0469V118.75H89.4688ZM84.25 126.781H88.2656V119.734H84.25V126.781ZM92.4531 131.297V117.375H93.6875V131.297H92.4531ZM101.031 121.641C101.039 124 102.75 126.398 104.797 127.281L104.109 128.25C102.484 127.516 101.086 125.914 100.438 123.992C99.7891 126.031 98.3828 127.797 96.7969 128.594L96.0625 127.625C98.0547 126.672 99.7891 124.047 99.7969 121.641V119.828H96.5156V118.812H104.344V119.828H101.031V121.641ZM106.281 131.266V117.375H107.516V131.266H106.281ZM120.641 117.375V123.031H122.891V124.062H120.641V131.266H119.422V117.375H120.641ZM109.984 127.656C113.57 125.875 115.523 123.195 115.805 119.906H110.625V118.875H117.047C117.039 122.805 115.195 126.391 110.672 128.625L109.984 127.656ZM52.7812 138.109C52.7734 139.828 55.1016 141.234 57.5625 141.547L57.0781 142.547C54.8359 142.203 52.7344 141.086 51.9844 139.445C51.2266 141.086 49.1406 142.203 46.8906 142.547L46.4375 141.547C48.8828 141.234 51.1953 139.828 51.1875 138.109V138.078H46.8125V137.062H57.1875V138.078H52.7812V138.109ZM45.6562 144.891V143.875H51.375V141.547H52.5781V143.875H58.3594V144.891H45.6562ZM47.2969 149.969V146.016H48.5312V148.938H56.9062V149.969H47.2969ZM71.4219 136.375V150.266H70.2344V143.047H68.3438V149.562H67.1719V136.672H68.3438V142H70.2344V136.375H71.4219ZM59.3438 146.453C61.3438 145.352 62.4141 142.992 62.4062 140.172V139.062H59.6719V138.031H66.1719V139.062H63.5938V140.172C63.5938 142.711 64.6484 144.953 66.625 145.969L65.8906 146.922C64.4922 146.156 63.5234 144.789 63.0312 143.094C62.5547 145.023 61.5703 146.539 60.1094 147.391L59.3438 146.453ZM84.0625 136.375V142.109H86.3906V143.125H84.0625V150.266H82.8438V136.375H84.0625ZM73.2344 139.625V138.609H76.8125V136.547H78.0312V138.609H81.5V139.625H73.2344ZM74.0312 143.969C74.0234 142.094 75.4609 140.781 77.4375 140.781C79.3984 140.781 80.8281 142.094 80.8438 143.969C80.8281 145.852 79.3984 147.156 77.4375 147.156C75.4609 147.156 74.0234 145.852 74.0312 143.969ZM75.2031 143.969C75.1953 145.234 76.1406 146.125 77.4375 146.109C78.7188 146.125 79.6562 145.234 79.6719 143.969C79.6562 142.711 78.7188 141.805 77.4375 141.812C76.1406 141.805 75.1953 142.711 75.2031 143.969ZM92.1094 140.641C92.1172 143 93.8281 145.398 95.875 146.281L95.1875 147.25C93.5625 146.516 92.1641 144.914 91.5156 142.992C90.8672 145.031 89.4609 146.797 87.875 147.594L87.1406 146.625C89.1328 145.672 90.8672 143.047 90.875 140.641V138.828H87.5938V137.812H95.4219V138.828H92.1094V140.641ZM97.3594 150.266V136.375H98.5938V150.266H97.3594ZM108.859 137.172C110.938 137.18 112.469 138.5 112.469 140.375C112.469 142.273 110.938 143.586 108.859 143.594C106.789 143.586 105.242 142.273 105.25 140.375C105.242 138.5 106.789 137.18 108.859 137.172ZM106.453 140.375C106.445 141.648 107.492 142.578 108.859 142.578C110.234 142.578 111.273 141.648 111.266 140.375C111.273 139.125 110.234 138.203 108.859 138.203C107.492 138.203 106.445 139.125 106.453 140.375ZM106.469 149.891V144.828H107.656V148.883C108.461 148.852 109.531 148.734 110.516 148.406L110.703 149.391C109.352 149.836 108.031 149.898 107.125 149.891H106.469ZM110.219 145.844V144.891H113.141V143.656H114.344V144.891H117.234V145.844H110.219ZM111.141 148.281C111.133 147.078 112.188 146.312 113.719 146.312C115.242 146.312 116.312 147.078 116.328 148.281C116.312 149.484 115.242 150.234 113.719 150.234C112.188 150.234 111.133 149.484 111.141 148.281ZM112.234 148.281C112.234 148.938 112.852 149.352 113.719 149.359C114.586 149.352 115.203 148.938 115.203 148.281C115.203 147.641 114.586 147.211 113.719 147.203C112.852 147.211 112.234 147.641 112.234 148.281ZM114.625 143.328V136.375H115.844V139.516H117.938V140.531H115.844V143.328H114.625ZM122.531 137.453C124.578 137.461 126.031 139.344 126.047 142.297C126.031 145.258 124.578 147.133 122.531 147.125C120.469 147.133 119.023 145.258 119.031 142.297C119.023 139.344 120.469 137.461 122.531 137.453ZM120.188 142.297C120.195 144.555 121.156 146.039 122.531 146.031C123.922 146.039 124.859 144.555 124.859 142.297C124.859 140.039 123.922 138.555 122.531 138.547C121.156 138.555 120.195 140.039 120.188 142.297ZM128.344 150.266V136.375H129.562V141.922H131.891V142.984H129.562V150.266H128.344ZM145.359 147.453V148.484H132.641V147.453H135.797V143.711C134.609 143.094 133.891 142.094 133.891 140.828C133.891 138.68 136 137.266 138.969 137.25C141.938 137.266 144.047 138.68 144.047 140.828C144.047 142.07 143.352 143.055 142.203 143.672V147.453H145.359ZM135.078 140.828C135.07 142.383 136.688 143.422 138.969 143.422C141.227 143.422 142.859 142.383 142.859 140.828C142.859 139.273 141.227 138.25 138.969 138.266C136.688 138.25 135.07 139.273 135.078 140.828ZM137 147.453H140.969V144.148C140.367 144.305 139.695 144.391 138.969 144.391C138.258 144.391 137.594 144.312 137 144.156V147.453Z" fill="#D0D0D0"/>
<path d="M156.953 89.5434C156.953 97.8991 129.663 104.673 96.0002 104.673C62.3372 104.673 35.0479 97.8991 35.0479 89.5434C35.0479 81.1877 62.3372 74.4141 96.0002 74.4141C129.663 74.4141 156.953 81.1877 156.953 89.5434Z" fill="#D0D0D0"/>
<path fill-rule="evenodd" clip-rule="evenodd" d="M40.7893 85.3346C37.7874 87.0963 36.9531 88.5875 36.9531 89.5431C36.9531 90.4987 37.7874 91.9899 40.7893 93.7515C43.6496 95.4301 47.9152 97.0072 53.3519 98.3566C64.1956 101.048 79.2751 102.733 96.0007 102.733C112.726 102.733 127.806 101.048 138.649 98.3566C144.086 97.0072 148.352 95.4301 151.212 93.7515C154.214 91.9899 155.048 90.4987 155.048 89.5431C155.048 88.5875 154.214 87.0963 151.212 85.3346C148.352 83.6561 144.086 82.079 138.649 80.7295C127.806 78.038 112.726 76.3534 96.0007 76.3534C79.2751 76.3534 64.1956 78.038 53.3519 80.7295C47.9152 82.079 43.6496 83.6561 40.7893 85.3346ZM52.4498 76.9606C63.6665 74.1764 79.0632 72.4741 96.0007 72.4741C112.938 72.4741 128.335 74.1764 139.552 76.9606C145.145 78.349 149.806 80.032 153.114 81.9735C156.281 83.832 158.858 86.3208 158.858 89.5431C158.858 92.7654 156.281 95.2542 153.114 97.1127C149.806 99.0542 145.145 100.737 139.552 102.126C128.335 104.91 112.938 106.612 96.0007 106.612C79.0632 106.612 63.6665 104.91 52.4498 102.126C46.8563 100.737 42.1956 99.0542 38.8872 97.1127C35.7204 95.2542 33.1436 92.7654 33.1436 89.5431C33.1436 86.3208 35.7204 83.832 38.8872 81.9735C42.1956 80.032 46.8563 78.349 52.4498 76.9606Z" fill="#D0D0D0"/>
<path fill-rule="evenodd" clip-rule="evenodd" d="M99.2446 102.711C98.1703 102.725 97.0887 102.733 96.0004 102.733C79.2877 102.733 64.146 101.063 53.1348 98.3591C53.7866 97.6139 54.4504 96.9469 55.0683 96.3801C55.0683 96.3801 54.6224 93.9335 54.6224 89.0405C54.6224 85.2739 55.3367 82.4912 55.8537 80.4771C55.9444 80.1239 56.029 79.7944 56.1026 79.4874L56.0976 79.3577C55.9053 74.3255 55.4861 63.3554 57.9243 63.1706C60.9985 62.9376 65.5432 68.5362 66.1125 70.1673C66.5679 71.4721 67.2131 74.3613 67.4788 75.6428C68.5414 75.0991 71.5776 73.9885 75.2211 73.8953C78.8645 73.8021 84.861 75.0215 87.4038 75.6428C89.2635 72.2254 93.6205 65.3674 96.1709 65.2742C99.3589 65.1577 99.8143 72.0313 99.5866 73.3128C99.5332 73.6132 99.4298 74.0799 99.3071 74.6336C98.9065 76.4422 98.3004 79.1779 98.5619 80.0699C98.7292 80.6405 98.9083 80.9872 99.1007 81.3593C99.2225 81.595 99.3496 81.8409 99.4823 82.1604C100.963 85.7235 102.251 89.5531 102.433 91.6035C102.58 93.2576 102.537 97.7744 99.2446 102.711Z" fill="white"/>
<path fill-rule="evenodd" clip-rule="evenodd" d="M70.0125 78.6854C70.4308 78.6385 70.8072 78.9457 70.8533 79.3717C70.9067 79.8653 71.0427 80.6745 71.2724 81.46C71.5125 82.2808 71.8141 82.9287 72.1245 83.2362C72.4767 83.5851 72.8423 83.8594 73.1706 84.0661C73.2253 83.8218 73.3068 83.5552 73.4223 83.2691C73.6011 82.8262 73.7867 82.4341 73.9514 82.115C74.1962 81.6409 74.6676 81.4738 75.0598 81.5077C75.4382 81.5404 75.8235 81.7583 76.0362 82.1492C76.3216 82.6736 76.803 83.2443 77.5129 83.5256C77.6633 83.5852 77.8084 83.6361 77.9476 83.6793C77.7552 83.3836 77.5992 83.0519 77.5268 82.6935C77.4231 82.1795 77.3973 81.7521 77.4143 81.4135C77.4302 81.0992 77.486 80.8021 77.5955 80.5852C77.7878 80.2041 78.2472 80.0539 78.6214 80.2498C78.9871 80.4412 79.1362 80.892 78.9635 81.268C78.9638 81.2676 78.964 81.2673 78.9641 81.2674C78.9654 81.2678 78.9441 81.3351 78.9361 81.4931C78.9264 81.6869 78.9389 81.9821 79.0194 82.381C79.0851 82.7064 79.3942 83.1202 79.8246 83.4994C80.1423 83.7793 80.307 84.2182 80.2037 84.65C80.0877 85.1346 79.6633 85.4663 79.1483 85.4513C78.5657 85.4344 77.815 85.3104 76.9603 84.9717C76.0742 84.6206 75.4447 84.0079 75.0224 83.4127C74.9589 83.5535 74.8948 83.7028 74.8316 83.8591C74.7114 84.1569 74.6503 84.4037 74.622 84.594C74.563 84.9893 74.328 85.3203 74.056 85.5223C73.7859 85.7227 73.306 85.908 72.8154 85.6456C72.3059 85.3731 71.6697 84.9506 71.0619 84.3484C70.4509 83.7431 70.0614 82.7556 69.812 81.903C69.5523 81.0151 69.4004 80.1128 69.3386 79.5415C69.2926 79.1156 69.5943 78.7323 70.0125 78.6854Z" fill="#D0D0D0"/>
<path d="M74.6666 93.2844C74.6666 94.2174 74.0918 94.9738 73.5237 94.9738C72.9557 94.9738 72.3809 94.2174 72.3809 93.2844C72.3809 92.3514 72.7237 91.4824 73.638 91.4824C74.3237 91.4824 74.6666 92.3514 74.6666 93.2844Z" fill="#D0D0D0"/>
<path d="M70.2524 95.5211C70.2855 95.9761 69.5618 97.3126 68.5545 97.3886C67.5473 97.4646 66.638 96.2513 66.6049 95.7964C66.5718 95.3415 67.1236 94.929 68.1308 94.853C69.138 94.7769 70.2193 95.0662 70.2524 95.5211Z" fill="#D0D0D0"/>
<path d="M65.1431 93.2844C65.1431 94.2174 64.5683 94.9738 64.0003 94.9738C63.4322 94.9738 62.8574 94.2174 62.8574 93.2844C62.8574 92.3514 63.2003 91.4824 64.1146 91.4824C64.8003 91.4824 65.1431 92.3514 65.1431 93.2844Z" fill="#D0D0D0"/>
<path fill-rule="evenodd" clip-rule="evenodd" d="M62.0459 66.0218C60.5479 64.6624 58.958 63.8543 57.7315 63.9466C57.6869 63.95 57.594 63.9708 57.4506 64.1473C57.2991 64.3339 57.1374 64.6425 56.9844 65.0965C56.6792 66.0017 56.4717 67.2885 56.3428 68.7811C56.0863 71.7515 56.1564 75.3301 56.2516 77.8079C56.2681 78.2361 55.9406 78.5967 55.5201 78.6135C55.0996 78.6303 54.7454 78.2967 54.729 77.8686C54.6334 75.3803 54.5594 71.7193 54.8249 68.6452C54.957 67.1155 55.177 65.6787 55.5431 64.5926C55.7257 64.051 55.9607 63.5471 56.2765 63.1583C56.6003 62.7596 57.0454 62.4423 57.6191 62.3991C59.4839 62.2587 61.4794 63.4292 63.0597 64.8633C64.6655 66.3204 66.0408 68.2276 66.6266 69.895C67.0102 70.9871 67.5099 73.0941 67.8293 74.5406C69.3477 73.941 71.9961 73.1829 75.0497 73.1053C78.5705 73.0158 84.1317 74.0912 86.9373 74.7398C87.9 73.0337 89.3436 70.7105 90.8666 68.7245C91.7055 67.6304 92.5863 66.6152 93.4392 65.8601C94.2579 65.1354 95.1862 64.5261 96.1084 64.4926C97.1901 64.4533 98.0305 64.9584 98.6383 65.6925C99.2273 66.4039 99.615 67.3437 99.8721 68.2819C100.386 70.1576 100.448 72.2953 100.327 73.386C100.24 74.1743 100.012 75.21 99.7922 76.2072C99.722 76.5261 99.6526 76.8411 99.589 77.1428C99.4533 77.786 99.3405 78.3794 99.2815 78.8754C99.2187 79.4041 99.2335 79.7043 99.2696 79.8264C99.4011 80.2722 99.5083 80.5703 99.5792 80.7504C99.6146 80.8404 99.6409 80.9008 99.6565 80.9353C99.6644 80.9525 99.6695 80.9632 99.6718 80.9679C99.6722 80.9688 99.6728 80.9699 99.6728 80.9699C99.8668 81.3469 99.7263 81.8134 99.3569 82.0143C98.9858 82.2162 98.5242 82.0735 98.3259 81.6956L98.9979 81.33C98.3259 81.6956 98.3259 81.6956 98.3259 81.6956L98.3255 81.6949L98.3244 81.6927L98.3227 81.6894L98.3185 81.6812C98.3153 81.675 98.3116 81.6674 98.3072 81.6584C98.2984 81.6404 98.287 81.6165 98.2734 81.5865C98.2461 81.5264 98.2094 81.4412 98.1647 81.3276C98.0753 81.1003 97.9535 80.7583 97.8102 80.273C97.6745 79.8131 97.7049 79.2258 97.7688 78.6888C97.8365 78.1191 97.9617 77.4685 98.0991 76.8169C98.1721 76.471 98.2479 76.1265 98.3221 75.7897C98.536 74.8174 98.736 73.9088 98.8133 73.2119C98.9139 72.3042 98.8617 70.3682 98.4043 68.6989C98.1757 67.8645 97.8636 67.164 97.4734 66.6928C97.102 66.2443 96.6839 66.0244 96.1627 66.0433C95.8026 66.0564 95.2215 66.3384 94.4389 67.0312C93.6906 67.6937 92.8783 68.6222 92.0676 69.6795C90.4489 71.7904 88.9072 74.321 87.9849 76.0047L87.7039 76.5177L87.1428 76.3815C84.5858 75.7608 78.6422 74.5662 75.0877 74.6565C71.545 74.7466 68.6008 75.8242 67.6234 76.321L66.7425 76.7687L66.5379 75.7881C66.2685 74.4973 65.6295 71.6635 65.1918 70.4177C64.7145 69.059 63.5185 67.358 62.0459 66.0218ZM55.6721 78.8307C56.0807 78.9329 56.3306 79.3531 56.2302 79.7692C55.7421 81.7922 55.1169 84.6743 55.1169 89.0118C55.1169 91.4319 55.2279 93.2409 55.3378 94.4392C55.3927 95.0383 55.4474 95.4848 55.4878 95.7786C55.508 95.9255 55.5247 96.0342 55.536 96.1048C55.5417 96.1401 55.546 96.1658 55.5488 96.182L55.5518 96.1992L55.5523 96.202L55.5524 96.2025L55.631 96.6313L55.3115 96.9226C54.8904 97.3064 54.4517 97.7412 54.0144 98.2187C53.7274 98.532 53.2452 98.5491 52.9375 98.2568C52.6298 97.9646 52.613 97.4736 52.9001 97.1603C53.2638 96.7631 53.6291 96.3928 53.987 96.0531C53.9843 96.034 53.9816 96.0142 53.9787 95.9938C53.9351 95.6766 53.8777 95.2065 53.8206 94.5835C53.7063 93.3375 53.5931 91.4802 53.5931 89.0118C53.5931 84.5036 54.2462 81.4885 54.7504 79.399C54.8508 78.9829 55.2635 78.7284 55.6721 78.8307ZM99.4132 82.0056C99.8043 81.8474 100.247 82.042 100.403 82.4403C100.574 82.8801 100.79 83.3712 101.025 83.9074C101.92 85.9471 103.102 88.6391 103.238 91.6408C103.531 98.1234 100.415 102.46 99.7227 103.424C99.6798 103.483 99.6462 103.53 99.6233 103.564C99.3829 103.915 98.9081 104.002 98.5627 103.757C98.2173 103.513 98.1321 103.029 98.3725 102.677C98.3967 102.642 98.4312 102.594 98.4745 102.533C99.1509 101.59 101.983 97.6379 101.715 91.7122C101.594 89.0376 100.578 86.7123 99.6936 84.6888C99.4387 84.1055 99.1948 83.5473 98.9864 83.0131C98.831 82.6149 99.0221 82.1638 99.4132 82.0056Z" fill="#D0D0D0"/>
<path fill-rule="evenodd" clip-rule="evenodd" d="M142.917 97.2622C131.737 100.605 114.87 102.733 96.0002 102.733C94.1467 102.733 92.3126 102.712 90.5012 102.672C90.7785 102.161 91.0851 101.667 91.4103 101.195C91.4103 101.195 89.1187 100.441 87.648 93.4362C85.6342 83.8456 91.4103 72.4231 96.9749 71.7766C102.254 71.1632 104.925 73.6803 105.882 75.2249C106.871 74.722 109.698 73.6947 113.089 73.6085C116.087 73.5323 120.796 74.7076 123.484 75.3785C123.837 75.4666 124.155 75.5461 124.43 75.6128C124.499 73.8168 127.061 71.6338 131.81 71.8924C137.745 72.2157 142.973 79.4275 143.185 87.0784C143.275 90.3061 143.289 94.0324 142.917 97.2622Z" fill="white"/>
<path fill-rule="evenodd" clip-rule="evenodd" d="M108.489 81.4011C108.907 81.3547 109.283 81.6624 109.329 82.0884C109.378 82.5469 109.503 83.2996 109.714 84.0297C109.936 84.7956 110.212 85.3892 110.488 85.6659C110.784 85.9623 111.09 86.2004 111.371 86.3853C111.421 86.1769 111.491 85.9525 111.587 85.7138C111.741 85.3283 111.9 84.9839 112.044 84.6973C112.286 84.2166 112.76 84.0475 113.152 84.079C113.53 84.1093 113.917 84.3234 114.134 84.711C114.398 85.1825 114.826 85.6763 115.442 85.923C115.528 85.9574 115.611 85.9886 115.693 86.0169C115.548 85.7685 115.432 85.4951 115.373 85.2023C115.277 84.7193 115.252 84.3167 115.268 83.9966C115.283 83.7008 115.335 83.4162 115.441 83.2052C115.631 82.8232 116.09 82.671 116.465 82.8652C116.83 83.0539 116.981 83.5004 116.814 83.876C116.815 83.8764 116.797 83.9359 116.79 84.0754C116.781 84.2522 116.793 84.5241 116.866 84.8931C116.922 85.1702 117.18 85.5331 117.56 85.8793C117.869 86.1605 118.03 86.5971 117.924 87.027C117.87 87.2456 117.745 87.4594 117.54 87.6127C117.333 87.7675 117.091 87.8268 116.86 87.8168C116.325 87.7935 115.648 87.6732 114.884 87.367C114.095 87.0509 113.524 86.512 113.132 85.9787C113.087 86.081 113.042 86.1878 112.998 86.2983C112.897 86.5531 112.841 86.7669 112.814 86.9353C112.749 87.3272 112.511 87.6544 112.237 87.8531C111.966 88.05 111.482 88.2321 110.993 87.961C110.529 87.7039 109.962 87.3159 109.419 86.7722C108.845 86.197 108.483 85.2643 108.253 84.4682C108.012 83.6365 107.871 82.7918 107.814 82.2564C107.769 81.8304 108.071 81.4475 108.489 81.4011Z" fill="#D0D0D0"/>
<path d="M108.473 97.0918C108.503 97.513 107.833 98.7504 106.901 98.8208C105.968 98.8912 105.126 97.7678 105.096 97.3466C105.065 96.9254 105.576 96.5436 106.508 96.4732C107.441 96.4028 108.442 96.6706 108.473 97.0918Z" fill="#D0D0D0"/>
<path d="M104.001 95.0246C104.001 95.854 103.426 96.5263 102.858 96.5263C102.29 96.5263 101.715 95.854 101.715 95.0246C101.715 94.1953 102.058 93.4229 102.972 93.4229C103.658 93.4229 104.001 94.1953 104.001 95.0246Z" fill="#D0D0D0"/>
<path d="M113.143 95.0246C113.143 95.854 112.568 96.5263 112 96.5263C111.432 96.5263 110.857 95.854 110.857 95.0246C110.857 94.1953 111.2 93.4229 112.115 93.4229C112.8 93.4229 113.143 94.1953 113.143 95.0246Z" fill="#D0D0D0"/>
<path fill-rule="evenodd" clip-rule="evenodd" d="M106.103 74.2565C104.778 72.5345 101.895 70.4205 96.8683 71.0058C95.2474 71.1945 93.6957 72.1544 92.337 73.536C90.9708 74.9253 89.7451 76.7943 88.774 78.9259C86.8354 83.1813 85.8563 88.6066 86.9023 93.5982C87.6506 97.1697 88.6221 99.2195 89.4575 100.397C89.7809 100.852 90.0841 101.178 90.3458 101.409C90.1578 101.71 89.9779 102.018 89.8085 102.333C89.6063 102.709 89.7415 103.18 90.1105 103.386C90.4795 103.592 90.9426 103.454 91.1448 103.079C91.4094 102.587 91.7034 102.11 92.0161 101.654C92.0229 101.645 92.0295 101.635 92.0359 101.626C92.8985 100.373 93.9016 99.2742 94.8237 98.4319L95.1424 98.1408L95.064 97.7129L95.064 97.7125L95.0635 97.7099L95.0608 97.6943C95.0583 97.6795 95.0543 97.6559 95.0491 97.6234C95.0387 97.5585 95.0234 97.4583 95.0048 97.3227C94.9675 97.0515 94.9171 96.639 94.8664 96.0852C94.7651 94.9776 94.6626 93.3044 94.6626 91.0656C94.6626 87.0558 95.2392 84.3923 95.6895 82.5218C95.7897 82.1056 95.5396 81.6855 95.1309 81.5835C94.7222 81.4815 94.3097 81.7361 94.2095 82.1523C93.7432 84.0893 93.1388 86.8855 93.1388 91.0656C93.1388 93.3526 93.2435 95.0739 93.3492 96.2292C93.4021 96.8068 93.4552 97.2429 93.4956 97.5375C93.4968 97.5463 93.498 97.5549 93.4992 97.5635C92.7472 98.2809 91.9564 99.1486 91.2256 100.126C91.0762 99.9788 90.8949 99.7729 90.6926 99.4878C90.0176 98.5367 89.1118 96.7072 88.3925 93.2744C87.4289 88.6754 88.3271 83.5941 90.1563 79.5789C91.0692 77.5753 92.2001 75.8681 93.4137 74.634C94.6347 73.3924 95.8859 72.682 97.0414 72.5475C101.993 71.9709 104.386 74.3233 105.199 75.6382L105.567 76.2335L106.184 75.9188C107.08 75.4624 109.791 74.4673 113.055 74.3841C116.33 74.3007 121.814 75.4048 124.176 75.9795L124.728 76.114L125.011 75.6155L125.011 75.615L125.012 75.6142L125.012 75.6136L125.012 75.613C125.015 75.6095 125.019 75.6022 125.025 75.5921C125.037 75.5719 125.058 75.5391 125.087 75.4956C125.144 75.4085 125.234 75.2791 125.357 75.122C125.605 74.807 125.982 74.3859 126.493 73.9721C127.509 73.1495 129.053 72.3561 131.198 72.4732C133.866 72.6188 136.587 74.3776 138.696 77.119C140.796 79.8486 142.207 83.4554 142.308 87.1003C142.326 87.7746 142.35 88.4532 142.373 89.1316C142.469 91.9058 142.564 94.6772 142.336 97.1365C142.297 97.5631 142.605 97.9415 143.024 97.9817C143.443 98.0219 143.814 97.7086 143.854 97.282C144.091 94.7124 143.991 91.81 143.895 89.0282C143.872 88.362 143.849 87.7028 143.831 87.0566C143.72 83.0506 142.178 79.129 139.896 76.1622C137.622 73.2071 134.534 71.1014 131.279 70.9237C128.686 70.7822 126.787 71.7521 125.545 72.7573C124.927 73.2575 124.471 73.7665 124.167 74.1531C124.113 74.2224 124.063 74.2879 124.018 74.3489C121.427 73.7484 116.279 72.7498 113.017 72.8329C110.033 72.9089 107.466 73.6876 106.103 74.2565ZM128.685 83.0698C129.106 83.0698 129.447 83.4172 129.447 83.8457C129.447 84.3171 129.385 84.7733 129.303 85.2515C129.267 85.4672 129.229 85.671 129.19 85.8837C129.135 86.1806 129.077 86.4947 129.013 86.8827C128.808 88.1361 128.601 89.8714 128.601 92.5742C128.601 95.2688 129.466 97.6737 130.901 99.6728C131.15 100.019 131.075 100.504 130.736 100.757C130.396 101.01 129.919 100.934 129.671 100.588C128.06 98.3442 127.077 95.6226 127.077 92.5742C127.077 89.7812 127.292 87.9605 127.51 86.6277C127.573 86.2478 127.641 85.8771 127.7 85.5521C127.739 85.3405 127.774 85.1484 127.802 84.9857C127.879 84.5344 127.923 84.1824 127.923 83.8457C127.923 83.4172 128.264 83.0698 128.685 83.0698Z" fill="#D0D0D0"/>
</svg>
