<svg width="1130" height="604" viewBox="0 0 1130 604" fill="none" xmlns="http://www.w3.org/2000/svg">
<g filter="url(#filter0_d_18_14)">
<rect x="6" y="132.562" width="467.018" height="467.883" rx="40" transform="rotate(-10 6 132.562)" fill="white"/>
</g>
<g filter="url(#filter1_d_18_14)">
<rect width="467.018" height="467.883" rx="40" transform="matrix(-0.984808 -0.173648 -0.173648 0.984808 1124.17 132.562)" fill="white"/>
</g>
<g filter="url(#filter2_d_18_14)">
<rect x="295" y="8" width="540" height="540" rx="40" fill="white"/>
</g>
<path d="M405.555 288.898V299.445H402.977V288.898H405.555ZM388.328 294.359C388.328 291.57 390.719 289.59 393.953 289.578C397.164 289.59 399.555 291.57 399.578 294.359C399.555 297.16 397.164 299.129 393.953 299.141C390.719 299.129 388.328 297.16 388.328 294.359ZM390.344 302.703V300.805H397.164V306.055H392.875V307.789C394.961 307.777 396.227 307.719 397.773 307.438L398.008 309.336C396.109 309.711 394.574 309.758 391.609 309.758H390.438V304.273H394.656V302.703H390.344ZM390.859 294.359C390.859 296 392.172 297.031 393.953 297.031C395.734 297.031 397.035 296 397.047 294.359C397.035 292.754 395.734 291.723 393.953 291.734C392.172 291.723 390.859 292.754 390.859 294.359ZM397.867 303.523V301.602H401.172V299.867H403.727V301.602H406.984V303.523H397.867ZM398.664 307.086C398.652 305.328 400.258 304.145 402.414 304.156C404.559 304.145 406.176 305.328 406.188 307.086C406.176 308.926 404.559 310.062 402.414 310.062C400.258 310.062 398.652 308.926 398.664 307.086ZM400.867 307.086C400.855 307.871 401.5 308.258 402.414 308.258C403.293 308.258 403.949 307.871 403.961 307.086C403.949 306.383 403.293 305.984 402.414 305.984C401.5 305.984 400.855 306.383 400.867 307.086ZM414.484 290.445C417.344 290.445 419.465 292.836 419.84 296.703H423.883V288.898H426.461V310.109H423.883V298.812H419.863C419.582 302.902 417.426 305.422 414.484 305.422C411.297 305.422 409.035 302.527 409.047 297.922C409.035 293.352 411.297 290.445 414.484 290.445ZM411.555 297.922C411.543 301.18 412.738 303.066 414.484 303.078C416.242 303.066 417.426 301.18 417.438 297.922C417.426 294.688 416.242 292.789 414.484 292.789C412.738 292.789 411.543 294.688 411.555 297.922ZM447.203 288.898V310.109H444.625V298.625H440.312V304.977H430.234V290.539H432.859V295.812H437.758V290.539H440.312V296.492H444.625V288.898H447.203ZM432.859 302.891H437.758V297.852H432.859V302.891ZM467.781 288.922V304.508H465.203V288.922H467.781ZM451.258 292.438V290.352H461.031V296.891H453.859V299.562C457.691 299.562 460.223 299.445 463.141 298.906L463.422 300.992C460.223 301.59 457.445 301.695 453.109 301.695H451.305V294.922H458.453V292.438H451.258ZM453.672 309.664V303.242H456.297V307.555H468.367V309.664H453.672ZM493.328 288.898V294.055H496.281V296.188H493.328V301.32H490.727V288.898H493.328ZM476.547 299.539C481.34 298.227 484.199 295.637 484.645 292.461H477.508V290.352H487.469C487.48 295.918 483.848 299.879 477.578 301.648L476.547 299.539ZM479.406 305.82C479.383 303.207 482.219 301.578 486.484 301.578C490.785 301.578 493.562 303.207 493.562 305.82C493.562 308.457 490.785 310.074 486.484 310.062C482.219 310.074 479.383 308.457 479.406 305.82ZM481.984 305.82C481.973 307.203 483.684 308.023 486.484 308.023C489.273 308.023 490.996 307.203 491.008 305.82C490.996 304.426 489.273 303.617 486.484 303.617C483.684 303.617 481.973 304.426 481.984 305.82ZM503.055 290.445C506.242 290.445 508.539 293.352 508.562 297.922C508.539 302.527 506.242 305.422 503.055 305.422C499.832 305.422 497.535 302.527 497.547 297.922C497.535 293.352 499.832 290.445 503.055 290.445ZM500.055 297.922C500.043 301.18 501.273 303.066 503.055 303.078C504.848 303.066 506.043 301.18 506.055 297.922C506.043 294.688 504.848 292.789 503.055 292.789C501.273 292.789 500.043 294.688 500.055 297.922ZM511.352 310.086V288.898H513.953V297.031H517.211V299.234H513.953V310.086H511.352ZM526.094 294.922C526.094 298.391 528.133 302.047 531.555 303.477L530.125 305.539C527.617 304.449 525.789 302.234 524.816 299.539C523.844 302.445 521.98 304.883 519.508 306.055L518.008 304.016C521.348 302.469 523.434 298.52 523.445 294.922V293.141H518.781V290.984H530.734V293.141H526.094V294.922ZM533.102 310.086V288.898H535.727V310.086H533.102ZM545.711 290.375C549.074 290.363 551.523 292.484 551.547 295.484C551.523 298.496 549.074 300.605 545.711 300.617C542.383 300.605 539.887 298.496 539.898 295.484C539.887 292.484 542.383 290.363 545.711 290.375ZM538.938 303.547C542.758 303.547 548.043 303.5 552.625 302.844L552.836 304.742C548.09 305.645 543.004 305.68 539.266 305.68L538.938 303.547ZM542.477 295.484C542.465 297.254 543.859 298.344 545.711 298.344C547.586 298.344 548.98 297.254 548.992 295.484C548.98 293.727 547.598 292.625 545.711 292.625C543.859 292.625 542.465 293.727 542.477 295.484ZM553.891 310.109V288.898H556.492V310.109H553.891ZM572.852 293.984C572.828 297.77 574.727 301.59 578.008 303.172L576.414 305.258C574.117 304.098 572.465 301.859 571.562 299.164C570.637 302.047 568.902 304.438 566.477 305.656L564.883 303.57C568.293 301.953 570.238 297.898 570.25 293.984V290.609H572.852V293.984ZM579.273 310.086V288.898H581.875V297.195H585.133V299.422H581.875V310.086H579.273ZM594.062 293.211C594.062 295.848 595.867 298.426 599.242 299.469L597.906 301.508C595.504 300.734 593.758 299.141 592.785 297.125C591.836 299.316 590.031 301.062 587.523 301.93L586.188 299.867C589.598 298.742 591.414 296 591.438 293.211V292.602H586.867V290.516H598.516V292.602H594.062V293.211ZM589.656 309.664V302.891H592.281V307.555H604.258V309.664H589.656ZM601.047 304.297V288.922H603.672V304.297H601.047ZM616.398 289.227C621.227 289.238 624.027 290.516 624.039 292.859C624.027 295.227 621.227 296.504 616.398 296.516C611.582 296.504 608.758 295.227 608.758 292.859C608.758 290.516 611.582 289.238 616.398 289.227ZM606.766 299.727V297.641H626.078V299.727H606.766ZM609.039 303.078V301.156H623.664V306.336H611.617V307.906H624.25V309.898H609.062V304.484H621.109V303.078H609.039ZM611.5 292.859C611.488 294.031 613.176 294.57 616.398 294.57C619.668 294.57 621.344 294.031 621.344 292.859C621.344 291.77 619.668 291.148 616.398 291.148C613.176 291.148 611.488 291.77 611.5 292.859ZM637.023 289.93V296.328C639.824 296.293 642.566 296.105 645.531 295.555L645.836 297.664C642.426 298.32 639.355 298.496 636.133 298.508H634.375V289.93H637.023ZM636.109 303.078V301.062H642.438V299.188H645.039V301.062H651.367V303.078H636.109ZM637.68 306.898C637.668 304.895 640.012 303.781 643.727 303.758C647.488 303.781 649.785 304.895 649.797 306.898C649.785 308.926 647.488 310.062 643.727 310.062C640.012 310.062 637.668 308.926 637.68 306.898ZM640.258 306.898C640.258 307.754 641.523 308.223 643.727 308.211C645.918 308.223 647.16 307.754 647.172 306.898C647.16 306.066 645.918 305.633 643.727 305.656C641.523 305.633 640.258 306.066 640.258 306.898ZM642.719 293.844V291.758H648.344V288.898H650.945V300.008H648.344V293.844H642.719ZM659.734 290.445C662.594 290.445 664.715 292.836 665.09 296.703H669.133V288.898H671.711V310.109H669.133V298.812H665.113C664.832 302.902 662.676 305.422 659.734 305.422C656.547 305.422 654.285 302.527 654.297 297.922C654.285 293.352 656.547 290.445 659.734 290.445ZM656.805 297.922C656.793 301.18 657.988 303.066 659.734 303.078C661.492 303.066 662.676 301.18 662.688 297.922C662.676 294.688 661.492 292.789 659.734 292.789C657.988 292.789 656.793 294.688 656.805 297.922ZM694 300.711V302.82H685.586V310.062H683.008V302.82H674.688V300.711H694ZM675.695 297.242C679.855 296.715 682.645 294.477 682.832 292.156H676.469V290.094H692.219V292.156H685.855C686.031 294.477 688.797 296.715 692.992 297.242L692.055 299.281C688.445 298.766 685.633 297.113 684.344 294.828C683.043 297.113 680.254 298.766 676.68 299.281L675.695 297.242ZM702.039 294.453C702.051 297.875 703.223 301.438 706.094 303.242L704.664 305.234C702.754 304.086 701.512 302.117 700.809 299.809C700.047 302.352 698.688 304.508 696.695 305.727L695.078 303.781C698.16 301.918 699.52 298.18 699.531 294.57V290.773H702.039V294.453ZM703.82 298.344V296.188H706.844V289.273H709.305V309.055H706.844V298.344H703.82ZM711.203 310.086V288.898H713.711V310.086H711.203ZM735.531 305.375V307.508H716.172V305.375H720.648V300.02C718.961 299.047 717.941 297.523 717.953 295.648C717.941 292.273 721.246 290.047 725.805 290.047C730.387 290.047 733.715 292.273 733.703 295.648C733.715 297.5 732.719 298.988 731.078 299.961V305.375H735.531ZM720.508 295.648C720.496 297.816 722.641 299.199 725.805 299.188C728.957 299.199 731.148 297.816 731.148 295.648C731.148 293.445 728.957 292.098 725.805 292.109C722.641 292.098 720.496 293.445 720.508 295.648ZM723.227 305.375H728.43V300.957C727.621 301.133 726.742 301.227 725.805 301.227C724.891 301.227 724.023 301.133 723.227 300.969V305.375ZM739.492 308.188C738.484 308.188 737.652 307.367 737.664 306.359C737.652 305.375 738.484 304.566 739.492 304.555C740.465 304.566 741.297 305.375 741.297 306.359C741.297 307.367 740.465 308.188 739.492 308.188Z" fill="#E5E5E5"/>
<path d="M615.177 258.474C618.032 265.313 621.805 271.401 621.805 278.804L508.196 278.804C508.196 271.401 511.732 263.895 514.587 257.055C516.039 253.576 512.793 249.017 511.56 244.526C510.326 240.034 509.38 230.814 512.52 228.103C515.661 225.392 524.527 228.443 524.527 228.443C531.468 230.627 537.131 236.935 541.095 235.306C547.987 232.473 552.456 229.522 565 229.522C577.545 229.522 582.25 232.473 589.142 235.306C595.816 238.049 598.383 232.874 603.343 229.522C608.077 226.322 616.424 224.667 619.674 228.103C621.79 230.34 621.259 238.172 619.674 244.998C618.265 251.071 613.833 255.253 615.177 258.474Z" fill="white"/>
<g filter="url(#filter3_f_18_14)">
<path fill-rule="evenodd" clip-rule="evenodd" d="M617.719 264.381C617.025 262.894 616.303 261.348 615.608 259.674C615.329 259.004 615.172 258.211 615.11 257.321C614.644 257.295 614.174 257.283 613.701 257.283C600.948 257.283 590.362 266.59 588.319 278.804L621.804 278.804C621.804 273.128 619.895 269.04 617.719 264.381Z" fill="#FAE7E9"/>
</g>
<g filter="url(#filter4_f_18_14)">
<path fill-rule="evenodd" clip-rule="evenodd" d="M513.862 257.567C515.102 257.38 516.372 257.283 517.665 257.283C530.332 257.283 540.848 266.59 542.877 278.804L508.196 278.804C508.196 272.112 510.075 267.628 512.513 261.812C512.803 261.12 513.101 260.409 513.404 259.674C513.651 259.075 513.797 258.361 513.862 257.567Z" fill="#FAE7E9"/>
</g>
<path d="M576.958 263.376C576.958 265.294 575.755 266.848 574.567 266.848C573.378 266.848 572.175 265.294 572.175 263.376C572.175 261.459 572.892 259.674 574.806 259.674C576.241 259.674 576.958 261.459 576.958 263.376Z" fill="black"/>
<path d="M568.222 267.616C568.29 268.538 566.797 271.245 564.72 271.399C562.642 271.553 560.766 269.095 560.698 268.174C560.63 267.252 561.768 266.416 563.846 266.262C565.923 266.109 568.154 266.694 568.222 267.616Z" fill="black"/>
<path d="M557.825 263.376C557.825 265.294 556.622 266.848 555.433 266.848C554.244 266.848 553.041 265.294 553.041 263.376C553.041 261.459 553.759 259.674 555.672 259.674C557.107 259.674 557.825 261.459 557.825 263.376Z" fill="black"/>
<path fill-rule="evenodd" clip-rule="evenodd" d="M611.709 225.138C614.906 224.741 618.393 225.123 620.492 227.332C621.284 228.166 621.718 229.342 621.962 230.551C622.211 231.789 622.294 233.233 622.26 234.768C622.191 237.841 621.645 241.459 620.841 244.907C620.186 247.718 618.914 250.11 617.888 252.038C617.736 252.324 617.589 252.599 617.451 252.865C616.895 253.93 616.491 254.788 616.287 255.537C616.091 256.258 616.114 256.761 616.289 257.18C616.799 258.395 617.355 259.645 617.919 260.914C618.876 263.067 619.858 265.274 620.676 267.456C622 270.984 623 274.684 623 278.593C623 279.37 622.367 280 621.585 280C620.804 280 620.171 279.37 620.171 278.593C620.171 275.158 619.292 271.815 618.026 268.44C617.229 266.315 616.318 264.269 615.39 262.187C614.818 260.902 614.24 259.603 613.678 258.263C613.184 257.085 613.257 255.901 613.556 254.802C613.847 253.73 614.383 252.634 614.939 251.568C615.091 251.278 615.246 250.986 615.402 250.692C616.432 248.749 617.519 246.699 618.085 244.271C618.86 240.948 619.368 237.53 619.431 234.705C619.463 233.291 619.382 232.07 619.187 231.104C618.987 230.109 618.696 229.54 618.435 229.265C617.296 228.066 615.007 227.564 612.059 227.93C609.194 228.285 606.15 229.415 603.988 230.871C602.837 231.646 601.813 232.533 600.768 233.445L600.684 233.518C599.69 234.386 598.649 235.295 597.537 236.019C596.372 236.777 595.069 237.375 593.539 237.559C592.004 237.744 590.353 237.499 588.51 236.744C587.47 236.319 586.5 235.9 585.559 235.494C583.295 234.517 581.203 233.614 578.725 232.867C575.283 231.829 571.127 231.112 565 231.112C558.873 231.112 554.779 231.829 551.399 232.865C549.03 233.591 547.036 234.46 544.868 235.404C543.875 235.837 542.845 236.286 541.725 236.744C540.302 237.327 538.83 237.15 537.469 236.702C536.12 236.257 534.714 235.488 533.325 234.668C532.827 234.374 532.327 234.072 531.824 233.768C529.424 232.317 526.948 230.821 524.258 229.978L524.181 229.954L524.108 229.921L524.108 229.921L524.108 229.921L524.108 229.921L524.105 229.92L524.087 229.912C524.071 229.905 524.046 229.895 524.013 229.88C523.945 229.851 523.844 229.809 523.712 229.755C523.449 229.648 523.068 229.497 522.603 229.329C521.669 228.99 520.422 228.586 519.132 228.306C517.82 228.021 516.573 227.889 515.6 228.018C514.64 228.145 514.202 228.477 514.001 228.9C513.14 230.709 512.61 233.458 512.465 236.378C512.32 239.284 512.566 242.175 513.129 244.217C513.419 245.267 513.818 246.379 514.249 247.551C514.303 247.697 514.357 247.843 514.412 247.991C514.789 249.012 515.182 250.073 515.508 251.112C516.232 253.411 516.788 256.027 515.85 258.263C515.519 259.053 515.185 259.837 514.853 260.616C512.279 266.654 509.829 272.401 509.829 278.593C509.829 279.37 509.196 280 508.415 280C507.633 280 507 279.37 507 278.593C507 271.787 509.698 265.477 512.251 259.506C512.585 258.725 512.916 257.95 513.239 257.18C513.748 255.965 513.529 254.242 512.808 251.952C512.504 250.985 512.137 249.993 511.758 248.966C511.703 248.818 511.648 248.669 511.593 248.52C511.162 247.351 510.726 246.139 510.401 244.961C509.735 242.548 509.485 239.341 509.639 236.24C509.792 233.153 510.355 229.984 511.443 227.696C512.217 226.072 513.761 225.422 515.227 225.228C516.679 225.036 518.3 225.245 519.735 225.556C521.192 225.873 522.569 226.321 523.573 226.685C524.078 226.868 524.494 227.032 524.786 227.151C524.932 227.211 525.047 227.26 525.127 227.294C525.148 227.302 525.166 227.31 525.181 227.317C528.204 228.277 531.005 229.975 533.386 231.417C533.864 231.707 534.326 231.987 534.769 232.248C536.148 233.061 537.325 233.689 538.36 234.031C539.384 234.368 540.097 234.368 540.649 234.142C541.642 233.735 542.608 233.315 543.571 232.895C545.812 231.92 548.039 230.95 550.565 230.176C554.251 229.046 558.631 228.298 565 228.298C571.369 228.298 575.805 229.046 579.546 230.174C582.189 230.971 584.504 231.969 586.829 232.973C587.74 233.366 588.653 233.759 589.587 234.142C591.069 234.749 592.23 234.882 593.199 234.766C594.172 234.649 595.064 234.266 595.987 233.665C596.931 233.05 597.843 232.254 598.899 231.332L598.902 231.33C599.934 230.43 601.083 229.428 602.402 228.54C604.955 226.822 608.427 225.544 611.709 225.138Z" fill="black"/>
<defs>
<filter id="filter0_d_18_14" x="0.332031" y="49.7964" width="552.507" height="553.208" filterUnits="userSpaceOnUse" color-interpolation-filters="sRGB">
<feFlood flood-opacity="0" result="BackgroundImageFix"/>
<feColorMatrix in="SourceAlpha" type="matrix" values="0 0 0 0 0 0 0 0 0 0 0 0 0 0 0 0 0 0 127 0" result="hardAlpha"/>
<feOffset dy="4"/>
<feGaussianBlur stdDeviation="6"/>
<feComposite in2="hardAlpha" operator="out"/>
<feColorMatrix type="matrix" values="0 0 0 0 0 0 0 0 0 0 0 0 0 0 0 0 0 0 0.1 0"/>
<feBlend mode="normal" in2="BackgroundImageFix" result="effect1_dropShadow_18_14"/>
<feBlend mode="normal" in="SourceGraphic" in2="effect1_dropShadow_18_14" result="shape"/>
</filter>
<filter id="filter1_d_18_14" x="577.331" y="49.7964" width="552.507" height="553.208" filterUnits="userSpaceOnUse" color-interpolation-filters="sRGB">
<feFlood flood-opacity="0" result="BackgroundImageFix"/>
<feColorMatrix in="SourceAlpha" type="matrix" values="0 0 0 0 0 0 0 0 0 0 0 0 0 0 0 0 0 0 127 0" result="hardAlpha"/>
<feOffset dy="4"/>
<feGaussianBlur stdDeviation="6"/>
<feComposite in2="hardAlpha" operator="out"/>
<feColorMatrix type="matrix" values="0 0 0 0 0 0 0 0 0 0 0 0 0 0 0 0 0 0 0.1 0"/>
<feBlend mode="normal" in2="BackgroundImageFix" result="effect1_dropShadow_18_14"/>
<feBlend mode="normal" in="SourceGraphic" in2="effect1_dropShadow_18_14" result="shape"/>
</filter>
<filter id="filter2_d_18_14" x="283" y="0" width="564" height="564" filterUnits="userSpaceOnUse" color-interpolation-filters="sRGB">
<feFlood flood-opacity="0" result="BackgroundImageFix"/>
<feColorMatrix in="SourceAlpha" type="matrix" values="0 0 0 0 0 0 0 0 0 0 0 0 0 0 0 0 0 0 127 0" result="hardAlpha"/>
<feOffset dy="4"/>
<feGaussianBlur stdDeviation="6"/>
<feComposite in2="hardAlpha" operator="out"/>
<feColorMatrix type="matrix" values="0 0 0 0 0 0 0 0 0 0 0 0 0 0 0 0 0 0 0.1 0"/>
<feBlend mode="normal" in2="BackgroundImageFix" result="effect1_dropShadow_18_14"/>
<feBlend mode="normal" in="SourceGraphic" in2="effect1_dropShadow_18_14" result="shape"/>
</filter>
<filter id="filter3_f_18_14" x="584.319" y="253.283" width="41.4844" height="29.522" filterUnits="userSpaceOnUse" color-interpolation-filters="sRGB">
<feFlood flood-opacity="0" result="BackgroundImageFix"/>
<feBlend mode="normal" in="SourceGraphic" in2="BackgroundImageFix" result="shape"/>
<feGaussianBlur stdDeviation="2" result="effect1_foregroundBlur_18_14"/>
</filter>
<filter id="filter4_f_18_14" x="504.196" y="253.283" width="42.6807" height="29.522" filterUnits="userSpaceOnUse" color-interpolation-filters="sRGB">
<feFlood flood-opacity="0" result="BackgroundImageFix"/>
<feBlend mode="normal" in="SourceGraphic" in2="BackgroundImageFix" result="shape"/>
<feGaussianBlur stdDeviation="2" result="effect1_foregroundBlur_18_14"/>
</filter>
</defs>
</svg>
