<svg width="522" height="33" viewBox="0 0 522 33" fill="none" xmlns="http://www.w3.org/2000/svg">
<path d="M23.416 0.227999H26.404V32.844H23.416V0.227999ZM9.232 2.748C14.056 2.748 17.512 7.176 17.512 14.088C17.512 21.036 14.056 25.464 9.232 25.464C4.444 25.464 0.988 21.036 0.988 14.088C0.988 7.176 4.444 2.748 9.232 2.748ZM9.232 5.448C6.064 5.448 3.832 8.832 3.832 14.088C3.832 19.38 6.064 22.836 9.232 22.836C12.436 22.836 14.632 19.38 14.632 14.088C14.632 8.832 12.436 5.448 9.232 5.448ZM34.7532 3.432H49.7292V24.636H34.7532V3.432ZM46.8132 5.844H37.6692V22.224H46.8132V5.844ZM56.5332 0.227999H59.5212V32.844H56.5332V0.227999ZM74.6384 4.908H77.0504V10.2C77.0504 17.076 72.9104 23.988 67.7264 26.544L65.9984 24.168C70.7144 21.936 74.6384 15.816 74.6384 10.2V4.908ZM75.2144 4.908H77.6264V10.2C77.6264 15.708 81.5504 21.324 86.3384 23.376L84.6464 25.752C79.3904 23.304 75.2144 16.968 75.2144 10.2V4.908ZM67.0784 3.576H85.2584V6.096H67.0784V3.576ZM89.6504 0.263999H92.6384V32.808H89.6504V0.263999ZM99.1516 26.328H128.636V28.812H99.1516V26.328ZM112.328 19.344H115.316V27.372H112.328V19.344ZM102.716 2.676H125V12.54H105.776V19.056H102.824V10.128H122.048V5.088H102.716V2.676ZM102.824 17.796H125.756V20.244H102.824V17.796ZM165.518 0.263999H168.506V16.68H165.518V0.263999ZM145.574 18.732H155.654V26.436H148.49V30.756H145.646V24.276H152.81V21H145.574V18.732ZM145.646 30.036H147.338C151.622 30.036 153.89 29.964 156.734 29.424L157.058 31.656C154.07 32.268 151.694 32.304 147.338 32.304H145.646V30.036ZM156.878 20.244H170.774V22.476H156.878V20.244ZM163.826 23.772C167.066 23.772 169.442 25.536 169.442 28.272C169.442 31.008 167.066 32.736 163.826 32.736C160.622 32.736 158.174 31.008 158.174 28.272C158.174 25.536 160.622 23.772 163.826 23.772ZM163.826 25.932C162.026 25.932 160.73 26.832 160.73 28.272C160.73 29.712 162.026 30.648 163.826 30.648C165.626 30.648 166.886 29.712 166.886 28.272C166.886 26.832 165.626 25.932 163.826 25.932ZM162.422 17.256H165.302V21.684H162.422V17.256ZM150.974 1.452C155.834 1.452 159.398 4.404 159.398 8.688C159.398 12.936 155.834 15.888 150.974 15.888C146.15 15.888 142.586 12.936 142.586 8.688C142.586 4.404 146.15 1.452 150.974 1.452ZM150.974 3.9C147.842 3.9 145.466 5.88 145.466 8.688C145.466 11.496 147.842 13.44 150.974 13.44C154.142 13.44 156.482 11.496 156.482 8.688C156.482 5.88 154.142 3.9 150.974 3.9ZM183.66 2.748C188.376 2.748 191.76 7.176 191.76 14.088C191.76 21.036 188.376 25.464 183.66 25.464C178.908 25.464 175.56 21.036 175.56 14.088C175.56 7.176 178.908 2.748 183.66 2.748ZM183.66 5.448C180.528 5.448 178.404 8.832 178.404 14.088C178.404 19.38 180.528 22.836 183.66 22.836C186.792 22.836 188.916 19.38 188.916 14.088C188.916 8.832 186.792 5.448 183.66 5.448ZM198.816 0.227999H201.768V32.844H198.816V0.227999ZM190.788 12.648H200.112V15.096H190.788V12.648ZM231.933 0.227999H234.885V32.844H231.933V0.227999ZM223.329 12.324H232.797V14.772H223.329V12.324ZM209.397 2.82H212.349V11.28H221.385V2.82H224.337V24.672H209.397V2.82ZM212.349 13.656V22.188H221.385V13.656H212.349ZM264.87 0.299998H267.858V24.276H264.87V0.299998ZM246.654 29.64H268.758V32.088H246.654V29.64ZM246.654 22.368H249.642V30.864H246.654V22.368ZM242.874 17.184H245.502C251.658 17.184 255.942 16.968 260.982 16.104L261.306 18.552C256.122 19.452 251.802 19.632 245.502 19.632H242.874V17.184ZM242.802 2.568H257.562V12H245.79V17.94H242.874V9.696H254.646V5.016H242.802V2.568ZM306.181 0.263999H309.169V19.74H306.181V0.263999ZM308.341 8.652H313.993V11.172H308.341V8.652ZM297.181 2.64H300.385C300.385 10.992 294.589 17.076 285.193 19.848L283.933 17.436C292.213 14.988 297.181 10.092 297.181 4.008V2.64ZM285.373 2.64H298.873V5.124H285.373V2.64ZM298.981 20.136C305.425 20.136 309.529 22.512 309.529 26.436C309.529 30.36 305.425 32.736 298.981 32.736C292.501 32.736 288.361 30.36 288.361 26.436C288.361 22.512 292.501 20.136 298.981 20.136ZM298.981 22.512C294.301 22.512 291.313 23.988 291.313 26.436C291.313 28.884 294.301 30.36 298.981 30.36C303.661 30.36 306.649 28.884 306.649 26.436C306.649 23.988 303.661 22.512 298.981 22.512ZM325.69 2.748C330.478 2.748 333.862 7.176 333.862 14.088C333.862 21.036 330.478 25.464 325.69 25.464C320.902 25.464 317.518 21.036 317.518 14.088C317.518 7.176 320.902 2.748 325.69 2.748ZM325.69 5.448C322.522 5.448 320.362 8.832 320.362 14.088C320.362 19.38 322.522 22.836 325.69 22.836C328.822 22.836 331.018 19.38 331.018 14.088C331.018 8.832 328.822 5.448 325.69 5.448ZM339.046 0.263999H342.07V32.808H339.046V0.263999ZM341.35 13.26H347.398V15.78H341.35V13.26ZM358.771 4.908H361.183V10.2C361.183 17.076 357.043 23.988 351.859 26.544L350.131 24.168C354.847 21.936 358.771 15.816 358.771 10.2V4.908ZM359.347 4.908H361.759V10.2C361.759 15.708 365.683 21.324 370.471 23.376L368.779 25.752C363.523 23.304 359.347 16.968 359.347 10.2V4.908ZM351.211 3.576H369.391V6.096H351.211V3.576ZM373.783 0.263999H376.771V32.808H373.783V0.263999ZM400.982 5.628H403.43V7.032C403.43 12.576 399.758 17.076 394.286 18.804L392.882 16.464C397.706 14.988 400.982 11.28 400.982 7.032V5.628ZM401.522 5.628H403.97V7.032C403.97 10.92 407.138 14.448 411.926 15.852L410.522 18.156C405.086 16.536 401.522 12.216 401.522 7.032V5.628ZM393.782 4.044H411.134V6.456H393.782V4.044ZM400.982 0.119998H403.97V5.052H400.982V0.119998ZM415.13 0.263999H418.118V19.164H415.13V0.263999ZM417.29 8.292H422.942V10.776H417.29V8.292ZM406.454 21.864H409.01V22.728C409.01 27.84 403.61 31.62 397.238 32.7L396.086 30.396C401.702 29.532 406.454 26.364 406.454 22.728V21.864ZM407.03 21.864H409.586V22.728C409.586 26.292 414.41 29.532 419.918 30.432L418.802 32.736C412.43 31.656 407.03 27.732 407.03 22.728V21.864ZM397.346 20.928H418.694V23.34H397.346V20.928ZM449.687 0.263999H452.675V32.808H449.687V0.263999ZM440.147 3.756H443.099C443.099 13.188 438.851 21.432 427.979 26.76L426.395 24.348C435.791 19.812 440.147 12.9 440.147 4.26V3.756ZM427.871 3.756H441.443V6.204H427.871V3.756ZM470.298 8.58H474.438L483.15 16.824L474.438 25.104H470.298L479.01 16.824L470.298 8.58Z" fill="#19191B"/>
<path d="M489.704 8.58H493.844L502.556 16.824L493.844 25.104H489.704L498.416 16.824L489.704 8.58Z" fill="#19191B" fill-opacity="0.6"/>
<path d="M509.111 8.58H513.251L521.963 16.824L513.251 25.104H509.111L517.823 16.824L509.111 8.58Z" fill="#19191B" fill-opacity="0.2"/>
</svg>
