<svg width="520" height="33" viewBox="0 0 520 33" fill="none" xmlns="http://www.w3.org/2000/svg">
<path d="M0.384 8.58H4.524L13.236 16.824L4.524 25.104H0.384L9.096 16.824L0.384 8.58ZM19.7903 8.58H23.9303L32.6423 16.824L23.9303 25.104H19.7903L28.5023 16.824L19.7903 8.58ZM39.1965 8.58H43.3365L52.0485 16.824L43.3365 25.104H39.1965L47.9085 16.824L39.1965 8.58ZM90.2324 0.227999H93.2204V32.844H90.2324V0.227999ZM76.0484 2.748C80.8724 2.748 84.3284 7.176 84.3284 14.088C84.3284 21.036 80.8724 25.464 76.0484 25.464C71.2604 25.464 67.8044 21.036 67.8044 14.088C67.8044 7.176 71.2604 2.748 76.0484 2.748ZM76.0484 5.448C72.8804 5.448 70.6484 8.832 70.6484 14.088C70.6484 19.38 72.8804 22.836 76.0484 22.836C79.2524 22.836 81.4484 19.38 81.4484 14.088C81.4484 8.832 79.2524 5.448 76.0484 5.448ZM101.57 3.432H116.546V24.636H101.57V3.432ZM113.63 5.844H104.486V22.224H113.63V5.844ZM123.35 0.227999H126.338V32.844H123.35V0.227999ZM141.455 4.908H143.867V10.2C143.867 17.076 139.727 23.988 134.543 26.544L132.815 24.168C137.531 21.936 141.455 15.816 141.455 10.2V4.908ZM142.031 4.908H144.443V10.2C144.443 15.708 148.367 21.324 153.155 23.376L151.463 25.752C146.207 23.304 142.031 16.968 142.031 10.2V4.908ZM133.895 3.576H152.075V6.096H133.895V3.576ZM156.467 0.263999H159.455V32.808H156.467V0.263999ZM165.968 26.328H195.452V28.812H165.968V26.328ZM179.144 19.344H182.132V27.372H179.144V19.344ZM169.532 2.676H191.816V12.54H172.592V19.056H169.64V10.128H188.864V5.088H169.532V2.676ZM169.64 17.796H192.572V20.244H169.64V17.796ZM232.335 0.263999H235.323V16.68H232.335V0.263999ZM212.391 18.732H222.471V26.436H215.307V30.756H212.463V24.276H219.627V21H212.391V18.732ZM212.463 30.036H214.155C218.439 30.036 220.707 29.964 223.551 29.424L223.875 31.656C220.887 32.268 218.511 32.304 214.155 32.304H212.463V30.036ZM223.695 20.244H237.591V22.476H223.695V20.244ZM230.643 23.772C233.883 23.772 236.259 25.536 236.259 28.272C236.259 31.008 233.883 32.736 230.643 32.736C227.439 32.736 224.991 31.008 224.991 28.272C224.991 25.536 227.439 23.772 230.643 23.772ZM230.643 25.932C228.843 25.932 227.547 26.832 227.547 28.272C227.547 29.712 228.843 30.648 230.643 30.648C232.443 30.648 233.703 29.712 233.703 28.272C233.703 26.832 232.443 25.932 230.643 25.932ZM229.239 17.256H232.119V21.684H229.239V17.256ZM217.791 1.452C222.651 1.452 226.215 4.404 226.215 8.688C226.215 12.936 222.651 15.888 217.791 15.888C212.967 15.888 209.403 12.936 209.403 8.688C209.403 4.404 212.967 1.452 217.791 1.452ZM217.791 3.9C214.659 3.9 212.283 5.88 212.283 8.688C212.283 11.496 214.659 13.44 217.791 13.44C220.959 13.44 223.299 11.496 223.299 8.688C223.299 5.88 220.959 3.9 217.791 3.9ZM250.476 2.748C255.192 2.748 258.576 7.176 258.576 14.088C258.576 21.036 255.192 25.464 250.476 25.464C245.724 25.464 242.376 21.036 242.376 14.088C242.376 7.176 245.724 2.748 250.476 2.748ZM250.476 5.448C247.344 5.448 245.22 8.832 245.22 14.088C245.22 19.38 247.344 22.836 250.476 22.836C253.608 22.836 255.732 19.38 255.732 14.088C255.732 8.832 253.608 5.448 250.476 5.448ZM265.632 0.227999H268.584V32.844H265.632V0.227999ZM257.604 12.648H266.928V15.096H257.604V12.648ZM298.749 0.227999H301.701V32.844H298.749V0.227999ZM290.145 12.324H299.613V14.772H290.145V12.324ZM276.213 2.82H279.165V11.28H288.201V2.82H291.153V24.672H276.213V2.82ZM279.165 13.656V22.188H288.201V13.656H279.165ZM331.686 0.299998H334.674V24.276H331.686V0.299998ZM313.47 29.64H335.574V32.088H313.47V29.64ZM313.47 22.368H316.458V30.864H313.47V22.368ZM309.69 17.184H312.318C318.474 17.184 322.758 16.968 327.798 16.104L328.122 18.552C322.938 19.452 318.618 19.632 312.318 19.632H309.69V17.184ZM309.618 2.568H324.378V12H312.606V17.94H309.69V9.696H321.462V5.016H309.618V2.568ZM372.997 0.263999H375.985V19.74H372.997V0.263999ZM375.157 8.652H380.809V11.172H375.157V8.652ZM363.997 2.64H367.201C367.201 10.992 361.405 17.076 352.009 19.848L350.749 17.436C359.029 14.988 363.997 10.092 363.997 4.008V2.64ZM352.189 2.64H365.689V5.124H352.189V2.64ZM365.797 20.136C372.241 20.136 376.345 22.512 376.345 26.436C376.345 30.36 372.241 32.736 365.797 32.736C359.317 32.736 355.177 30.36 355.177 26.436C355.177 22.512 359.317 20.136 365.797 20.136ZM365.797 22.512C361.117 22.512 358.129 23.988 358.129 26.436C358.129 28.884 361.117 30.36 365.797 30.36C370.477 30.36 373.465 28.884 373.465 26.436C373.465 23.988 370.477 22.512 365.797 22.512ZM392.506 2.748C397.294 2.748 400.678 7.176 400.678 14.088C400.678 21.036 397.294 25.464 392.506 25.464C387.718 25.464 384.334 21.036 384.334 14.088C384.334 7.176 387.718 2.748 392.506 2.748ZM392.506 5.448C389.338 5.448 387.178 8.832 387.178 14.088C387.178 19.38 389.338 22.836 392.506 22.836C395.638 22.836 397.834 19.38 397.834 14.088C397.834 8.832 395.638 5.448 392.506 5.448ZM405.862 0.263999H408.886V32.808H405.862V0.263999ZM408.166 13.26H414.214V15.78H408.166V13.26ZM425.588 4.908H428V10.2C428 17.076 423.86 23.988 418.676 26.544L416.948 24.168C421.664 21.936 425.588 15.816 425.588 10.2V4.908ZM426.164 4.908H428.576V10.2C428.576 15.708 432.5 21.324 437.288 23.376L435.596 25.752C430.34 23.304 426.164 16.968 426.164 10.2V4.908ZM418.028 3.576H436.208V6.096H418.028V3.576ZM440.6 0.263999H443.588V32.808H440.6V0.263999ZM467.798 5.628H470.246V7.032C470.246 12.576 466.574 17.076 461.102 18.804L459.698 16.464C464.522 14.988 467.798 11.28 467.798 7.032V5.628ZM468.338 5.628H470.786V7.032C470.786 10.92 473.954 14.448 478.742 15.852L477.338 18.156C471.902 16.536 468.338 12.216 468.338 7.032V5.628ZM460.598 4.044H477.95V6.456H460.598V4.044ZM467.798 0.119998H470.786V5.052H467.798V0.119998ZM481.946 0.263999H484.934V19.164H481.946V0.263999ZM484.106 8.292H489.758V10.776H484.106V8.292ZM473.27 21.864H475.826V22.728C475.826 27.84 470.426 31.62 464.054 32.7L462.902 30.396C468.518 29.532 473.27 26.364 473.27 22.728V21.864ZM473.846 21.864H476.402V22.728C476.402 26.292 481.226 29.532 486.734 30.432L485.618 32.736C479.246 31.656 473.846 27.732 473.846 22.728V21.864ZM464.162 20.928H485.51V23.34H464.162V20.928ZM516.504 0.263999H519.492V32.808H516.504V0.263999ZM506.964 3.756H509.916C509.916 13.188 505.668 21.432 494.796 26.76L493.212 24.348C502.608 19.812 506.964 12.9 506.964 4.26V3.756ZM494.688 3.756H508.26V6.204H494.688V3.756Z" fill="#FFB941"/>
</svg>
