<svg width="391" height="33" viewBox="0 0 391 33" fill="none" xmlns="http://www.w3.org/2000/svg">
<path d="M13.832 3.468H16.424V4.836C16.424 10.668 10.232 14.952 3.68 16.068L2.528 13.692C8.252 12.864 13.832 9.12 13.832 4.836V3.468ZM14.588 3.468H17.144V4.836C17.144 9.12 22.76 12.864 28.448 13.692L27.332 16.068C20.744 14.952 14.588 10.668 14.588 4.836V3.468ZM13.94 20.388H16.892V32.808H13.94V20.388ZM0.8 18.804H30.212V21.252H0.8V18.804ZM3.536 2.28H27.368V4.692H3.536V2.28ZM57.5692 0.299998H60.5932V24.06H57.5692V0.299998ZM39.6772 29.64H61.5652V32.088H39.6772V29.64ZM39.6772 21.612H42.6292V30.468H39.6772V21.612ZM43.1332 2.532C47.9932 2.532 51.5932 5.844 51.5932 10.56C51.5932 15.24 47.9932 18.588 43.1332 18.588C38.2732 18.588 34.6372 15.24 34.6372 10.56C34.6372 5.844 38.2732 2.532 43.1332 2.532ZM43.1332 5.124C39.9652 5.124 37.5532 7.356 37.5532 10.56C37.5532 13.728 39.9652 15.96 43.1332 15.96C46.3012 15.96 48.7132 13.728 48.7132 10.56C48.7132 7.356 46.3012 5.124 43.1332 5.124ZM100.284 0.263999H103.272V16.68H100.284V0.263999ZM80.34 18.732H90.42V26.436H83.256V30.756H80.412V24.276H87.576V21H80.34V18.732ZM80.412 30.036H82.104C86.388 30.036 88.656 29.964 91.5 29.424L91.824 31.656C88.836 32.268 86.46 32.304 82.104 32.304H80.412V30.036ZM91.644 20.244H105.54V22.476H91.644V20.244ZM98.592 23.772C101.832 23.772 104.208 25.536 104.208 28.272C104.208 31.008 101.832 32.736 98.592 32.736C95.388 32.736 92.94 31.008 92.94 28.272C92.94 25.536 95.388 23.772 98.592 23.772ZM98.592 25.932C96.792 25.932 95.496 26.832 95.496 28.272C95.496 29.712 96.792 30.648 98.592 30.648C100.392 30.648 101.652 29.712 101.652 28.272C101.652 26.832 100.392 25.932 98.592 25.932ZM97.188 17.256H100.068V21.684H97.188V17.256ZM85.74 1.452C90.6 1.452 94.164 4.404 94.164 8.688C94.164 12.936 90.6 15.888 85.74 15.888C80.916 15.888 77.352 12.936 77.352 8.688C77.352 4.404 80.916 1.452 85.74 1.452ZM85.74 3.9C82.608 3.9 80.232 5.88 80.232 8.688C80.232 11.496 82.608 13.44 85.74 13.44C88.908 13.44 91.248 11.496 91.248 8.688C91.248 5.88 88.908 3.9 85.74 3.9ZM109.713 17.364H139.125V19.812H109.713V17.364ZM113.529 29.64H135.885V32.088H113.529V29.64ZM113.529 22.656H116.517V30.396H113.529V22.656ZM124.437 1.344C131.385 1.344 135.885 3.792 135.885 7.86C135.885 11.892 131.385 14.34 124.437 14.34C117.453 14.34 112.989 11.892 112.989 7.86C112.989 3.792 117.453 1.344 124.437 1.344ZM124.437 3.792C119.325 3.792 116.049 5.304 116.049 7.86C116.049 10.416 119.325 11.928 124.437 11.928C129.549 11.928 132.825 10.416 132.825 7.86C132.825 5.304 129.549 3.792 124.437 3.792ZM174.712 0.263999H177.7V19.74H174.712V0.263999ZM176.872 8.652H182.524V11.172H176.872V8.652ZM165.712 2.64H168.916C168.916 10.992 163.12 17.076 153.724 19.848L152.464 17.436C160.744 14.988 165.712 10.092 165.712 4.008V2.64ZM153.904 2.64H167.404V5.124H153.904V2.64ZM167.512 20.136C173.956 20.136 178.06 22.512 178.06 26.436C178.06 30.36 173.956 32.736 167.512 32.736C161.032 32.736 156.892 30.36 156.892 26.436C156.892 22.512 161.032 20.136 167.512 20.136ZM167.512 22.512C162.832 22.512 159.844 23.988 159.844 26.436C159.844 28.884 162.832 30.36 167.512 30.36C172.192 30.36 175.18 28.884 175.18 26.436C175.18 23.988 172.192 22.512 167.512 22.512ZM194.221 2.748C199.009 2.748 202.393 7.176 202.393 14.088C202.393 21.036 199.009 25.464 194.221 25.464C189.433 25.464 186.049 21.036 186.049 14.088C186.049 7.176 189.433 2.748 194.221 2.748ZM194.221 5.448C191.053 5.448 188.893 8.832 188.893 14.088C188.893 19.38 191.053 22.836 194.221 22.836C197.353 22.836 199.549 19.38 199.549 14.088C199.549 8.832 197.353 5.448 194.221 5.448ZM207.577 0.263999H210.601V32.808H207.577V0.263999ZM209.881 13.26H215.929V15.78H209.881V13.26ZM227.302 4.908H229.714V10.2C229.714 17.076 225.574 23.988 220.39 26.544L218.662 24.168C223.378 21.936 227.302 15.816 227.302 10.2V4.908ZM227.878 4.908H230.29V10.2C230.29 15.708 234.214 21.324 239.002 23.376L237.31 25.752C232.054 23.304 227.878 16.968 227.878 10.2V4.908ZM219.742 3.576H237.922V6.096H219.742V3.576ZM242.314 0.263999H245.302V32.808H242.314V0.263999ZM269.513 5.628H271.961V7.032C271.961 12.576 268.289 17.076 262.817 18.804L261.413 16.464C266.237 14.988 269.513 11.28 269.513 7.032V5.628ZM270.053 5.628H272.501V7.032C272.501 10.92 275.669 14.448 280.457 15.852L279.053 18.156C273.617 16.536 270.053 12.216 270.053 7.032V5.628ZM262.313 4.044H279.665V6.456H262.313V4.044ZM269.513 0.119998H272.501V5.052H269.513V0.119998ZM283.661 0.263999H286.649V19.164H283.661V0.263999ZM285.821 8.292H291.473V10.776H285.821V8.292ZM274.985 21.864H277.541V22.728C277.541 27.84 272.141 31.62 265.769 32.7L264.617 30.396C270.233 29.532 274.985 26.364 274.985 22.728V21.864ZM275.561 21.864H278.117V22.728C278.117 26.292 282.941 29.532 288.449 30.432L287.333 32.736C280.961 31.656 275.561 27.732 275.561 22.728V21.864ZM265.877 20.928H287.225V23.34H265.877V20.928ZM318.218 0.263999H321.206V32.808H318.218V0.263999ZM308.678 3.756H311.63C311.63 13.188 307.382 21.432 296.51 26.76L294.926 24.348C304.322 19.812 308.678 12.9 308.678 4.26V3.756ZM296.402 3.756H309.974V6.204H296.402V3.756ZM338.829 8.58H342.969L351.681 16.824L342.969 25.104H338.829L347.541 16.824L338.829 8.58Z" fill="#19191B"/>
<path d="M358.236 8.58H362.376L371.088 16.824L362.376 25.104H358.236L366.948 16.824L358.236 8.58Z" fill="#19191B" fill-opacity="0.6"/>
<path d="M377.642 8.58H381.782L390.494 16.824L381.782 25.104H377.642L386.354 16.824L377.642 8.58Z" fill="#19191B" fill-opacity="0.2"/>
</svg>
