<svg width="467" height="33" viewBox="0 0 467 33" fill="none" xmlns="http://www.w3.org/2000/svg">
<path d="M7.604 3.324H9.944V9.516C9.944 16.32 7.064 22.908 2.312 25.788L0.404 23.556C4.904 20.928 7.604 15.096 7.604 9.516V3.324ZM8.144 3.324H10.484V9.336C10.484 14.7 13.004 20.208 17.324 22.62L15.524 24.96C10.772 22.224 8.144 15.888 8.144 9.336V3.324ZM25.568 0.263999H28.448V32.808H25.568V0.263999ZM20.42 13.332H26.648V15.816H20.42V13.332ZM18.404 0.947999H21.248V31.188H18.404V0.947999ZM56.5468 3.468H59.1388V4.836C59.1388 10.668 52.9468 14.952 46.3948 16.068L45.2428 13.692C50.9668 12.864 56.5468 9.12 56.5468 4.836V3.468ZM57.3028 3.468H59.8588V4.836C59.8588 9.12 65.4748 12.864 71.1628 13.692L70.0468 16.068C63.4588 14.952 57.3028 10.668 57.3028 4.836V3.468ZM56.6548 20.388H59.6068V32.808H56.6548V20.388ZM43.5148 18.804H72.9268V21.252H43.5148V18.804ZM46.2508 2.28H70.0828V4.692H46.2508V2.28ZM100.284 0.299998H103.308V24.06H100.284V0.299998ZM82.392 29.64H104.28V32.088H82.392V29.64ZM82.392 21.612H85.344V30.468H82.392V21.612ZM85.848 2.532C90.708 2.532 94.308 5.844 94.308 10.56C94.308 15.24 90.708 18.588 85.848 18.588C80.988 18.588 77.352 15.24 77.352 10.56C77.352 5.844 80.988 2.532 85.848 2.532ZM85.848 5.124C82.68 5.124 80.268 7.356 80.268 10.56C80.268 13.728 82.68 15.96 85.848 15.96C89.016 15.96 91.428 13.728 91.428 10.56C91.428 7.356 89.016 5.124 85.848 5.124ZM124.437 0.803998C131.601 0.803998 135.885 2.82 135.885 6.456C135.885 10.092 131.601 12.108 124.437 12.108C117.237 12.108 112.989 10.092 112.989 6.456C112.989 2.82 117.237 0.803998 124.437 0.803998ZM124.437 3.072C119.109 3.072 116.049 4.296 116.049 6.456C116.049 8.616 119.109 9.84 124.437 9.84C129.729 9.84 132.789 8.616 132.789 6.456C132.789 4.296 129.729 3.072 124.437 3.072ZM109.713 14.268H139.125V16.68H109.713V14.268ZM113.277 19.452H135.381V26.796H116.301V30.756H113.349V24.636H132.429V21.756H113.277V19.452ZM113.349 30.108H136.353V32.448H113.349V30.108ZM160.564 5.628H163.012V7.032C163.012 12.576 159.34 17.076 153.868 18.804L152.464 16.464C157.288 14.988 160.564 11.28 160.564 7.032V5.628ZM161.104 5.628H163.552V7.032C163.552 10.92 166.72 14.448 171.508 15.852L170.104 18.156C164.668 16.536 161.104 12.216 161.104 7.032V5.628ZM153.364 4.044H170.716V6.456H153.364V4.044ZM160.564 0.119998H163.552V5.052H160.564V0.119998ZM174.712 0.263999H177.7V19.164H174.712V0.263999ZM176.872 8.292H182.524V10.776H176.872V8.292ZM166.036 21.864H168.592V22.728C168.592 27.84 163.192 31.62 156.82 32.7L155.668 30.396C161.284 29.532 166.036 26.364 166.036 22.728V21.864ZM166.612 21.864H169.168V22.728C169.168 26.292 173.992 29.532 179.5 30.432L178.384 32.736C172.012 31.656 166.612 27.732 166.612 22.728V21.864ZM156.928 20.928H178.276V23.34H156.928V20.928ZM189.541 10.02H211.645V12.468H189.541V10.02ZM185.545 16.824H215.065V19.272H185.545V16.824ZM189.541 1.452H192.493V11.244H189.541V1.452ZM189.325 29.568H211.825V32.016H189.325V29.568ZM189.325 22.512H192.277V30.216H189.325V22.512ZM250.544 0.263999H253.532V19.74H250.544V0.263999ZM252.704 8.652H258.356V11.172H252.704V8.652ZM241.544 2.64H244.748C244.748 10.992 238.952 17.076 229.556 19.848L228.296 17.436C236.576 14.988 241.544 10.092 241.544 4.008V2.64ZM229.736 2.64H243.236V5.124H229.736V2.64ZM243.344 20.136C249.788 20.136 253.892 22.512 253.892 26.436C253.892 30.36 249.788 32.736 243.344 32.736C236.864 32.736 232.724 30.36 232.724 26.436C232.724 22.512 236.864 20.136 243.344 20.136ZM243.344 22.512C238.664 22.512 235.676 23.988 235.676 26.436C235.676 28.884 238.664 30.36 243.344 30.36C248.024 30.36 251.012 28.884 251.012 26.436C251.012 23.988 248.024 22.512 243.344 22.512ZM270.053 2.748C274.841 2.748 278.225 7.176 278.225 14.088C278.225 21.036 274.841 25.464 270.053 25.464C265.265 25.464 261.881 21.036 261.881 14.088C261.881 7.176 265.265 2.748 270.053 2.748ZM270.053 5.448C266.885 5.448 264.725 8.832 264.725 14.088C264.725 19.38 266.885 22.836 270.053 22.836C273.185 22.836 275.381 19.38 275.381 14.088C275.381 8.832 273.185 5.448 270.053 5.448ZM283.409 0.263999H286.433V32.808H283.409V0.263999ZM285.713 13.26H291.761V15.78H285.713V13.26ZM303.134 4.908H305.546V10.2C305.546 17.076 301.406 23.988 296.222 26.544L294.494 24.168C299.21 21.936 303.134 15.816 303.134 10.2V4.908ZM303.71 4.908H306.122V10.2C306.122 15.708 310.046 21.324 314.834 23.376L313.142 25.752C307.886 23.304 303.71 16.968 303.71 10.2V4.908ZM295.574 3.576H313.754V6.096H295.574V3.576ZM318.146 0.263999H321.134V32.808H318.146V0.263999ZM337.245 26.184H366.729V28.668H337.245V26.184ZM350.421 18.408H353.409V26.904H350.421V18.408ZM340.701 2.568H343.653V8.364H360.249V2.568H363.201V19.2H340.701V2.568ZM343.653 10.776V16.752H360.249V10.776H343.653ZM394.051 0.263999H397.039V32.808H394.051V0.263999ZM384.511 3.756H387.463C387.463 13.188 383.215 21.432 372.343 26.76L370.759 24.348C380.155 19.812 384.511 12.9 384.511 4.26V3.756ZM372.235 3.756H385.807V6.204H372.235V3.756ZM414.661 8.58H418.801L427.513 16.824L418.801 25.104H414.661L423.373 16.824L414.661 8.58Z" fill="#19191B"/>
<path d="M434.068 8.58H438.208L446.92 16.824L438.208 25.104H434.068L442.78 16.824L434.068 8.58Z" fill="#19191B" fill-opacity="0.6"/>
<path d="M453.474 8.58H457.614L466.326 16.824L457.614 25.104H453.474L462.186 16.824L453.474 8.58Z" fill="#19191B" fill-opacity="0.2"/>
</svg>
