<svg width="457" height="33" viewBox="0 0 457 33" fill="none" xmlns="http://www.w3.org/2000/svg">
<path d="M8.324 20.388H11.384V32.808H8.324V20.388ZM19.52 20.388H22.58V32.808H19.52V20.388ZM0.764 18.768H30.284V21.252H0.764V18.768ZM15.452 1.56C22.256 1.56 26.828 4.296 26.828 8.652C26.828 12.972 22.256 15.744 15.452 15.744C8.684 15.744 4.076 12.972 4.076 8.652C4.076 4.296 8.684 1.56 15.452 1.56ZM15.452 3.972C10.484 3.972 7.1 5.808 7.1 8.652C7.1 11.496 10.484 13.332 15.452 13.332C20.42 13.332 23.768 11.496 23.768 8.652C23.768 5.808 20.42 3.972 15.452 3.972ZM57.6052 0.263999H60.5932V32.808H57.6052V0.263999ZM48.0652 3.756H51.0172C51.0172 13.188 46.7692 21.432 35.8972 26.76L34.3132 24.348C43.7092 19.812 48.0652 12.9 48.0652 4.26V3.756ZM35.7892 3.756H49.3612V6.204H35.7892V3.756ZM67.0344 16.284H96.4464V18.732H67.0344V16.284ZM80.2464 11.064H83.1984V17.292H80.2464V11.064ZM70.7424 10.128H93.0264V12.576H70.7424V10.128ZM70.7424 1.74H92.7744V4.152H73.6944V11.568H70.7424V1.74ZM81.6864 21.072C88.6344 21.072 92.8464 23.196 92.8464 26.904C92.8464 30.684 88.6344 32.772 81.6864 32.772C74.7384 32.772 70.5264 30.684 70.5264 26.904C70.5264 23.196 74.7384 21.072 81.6864 21.072ZM81.6864 23.376C76.6104 23.376 73.5504 24.672 73.5504 26.904C73.5504 29.172 76.6104 30.432 81.6864 30.432C86.7984 30.432 89.8224 29.172 89.8224 26.904C89.8224 24.672 86.7984 23.376 81.6864 23.376ZM113.328 15.636H116.28V20.64H113.328V15.636ZM100.116 13.98H129.528V16.392H100.116V13.98ZM103.932 1.344H125.712V11.244H103.932V1.344ZM122.796 3.72H106.884V8.868H122.796V3.72ZM103.68 19.56H125.784V26.868H106.704V30.828H103.752V24.708H122.832V21.864H103.68V19.56ZM103.752 30.108H126.756V32.448H103.752V30.108ZM142.866 26.148H172.35V28.632H142.866V26.148ZM156.114 18.264H159.066V26.976H156.114V18.264ZM156.042 4.368H158.562V6.384C158.562 13.044 151.902 18.084 145.494 19.416L144.27 17.04C149.886 16.104 156.042 11.532 156.042 6.384V4.368ZM156.582 4.368H159.102V6.384C159.102 11.532 165.294 15.996 170.982 16.932L169.794 19.308C163.278 18.012 156.582 13.044 156.582 6.384V4.368ZM145.278 3.216H169.866V5.664H145.278V3.216ZM185.236 19.776H188.26V25.14H185.236V19.776ZM199.492 0.263999H202.48V32.808H199.492V0.263999ZM176.56 26.616L176.164 24.132C182.32 24.096 190.42 24.024 197.44 23.124L197.656 25.32C190.42 26.544 182.572 26.616 176.56 26.616ZM176.848 4.224H196.612V6.636H176.848V4.224ZM186.712 8.508C191.392 8.508 194.56 10.884 194.56 14.52C194.56 18.192 191.392 20.532 186.712 20.532C182.068 20.532 178.9 18.192 178.9 14.52C178.9 10.884 182.068 8.508 186.712 8.508ZM186.712 10.812C183.796 10.812 181.744 12.288 181.744 14.52C181.744 16.752 183.796 18.228 186.712 18.228C189.664 18.228 191.716 16.752 191.716 14.52C191.716 12.288 189.664 10.812 186.712 10.812ZM185.236 0.263999H188.224V5.556H185.236V0.263999ZM220.39 2.352H235.546V15.672H220.39V2.352ZM232.666 4.764H223.27V13.296H232.666V4.764ZM242.35 0.263999H245.338V18.948H242.35V0.263999ZM233.53 22.8H236.086V23.412C236.086 28.092 230.29 31.836 223.702 32.7L222.694 30.396C228.346 29.748 233.53 26.652 233.53 23.412V22.8ZM233.962 22.8H236.554V23.412C236.554 26.544 241.594 29.712 247.246 30.396L246.238 32.7C239.614 31.8 233.962 27.984 233.962 23.412V22.8ZM223.99 21.144H246.094V23.484H223.99V21.144ZM233.53 18.012H236.554V22.188H233.53V18.012ZM285.065 0.263999H288.089V17.724H285.065V0.263999ZM267.101 19.344H270.053V23.304H285.137V19.344H288.089V32.376H267.101V19.344ZM270.053 25.68V29.964H285.137V25.68H270.053ZM270.629 1.812C275.561 1.812 279.089 4.872 279.089 9.3C279.089 13.764 275.561 16.824 270.629 16.824C265.697 16.824 262.133 13.764 262.133 9.3C262.133 4.872 265.697 1.812 270.629 1.812ZM270.629 4.296C267.389 4.296 265.049 6.348 265.049 9.3C265.049 12.252 267.389 14.304 270.629 14.304C273.869 14.304 276.209 12.252 276.209 9.3C276.209 6.348 273.869 4.296 270.629 4.296ZM318.866 5.124H324.518V7.608H318.866V5.124ZM318.866 12.036H324.518V14.52H318.866V12.036ZM303.602 2.172C308.498 2.172 312.098 5.34 312.098 9.876C312.098 14.376 308.498 17.508 303.602 17.508C298.706 17.508 295.106 14.376 295.106 9.876C295.106 5.34 298.706 2.172 303.602 2.172ZM303.602 4.692C300.362 4.692 298.022 6.816 298.022 9.876C298.022 12.936 300.362 15.024 303.602 15.024C306.842 15.024 309.182 12.936 309.182 9.876C309.182 6.816 306.842 4.692 303.602 4.692ZM316.778 0.263999H319.766V19.524H316.778V0.263999ZM309.398 20.568C316.022 20.568 320.09 22.836 320.09 26.652C320.09 30.504 316.022 32.736 309.398 32.736C302.774 32.736 298.706 30.504 298.706 26.652C298.706 22.836 302.774 20.568 309.398 20.568ZM309.398 22.98C304.574 22.98 301.622 24.312 301.622 26.652C301.622 28.992 304.574 30.36 309.398 30.36C314.222 30.36 317.174 28.992 317.174 26.652C317.174 24.312 314.222 22.98 309.398 22.98ZM349.68 0.263999H352.668V32.808H349.68V0.263999ZM351.948 13.62H357.996V16.14H351.948V13.62ZM327.468 5.448H346.656V7.896H327.468V5.448ZM337.188 10.596C341.796 10.596 345.108 13.692 345.108 18.084C345.108 22.476 341.796 25.572 337.188 25.572C332.616 25.572 329.268 22.476 329.268 18.084C329.268 13.692 332.616 10.596 337.188 10.596ZM337.188 13.08C334.236 13.08 332.112 15.132 332.112 18.084C332.112 21 334.236 23.088 337.188 23.088C340.14 23.088 342.264 21 342.264 18.084C342.264 15.132 340.14 13.08 337.188 13.08ZM335.64 0.659998H338.628V6.564H335.64V0.659998ZM384.453 0.263999H387.441V32.808H384.453V0.263999ZM374.913 3.756H377.865C377.865 13.188 373.617 21.432 362.745 26.76L361.161 24.348C370.557 19.812 374.913 12.9 374.913 4.26V3.756ZM362.637 3.756H376.209V6.204H362.637V3.756ZM405.064 8.58H409.204L417.916 16.824L409.204 25.104H405.064L413.776 16.824L405.064 8.58Z" fill="#19191B"/>
<path d="M424.47 8.58H428.61L437.322 16.824L428.61 25.104H424.47L433.182 16.824L424.47 8.58Z" fill="#19191B" fill-opacity="0.6"/>
<path d="M443.876 8.58H448.016L456.728 16.824L448.016 25.104H443.876L452.588 16.824L443.876 8.58Z" fill="#19191B" fill-opacity="0.2"/>
</svg>
