<svg width="454" height="33" viewBox="0 0 454 33" fill="none" xmlns="http://www.w3.org/2000/svg">
<path d="M0.384 8.58H4.524L13.236 16.824L4.524 25.104H0.384L9.096 16.824L0.384 8.58ZM19.7903 8.58H23.9303L32.6423 16.824L23.9303 25.104H19.7903L28.5023 16.824L19.7903 8.58ZM39.1965 8.58H43.3365L52.0485 16.824L43.3365 25.104H39.1965L47.9085 16.824L39.1965 8.58ZM74.1404 20.388H77.2004V32.808H74.1404V20.388ZM85.3364 20.388H88.3964V32.808H85.3364V20.388ZM66.5804 18.768H96.1004V21.252H66.5804V18.768ZM81.2684 1.56C88.0724 1.56 92.6444 4.296 92.6444 8.652C92.6444 12.972 88.0724 15.744 81.2684 15.744C74.5004 15.744 69.8924 12.972 69.8924 8.652C69.8924 4.296 74.5004 1.56 81.2684 1.56ZM81.2684 3.972C76.3004 3.972 72.9164 5.808 72.9164 8.652C72.9164 11.496 76.3004 13.332 81.2684 13.332C86.2364 13.332 89.5844 11.496 89.5844 8.652C89.5844 5.808 86.2364 3.972 81.2684 3.972ZM123.422 0.263999H126.41V32.808H123.422V0.263999ZM113.882 3.756H116.834C116.834 13.188 112.586 21.432 101.714 26.76L100.13 24.348C109.526 19.812 113.882 12.9 113.882 4.26V3.756ZM101.606 3.756H115.178V6.204H101.606V3.756ZM132.851 16.284H162.263V18.732H132.851V16.284ZM146.063 11.064H149.015V17.292H146.063V11.064ZM136.559 10.128H158.843V12.576H136.559V10.128ZM136.559 1.74H158.591V4.152H139.511V11.568H136.559V1.74ZM147.503 21.072C154.451 21.072 158.663 23.196 158.663 26.904C158.663 30.684 154.451 32.772 147.503 32.772C140.555 32.772 136.343 30.684 136.343 26.904C136.343 23.196 140.555 21.072 147.503 21.072ZM147.503 23.376C142.427 23.376 139.367 24.672 139.367 26.904C139.367 29.172 142.427 30.432 147.503 30.432C152.615 30.432 155.639 29.172 155.639 26.904C155.639 24.672 152.615 23.376 147.503 23.376ZM179.144 15.636H182.096V20.64H179.144V15.636ZM165.932 13.98H195.344V16.392H165.932V13.98ZM169.748 1.344H191.528V11.244H169.748V1.344ZM188.612 3.72H172.7V8.868H188.612V3.72ZM169.496 19.56H191.6V26.868H172.52V30.828H169.568V24.708H188.648V21.864H169.496V19.56ZM169.568 30.108H192.572V32.448H169.568V30.108ZM208.683 26.148H238.167V28.632H208.683V26.148ZM221.931 18.264H224.883V26.976H221.931V18.264ZM221.859 4.368H224.379V6.384C224.379 13.044 217.719 18.084 211.311 19.416L210.087 17.04C215.703 16.104 221.859 11.532 221.859 6.384V4.368ZM222.399 4.368H224.919V6.384C224.919 11.532 231.111 15.996 236.799 16.932L235.611 19.308C229.095 18.012 222.399 13.044 222.399 6.384V4.368ZM211.095 3.216H235.683V5.664H211.095V3.216ZM251.052 19.776H254.076V25.14H251.052V19.776ZM265.308 0.263999H268.296V32.808H265.308V0.263999ZM242.376 26.616L241.98 24.132C248.136 24.096 256.236 24.024 263.256 23.124L263.472 25.32C256.236 26.544 248.388 26.616 242.376 26.616ZM242.664 4.224H262.428V6.636H242.664V4.224ZM252.528 8.508C257.208 8.508 260.376 10.884 260.376 14.52C260.376 18.192 257.208 20.532 252.528 20.532C247.884 20.532 244.716 18.192 244.716 14.52C244.716 10.884 247.884 8.508 252.528 8.508ZM252.528 10.812C249.612 10.812 247.56 12.288 247.56 14.52C247.56 16.752 249.612 18.228 252.528 18.228C255.48 18.228 257.532 16.752 257.532 14.52C257.532 12.288 255.48 10.812 252.528 10.812ZM251.052 0.263999H254.04V5.556H251.052V0.263999ZM286.207 2.352H301.363V15.672H286.207V2.352ZM298.483 4.764H289.087V13.296H298.483V4.764ZM308.167 0.263999H311.155V18.948H308.167V0.263999ZM299.347 22.8H301.903V23.412C301.903 28.092 296.107 31.836 289.519 32.7L288.511 30.396C294.163 29.748 299.347 26.652 299.347 23.412V22.8ZM299.779 22.8H302.371V23.412C302.371 26.544 307.411 29.712 313.063 30.396L312.055 32.7C305.431 31.8 299.779 27.984 299.779 23.412V22.8ZM289.807 21.144H311.911V23.484H289.807V21.144ZM299.347 18.012H302.371V22.188H299.347V18.012ZM350.882 0.263999H353.906V17.724H350.882V0.263999ZM332.918 19.344H335.87V23.304H350.954V19.344H353.906V32.376H332.918V19.344ZM335.87 25.68V29.964H350.954V25.68H335.87ZM336.446 1.812C341.378 1.812 344.906 4.872 344.906 9.3C344.906 13.764 341.378 16.824 336.446 16.824C331.514 16.824 327.95 13.764 327.95 9.3C327.95 4.872 331.514 1.812 336.446 1.812ZM336.446 4.296C333.206 4.296 330.866 6.348 330.866 9.3C330.866 12.252 333.206 14.304 336.446 14.304C339.686 14.304 342.026 12.252 342.026 9.3C342.026 6.348 339.686 4.296 336.446 4.296ZM384.683 5.124H390.335V7.608H384.683V5.124ZM384.683 12.036H390.335V14.52H384.683V12.036ZM369.419 2.172C374.315 2.172 377.915 5.34 377.915 9.876C377.915 14.376 374.315 17.508 369.419 17.508C364.523 17.508 360.923 14.376 360.923 9.876C360.923 5.34 364.523 2.172 369.419 2.172ZM369.419 4.692C366.179 4.692 363.839 6.816 363.839 9.876C363.839 12.936 366.179 15.024 369.419 15.024C372.659 15.024 374.999 12.936 374.999 9.876C374.999 6.816 372.659 4.692 369.419 4.692ZM382.595 0.263999H385.583V19.524H382.595V0.263999ZM375.215 20.568C381.839 20.568 385.907 22.836 385.907 26.652C385.907 30.504 381.839 32.736 375.215 32.736C368.591 32.736 364.523 30.504 364.523 26.652C364.523 22.836 368.591 20.568 375.215 20.568ZM375.215 22.98C370.391 22.98 367.439 24.312 367.439 26.652C367.439 28.992 370.391 30.36 375.215 30.36C380.039 30.36 382.991 28.992 382.991 26.652C382.991 24.312 380.039 22.98 375.215 22.98ZM415.496 0.263999H418.484V32.808H415.496V0.263999ZM417.764 13.62H423.812V16.14H417.764V13.62ZM393.284 5.448H412.472V7.896H393.284V5.448ZM403.004 10.596C407.612 10.596 410.924 13.692 410.924 18.084C410.924 22.476 407.612 25.572 403.004 25.572C398.432 25.572 395.084 22.476 395.084 18.084C395.084 13.692 398.432 10.596 403.004 10.596ZM403.004 13.08C400.052 13.08 397.928 15.132 397.928 18.084C397.928 21 400.052 23.088 403.004 23.088C405.956 23.088 408.08 21 408.08 18.084C408.08 15.132 405.956 13.08 403.004 13.08ZM401.456 0.659998H404.444V6.564H401.456V0.659998ZM450.269 0.263999H453.257V32.808H450.269V0.263999ZM440.729 3.756H443.681C443.681 13.188 439.433 21.432 428.561 26.76L426.977 24.348C436.373 19.812 440.729 12.9 440.729 4.26V3.756ZM428.453 3.756H442.025V6.204H428.453V3.756Z" fill="#FFB941"/>
</svg>
