<svg width="154" height="53" viewBox="0 0 154 53" fill="none" xmlns="http://www.w3.org/2000/svg">
<path d="M150.334 31.9828C150.334 41.8239 117.501 49.8018 77.0003 49.8018C36.4994 49.8018 3.66699 41.8239 3.66699 31.9828C3.66699 22.1416 36.4994 14.1638 77.0003 14.1638C117.501 14.1638 150.334 22.1416 150.334 31.9828Z" fill="#FFB941"/>
<path fill-rule="evenodd" clip-rule="evenodd" d="M10.5738 27.0262C6.96217 29.1011 5.95833 30.8574 5.95833 31.9828C5.95833 33.1083 6.96217 34.8646 10.5738 36.9395C14.0151 38.9164 19.1471 40.7739 25.6882 42.3633C38.7345 45.5333 56.8771 47.5173 77 47.5173C97.1229 47.5173 115.265 45.5333 128.312 42.3633C134.853 40.7739 139.985 38.9164 143.426 36.9395C147.038 34.8646 148.042 33.1083 148.042 31.9828C148.042 30.8574 147.038 29.1011 143.426 27.0262C139.985 25.0493 134.853 23.1918 128.312 21.6024C115.265 18.4324 97.1229 16.4484 77 16.4484C56.8771 16.4484 38.7345 18.4324 25.6882 21.6024C19.1471 23.1918 14.0151 25.0493 10.5738 27.0262ZM24.6028 17.1634C38.0979 13.8843 56.6221 11.8794 77 11.8794C97.3779 11.8794 115.902 13.8843 129.397 17.1634C136.127 18.7986 141.734 20.7809 145.715 23.0676C149.525 25.2564 152.625 28.1877 152.625 31.9828C152.625 35.778 149.525 38.7093 145.715 40.8981C141.734 43.1848 136.127 45.167 129.397 46.8023C115.902 50.0814 97.3779 52.0863 77 52.0863C56.6221 52.0863 38.0979 50.0814 24.6028 46.8023C17.8731 45.167 12.2657 43.1848 8.28531 40.8981C4.47522 38.7093 1.375 35.778 1.375 31.9828C1.375 28.1877 4.47522 25.2564 8.28531 23.0676C12.2657 20.7809 17.8731 18.7986 24.6028 17.1634Z" fill="black"/>
<path fill-rule="evenodd" clip-rule="evenodd" d="M80.9036 47.4925C79.6111 47.5089 78.3098 47.5173 77.0004 47.5173C56.8929 47.5173 38.6756 45.5509 25.4277 42.3663C26.2119 41.4886 27.0106 40.7031 27.754 40.0355C27.754 40.0355 27.2176 37.154 27.2176 31.3911C27.2176 26.9548 28.077 23.6774 28.699 21.3053C28.8081 20.8894 28.9098 20.5013 28.9984 20.1396L28.9924 19.9869C28.7611 14.0601 28.2567 1.13979 31.1901 0.922136C34.8887 0.647711 40.3566 7.24162 41.0415 9.1626C41.5895 10.6994 42.3657 14.1023 42.6854 15.6116C43.9639 14.9713 47.6168 13.6632 52.0003 13.5534C56.3838 13.4436 63.5984 14.8798 66.6577 15.6116C68.8951 11.5867 74.1371 3.50944 77.2055 3.39967C81.0411 3.26246 81.589 11.358 81.3151 12.8673C81.2509 13.2211 81.1264 13.7709 80.9789 14.423C80.4968 16.553 79.7676 19.7752 80.0822 20.8257C80.2835 21.4978 80.4991 21.906 80.7305 22.3444C80.877 22.6219 81.0299 22.9115 81.1896 23.2878C82.9705 27.4844 84.5205 31.9948 84.7397 34.4097C84.9165 36.3579 84.8651 41.6776 80.9036 47.4925Z" fill="white"/>
<path fill-rule="evenodd" clip-rule="evenodd" d="M45.7334 19.1953C46.2366 19.14 46.6895 19.5019 46.7449 20.0035C46.8091 20.5849 46.9728 21.538 47.2492 22.4632C47.5381 23.4299 47.9009 24.193 48.2743 24.5551C48.698 24.966 49.138 25.2891 49.5329 25.5325C49.5987 25.2448 49.6967 24.9308 49.8357 24.5938C50.0509 24.0722 50.2741 23.6104 50.4723 23.2346C50.7669 22.6762 51.3339 22.4794 51.8059 22.5193C52.2611 22.5578 52.7247 22.8145 52.9806 23.2748C53.324 23.8925 53.9032 24.5647 54.7573 24.896C54.9382 24.9662 55.1128 25.0261 55.2803 25.077C55.0487 24.7287 54.8611 24.3381 54.774 23.9159C54.6492 23.3106 54.6181 22.8072 54.6387 22.4083C54.6578 22.0382 54.7249 21.6883 54.8566 21.4328C55.088 20.984 55.6407 20.8071 56.0909 21.0378C56.5308 21.2632 56.7103 21.7942 56.5026 22.2371C56.5029 22.2365 56.5031 22.2362 56.5032 22.2362C56.5048 22.2368 56.4792 22.316 56.4696 22.5021C56.4578 22.7304 56.4729 23.0781 56.5698 23.5479C56.6488 23.9311 57.0206 24.4184 57.5385 24.8651C57.9207 25.1948 58.1189 25.7117 57.9946 26.2202C57.8551 26.791 57.3445 27.1817 56.7249 27.164C56.0239 27.144 55.1207 26.9981 54.0924 26.5992C53.0263 26.1856 52.269 25.464 51.7608 24.763C51.6844 24.9288 51.6073 25.1046 51.5313 25.2888C51.3867 25.6395 51.3132 25.9302 51.2791 26.1543C51.2081 26.6199 50.9255 27.0098 50.5981 27.2476C50.2732 27.4837 49.6958 27.7019 49.1055 27.3928C48.4926 27.0719 47.7272 26.5742 46.9959 25.865C46.2608 25.1521 45.7922 23.989 45.4922 22.9849C45.1797 21.9391 44.9969 20.8765 44.9226 20.2036C44.8672 19.702 45.2302 19.2505 45.7334 19.1953Z" fill="black"/>
<path d="M51.333 36.3897C51.333 37.4886 50.6415 38.3794 49.958 38.3794C49.2746 38.3794 48.583 37.4886 48.583 36.3897C48.583 35.2908 48.9955 34.2673 50.0955 34.2673C50.9205 34.2673 51.333 35.2908 51.333 36.3897Z" fill="black"/>
<path d="M46.0221 39.0236C46.0619 39.5595 45.1912 41.1336 43.9794 41.2232C42.7675 41.3127 41.6735 39.8837 41.6337 39.3479C41.5938 38.8121 42.2577 38.3262 43.4695 38.2367C44.6814 38.1472 45.9822 38.4878 46.0221 39.0236Z" fill="black"/>
<path d="M39.875 36.3897C39.875 37.4886 39.1835 38.3794 38.5 38.3794C37.8165 38.3794 37.125 37.4886 37.125 36.3897C37.125 35.2908 37.5375 34.2673 38.6375 34.2673C39.4625 34.2673 39.875 35.2908 39.875 36.3897Z" fill="black"/>
<path fill-rule="evenodd" clip-rule="evenodd" d="M36.1486 4.28014C34.3463 2.67912 32.4335 1.72731 30.9578 1.83609C30.9109 1.83955 30.8092 1.85851 30.6489 2.06041C30.4772 2.2768 30.2951 2.63884 30.1273 3.17709C29.793 4.24951 29.5888 5.77446 29.481 7.54461C29.2741 10.944 29.4341 15.0029 29.5492 17.9229C29.5534 18.0302 29.5576 18.136 29.5617 18.2402C29.5815 18.7445 29.1874 19.1693 28.6815 19.189C28.1757 19.2087 27.7495 18.8159 27.7297 18.3116C27.7253 18.199 27.7208 18.0842 27.7162 17.9673C27.6017 15.0664 27.4384 10.9274 27.6511 7.43391C27.7612 5.62482 27.9752 3.92236 28.3766 2.63477C28.5766 1.99302 28.8417 1.3919 29.2112 0.926426C29.5921 0.446471 30.1256 0.064859 30.8226 0.0134823C33.0661 -0.151903 35.467 1.22671 37.3683 2.91569C39.3002 4.63186 40.9549 6.87814 41.6597 8.84198C42.1213 10.1281 42.7224 12.6098 43.1067 14.3135C44.9335 13.6073 48.1198 12.7144 51.7937 12.623C56.0297 12.5176 62.7205 13.7841 66.096 14.548C67.2543 12.5387 68.9911 9.8024 70.8234 7.46331C71.8327 6.17474 72.8924 4.97909 73.9186 4.08978C74.9036 3.23613 76.0204 2.51851 77.13 2.47907C78.4314 2.43282 79.4425 3.0277 80.1738 3.89237C80.8824 4.7302 81.3489 5.83712 81.6581 6.94203C82.2765 9.15121 82.3515 11.669 82.206 12.9536C82.1009 13.882 81.8264 15.1018 81.5621 16.2763C81.4776 16.6519 81.3941 17.0229 81.3175 17.3782C81.1543 18.1358 81.0186 18.8346 80.9476 19.4188C80.872 20.0415 80.8899 20.3951 80.9333 20.5389C81.0915 21.0639 81.2205 21.4151 81.3057 21.6272C81.3484 21.7332 81.38 21.8043 81.3988 21.8449C81.4082 21.8652 81.4144 21.8779 81.4172 21.8834C81.4177 21.8844 81.4183 21.8857 81.4183 21.8857C81.6518 22.3297 81.4827 22.8791 81.0383 23.1158C80.5918 23.3536 80.0364 23.1855 79.7979 22.7404L80.6064 22.3098C79.7979 22.7404 79.7979 22.7404 79.7979 22.7404L79.7974 22.7396L79.7961 22.7371L79.794 22.7331L79.7889 22.7234C79.7868 22.7193 79.7845 22.7148 79.7819 22.7097C79.7799 22.7056 79.7777 22.7013 79.7753 22.6966C79.7648 22.6754 79.7511 22.6473 79.7347 22.6119C79.7019 22.5411 79.6578 22.4408 79.6039 22.307C79.4964 22.0393 79.3498 21.6365 79.1775 21.0649C79.0142 20.5233 79.0508 19.8316 79.1276 19.1991C79.2091 18.5281 79.3597 17.7619 79.5251 16.9944C79.6129 16.5869 79.7041 16.1812 79.7933 15.7845C80.0507 14.6394 80.2913 13.5693 80.3842 12.7485C80.5053 11.6794 80.4426 9.39923 79.8923 7.4332C79.6172 6.45049 79.2416 5.62548 78.7722 5.07042C78.3254 4.54219 77.8223 4.28321 77.1953 4.3055C76.762 4.3209 76.0629 4.65311 75.1214 5.46902C74.2211 6.24927 73.2437 7.34292 72.2683 8.58811C70.3208 11.0743 68.466 14.0548 67.3564 16.0378L67.0184 16.642L66.3433 16.4816C63.2669 15.7505 56.116 14.3436 51.8395 14.45C47.5771 14.556 44.0349 15.8252 42.859 16.4103L41.7991 16.9377L41.5529 15.7826C41.2289 14.2624 40.46 10.9248 39.9335 9.4576C39.3592 7.85727 37.9203 5.85397 36.1486 4.28014ZM28.6353 19.9014C29.1269 20.0219 29.4275 20.5168 29.3067 21.0069C29.2372 21.289 29.1637 21.5764 29.0882 21.872C28.5112 24.1293 27.8121 26.8642 27.8121 31.3573C27.8121 34.2076 27.9456 36.3383 28.0778 37.7495C28.1439 38.4552 28.2097 38.981 28.2583 39.327C28.2827 39.5 28.3027 39.6281 28.3163 39.7112C28.3231 39.7528 28.3283 39.7831 28.3317 39.8022L28.3353 39.8224L28.3359 39.8258L28.336 39.8263L28.4583 40.4787L27.873 40.7962C27.858 40.8043 27.8423 40.8128 27.8259 40.8216C27.4639 41.0163 26.7916 41.3778 26.2573 42.4432C26.0309 42.8946 25.4802 43.0776 25.0274 42.8519C24.5746 42.6262 24.3911 42.0773 24.6175 41.6259C25.1857 40.493 25.9029 39.8729 26.4344 39.5203C26.383 39.1483 26.3176 38.6147 26.2524 37.9195C26.1149 36.452 25.9787 34.2646 25.9787 31.3573C25.9787 26.6292 26.7277 23.702 27.3112 21.4217C27.3863 21.1282 27.4587 20.8454 27.5264 20.5708C27.6471 20.0807 28.1436 19.781 28.6353 19.9014ZM81.106 23.1056C81.5765 22.9192 82.1095 23.1484 82.2964 23.6175C82.8277 24.9508 83.6027 26.9689 84.2741 28.9622C84.9349 30.9244 85.5305 32.9626 85.6518 34.2903C85.6977 34.7929 85.3262 35.2374 84.822 35.2832C84.3178 35.3289 83.8719 34.9586 83.826 34.456C83.7269 33.3711 83.2033 31.5252 82.5361 29.5439C81.8793 27.5938 81.1173 25.6091 80.5925 24.2922C80.4056 23.8231 80.6355 23.2919 81.106 23.1056Z" fill="black"/>
<path fill-rule="evenodd" clip-rule="evenodd" d="M133.447 41.074C119.995 45.0105 99.7023 47.5172 76.9997 47.5172C74.7697 47.5172 72.563 47.493 70.3837 47.4457C70.7173 46.8438 71.0862 46.262 71.4775 45.7058C71.4775 45.7058 68.7204 44.8173 66.9509 36.5677C64.5281 25.2722 71.4775 11.819 78.1724 11.0575C84.5239 10.3351 87.7378 13.2997 88.8888 15.1188C90.0789 14.5266 93.4793 13.3166 97.5599 13.2151C101.167 13.1253 106.832 14.5097 110.066 15.2998C110.491 15.4036 110.873 15.4971 111.204 15.5757C111.287 13.4605 114.37 10.8893 120.083 11.1939C127.224 11.5747 133.514 20.0686 133.769 29.0797C133.877 32.8812 133.894 37.27 133.447 41.074Z" fill="white"/>
<path fill-rule="evenodd" clip-rule="evenodd" d="M92.0255 22.3934C92.5288 22.3387 92.9812 22.7012 93.036 23.2029C93.095 23.7429 93.2456 24.6293 93.4997 25.4893C93.7662 26.3913 94.098 27.0905 94.4304 27.4164C94.7863 27.7654 95.1548 28.0459 95.4923 28.2636C95.5529 28.0182 95.6377 27.7539 95.7524 27.4728C95.9376 27.0187 96.1293 26.6131 96.3028 26.2756C96.5938 25.7094 97.1641 25.5103 97.6358 25.5474C98.0903 25.5831 98.5559 25.8352 98.8169 26.2917C99.1345 26.847 99.6496 27.4286 100.391 27.7192C100.494 27.7597 100.595 27.7964 100.693 27.8297C100.518 27.5372 100.378 27.2152 100.308 26.8703C100.192 26.3015 100.163 25.8273 100.182 25.4503C100.2 25.1019 100.262 24.7667 100.389 24.5182C100.618 24.0684 101.17 23.889 101.622 24.1177C102.06 24.34 102.242 24.8659 102.042 25.3083C102.043 25.3087 102.021 25.3788 102.013 25.5431C102.002 25.7514 102.016 26.0715 102.104 26.5062C102.171 26.8326 102.481 27.26 102.939 27.6678C103.311 27.9989 103.505 28.5131 103.377 29.0194C103.312 29.2769 103.161 29.5287 102.915 29.7093C102.666 29.8916 102.375 29.9615 102.097 29.9496C101.453 29.9222 100.639 29.7806 99.7194 29.4199C98.77 29.0475 98.0835 28.4129 97.6111 27.7847C97.5575 27.9053 97.5038 28.031 97.4506 28.1612C97.3282 28.4613 97.262 28.7131 97.2284 28.9114C97.1503 29.373 96.8643 29.7584 96.535 29.9923C96.2085 30.2243 95.6267 30.4387 95.0381 30.1194C94.4801 29.8167 93.7978 29.3597 93.1447 28.7193C92.4538 28.0418 92.0182 26.9433 91.7411 26.0058C91.4516 25.0262 91.2824 24.0313 91.2135 23.4008C91.1587 22.8991 91.5222 22.448 92.0255 22.3934Z" fill="black"/>
<path d="M92.0047 40.8734C92.0416 41.3695 91.2355 42.8269 90.1135 42.9098C88.9916 42.9927 87.9787 41.6697 87.9418 41.1736C87.9049 40.6775 88.5195 40.2278 89.6415 40.1449C90.7635 40.062 91.9679 40.3774 92.0047 40.8734Z" fill="black"/>
<path d="M86.625 38.4383C86.625 39.4151 85.9335 40.2069 85.25 40.2069C84.5665 40.2069 83.875 39.4151 83.875 38.4383C83.875 37.4615 84.2875 36.5518 85.3875 36.5518C86.2125 36.5518 86.625 37.4615 86.625 38.4383Z" fill="black"/>
<path d="M97.625 38.4383C97.625 39.4151 96.9335 40.2069 96.25 40.2069C95.5665 40.2069 94.875 39.4151 94.875 38.4383C94.875 37.4615 95.2875 36.5518 96.3875 36.5518C97.2125 36.5518 97.625 37.4615 97.625 38.4383Z" fill="black"/>
<path fill-rule="evenodd" clip-rule="evenodd" d="M89.1555 13.9784C87.5605 11.9502 84.0919 9.46042 78.0446 10.1497C76.0944 10.372 74.2275 11.5025 72.5928 13.1297C70.9491 14.766 69.4745 16.9673 68.3061 19.4778C65.9737 24.4897 64.7958 30.8795 66.0542 36.7585C66.9545 40.965 68.1233 43.3792 69.1284 44.7656C69.5175 45.3024 69.8823 45.6854 70.1971 45.9575C69.9709 46.312 69.7546 46.6752 69.5507 47.046C69.3074 47.4886 69.4701 48.044 69.9141 48.2865C70.358 48.529 70.9152 48.3669 71.1585 47.9243C71.4768 47.3452 71.8305 46.7841 72.2068 46.2469C72.2149 46.2358 72.2228 46.2246 72.2305 46.2131C73.2684 44.7377 74.4752 43.4436 75.5846 42.4516L75.968 42.1088L75.8738 41.6047L75.8737 41.6043L75.8732 41.6012L75.8699 41.5829C75.8668 41.5654 75.8621 41.5376 75.8558 41.4994C75.8433 41.4229 75.8249 41.3048 75.8025 41.1452C75.7577 40.8258 75.697 40.34 75.6361 39.6877C75.5141 38.3831 75.3909 36.4125 75.3909 33.7756C75.3909 29.0531 76.0845 25.9161 76.6263 23.713C76.7469 23.2228 76.446 22.7281 75.9543 22.6079C75.4626 22.4877 74.9663 22.7877 74.8457 23.2778C74.2847 25.5591 73.5575 28.8525 73.5575 33.7756C73.5575 36.4693 73.6834 38.4966 73.8106 39.8572C73.8742 40.5376 73.9382 41.0512 73.9868 41.3982C73.9883 41.4085 73.9897 41.4187 73.9911 41.4287C73.0864 42.2737 72.1349 43.2957 71.2557 44.4465C71.076 44.2735 70.8578 44.031 70.6144 43.6952C69.8023 42.575 68.7125 40.4202 67.8471 36.3771C66.6877 30.9606 67.7684 24.976 69.9692 20.247C71.0675 17.8871 72.4282 15.8764 73.8882 14.423C75.3573 12.9606 76.8626 12.1239 78.2529 11.9654C84.2106 11.2864 87.0892 14.057 88.0671 15.6057L88.5098 16.3068L89.253 15.9361C90.3308 15.3986 93.5928 14.2266 97.5188 14.1287C101.459 14.0304 108.057 15.3308 110.899 16.0077L111.564 16.166L111.904 15.5789L111.904 15.5783L111.905 15.5773L111.905 15.5767L111.905 15.576C111.908 15.5718 111.913 15.5633 111.921 15.5513C111.936 15.5275 111.96 15.4889 111.995 15.4377C112.064 15.3351 112.172 15.1827 112.321 14.9976C112.618 14.6266 113.072 14.1307 113.687 13.6433C114.909 12.6745 116.766 11.7401 119.347 11.878C122.557 12.0495 125.831 14.121 128.368 17.3497C130.894 20.5646 132.593 24.8126 132.714 29.1054C132.736 29.8996 132.764 30.6989 132.792 31.4979C132.907 34.7653 133.022 38.0294 132.748 40.9259C132.701 41.4284 133.071 41.874 133.575 41.9214C134.079 41.9687 134.526 41.5997 134.574 41.0973C134.86 38.0708 134.739 34.6525 134.623 31.3761C134.595 30.5915 134.568 29.815 134.546 29.054C134.413 24.3358 132.557 19.717 129.812 16.2228C127.077 12.7424 123.361 10.2623 119.445 10.053C116.325 9.88634 114.04 11.0287 112.546 12.2126C111.802 12.8017 111.254 13.4012 110.888 13.8566C110.823 13.9382 110.763 14.0153 110.709 14.0872C107.592 13.3798 101.398 12.2038 97.473 12.3016C93.8832 12.3912 90.7954 13.3083 89.1555 13.9784ZM116.324 24.3584C116.83 24.3584 117.241 24.7676 117.241 25.2722C117.241 25.8275 117.166 26.3648 117.068 26.9279C117.024 27.182 116.978 27.4221 116.931 27.6726C116.865 28.0222 116.796 28.3922 116.719 28.8491C116.473 30.3254 116.223 32.3692 116.223 35.5525C116.223 38.7262 117.264 41.5586 118.99 43.913C119.289 44.3205 119.2 44.8922 118.791 45.19C118.383 45.4878 117.809 45.399 117.51 44.9916C115.572 42.3482 114.389 39.1428 114.389 35.5525C114.389 32.263 114.648 30.1186 114.911 28.5488C114.986 28.1014 115.067 27.6648 115.139 27.282C115.186 27.0328 115.228 26.8065 115.262 26.6149C115.354 26.0835 115.407 25.6688 115.407 25.2722C115.407 24.7676 115.818 24.3584 116.324 24.3584Z" fill="black"/>
</svg>
