<svg width="732" height="464" viewBox="0 0 732 464" fill="none" xmlns="http://www.w3.org/2000/svg">
<rect width="732" height="464" rx="40" fill="url(#paint0_linear_121_1454)"/>
<path fill-rule="evenodd" clip-rule="evenodd" d="M528.362 342.023C530.434 341.792 532.298 343.308 532.526 345.409C532.791 347.844 533.465 351.836 534.603 355.712C535.792 359.761 537.286 362.957 538.824 364.474C540.569 366.196 542.38 367.549 544.006 368.569C544.277 367.363 544.681 366.048 545.253 364.637C546.139 362.451 547.058 360.517 547.874 358.943C549.087 356.604 551.422 355.78 553.365 355.947C555.24 356.108 557.149 357.183 558.202 359.112C559.616 361.699 562.001 364.515 565.518 365.902C566.263 366.196 566.982 366.447 567.671 366.66C566.718 365.201 565.945 363.565 565.587 361.797C565.073 359.261 564.945 357.153 565.029 355.482C565.108 353.932 565.385 352.466 565.927 351.396C566.88 349.516 569.155 348.775 571.009 349.741C572.82 350.685 573.559 352.909 572.704 354.765C572.705 354.762 572.706 354.761 572.707 354.761C572.713 354.764 572.608 355.095 572.568 355.875C572.52 356.831 572.582 358.288 572.981 360.255C573.306 361.861 574.837 363.902 576.97 365.773C578.543 367.154 579.36 369.319 578.848 371.449C578.273 373.84 576.171 375.476 573.619 375.403C570.733 375.319 567.014 374.707 562.78 373.036C558.39 371.304 555.272 368.281 553.18 365.345C552.865 366.04 552.548 366.776 552.235 367.548C551.639 369.017 551.337 370.234 551.196 371.173C550.904 373.123 549.74 374.756 548.392 375.753C547.055 376.741 544.677 377.655 542.246 376.361C539.723 375.017 536.571 372.932 533.56 369.961C530.533 366.975 528.604 362.103 527.368 357.897C526.082 353.517 525.329 349.066 525.023 346.247C524.795 344.146 526.29 342.255 528.362 342.023Z" fill="white"/>
<path d="M551 412.774C551 417.317 548.234 421 545.5 421C542.766 421 540 417.317 540 412.774C540 408.231 541.65 404 546.05 404C549.35 404 551 408.231 551 412.774Z" fill="white"/>
<path d="M529.159 423.728C529.323 425.929 525.73 432.396 520.73 432.764C515.73 433.132 511.216 427.261 511.052 425.06C510.887 422.859 513.626 420.863 518.627 420.496C523.627 420.128 528.994 421.527 529.159 423.728Z" fill="white"/>
<path d="M504 412.774C504 417.317 500.982 421 498 421C495.018 421 492 417.317 492 412.774C492 408.231 493.8 404 498.6 404C502.2 404 504 408.231 504 412.774Z" fill="white"/>
<path fill-rule="evenodd" clip-rule="evenodd" d="M488.419 280.598C480.982 274.015 473.09 270.102 467.001 270.549C466.779 270.565 466.318 270.666 465.607 271.521C464.854 272.424 464.052 273.918 463.292 276.117C461.777 280.5 460.747 286.731 460.107 293.959C458.834 308.343 459.182 325.672 459.654 337.67C459.736 339.743 458.11 341.49 456.023 341.571C453.936 341.652 452.177 340.037 452.096 337.964C451.621 325.915 451.254 308.187 452.572 293.301C453.227 285.894 454.319 278.936 456.137 273.677C457.044 271.055 458.21 268.614 459.778 266.732C461.386 264.801 463.595 263.265 466.443 263.055C475.7 262.375 485.606 268.044 493.451 274.988C501.423 282.044 508.25 291.279 511.158 299.353C513.063 304.641 515.543 314.844 517.129 321.849C524.666 318.945 537.813 315.274 552.972 314.898C570.45 314.465 598.057 319.673 611.985 322.813C616.765 314.552 623.931 303.302 631.491 293.685C635.656 288.387 640.028 283.471 644.262 279.815C648.326 276.305 652.935 273.355 657.513 273.193C662.883 273.002 667.055 275.448 670.072 279.003C672.996 282.448 674.921 286.999 676.197 291.542C678.748 300.625 679.057 310.976 678.457 316.258C678.023 320.075 676.891 325.09 675.8 329.919C675.452 331.463 675.107 332.988 674.791 334.449C674.118 337.564 673.558 340.437 673.265 342.839C672.953 345.399 673.027 346.853 673.206 347.444C673.859 349.603 674.391 351.047 674.743 351.919C674.918 352.355 675.049 352.647 675.127 352.814C675.165 352.897 675.191 352.949 675.202 352.972C675.204 352.976 675.207 352.982 675.207 352.982C676.171 354.807 675.473 357.066 673.639 358.039C671.797 359.017 669.505 358.326 668.521 356.496L671.857 354.725C668.521 356.496 668.521 356.496 668.521 356.496L668.519 356.492L668.514 356.482L668.505 356.466L668.484 356.426C668.469 356.396 668.45 356.359 668.428 356.316C668.384 356.228 668.328 356.113 668.26 355.967C668.125 355.676 667.943 355.264 667.721 354.714C667.277 353.613 666.672 351.957 665.961 349.607C665.287 347.38 665.438 344.536 665.755 341.936C666.092 339.177 666.713 336.027 667.395 332.871C667.758 331.196 668.134 329.528 668.502 327.897C669.564 323.189 670.557 318.789 670.94 315.415C671.44 311.019 671.181 301.644 668.91 293.561C667.776 289.521 666.226 286.129 664.289 283.847C662.445 281.675 660.37 280.61 657.782 280.702C655.995 280.765 653.11 282.131 649.225 285.486C645.51 288.693 641.478 293.19 637.453 298.309C629.418 308.531 621.764 320.785 617.186 328.939L615.791 331.423L613.006 330.763C600.312 327.757 570.807 321.973 553.161 322.41C535.574 322.846 520.959 328.064 516.107 330.47L511.734 332.638L510.718 327.889C509.381 321.639 506.208 307.917 504.036 301.884C501.666 295.305 495.729 287.068 488.419 280.598ZM456.777 342.623C458.806 343.118 460.046 345.153 459.548 347.168C457.125 356.964 454.021 370.92 454.021 391.923C454.021 403.642 454.572 412.402 455.118 418.205C455.391 421.106 455.662 423.268 455.863 424.69C455.963 425.402 456.046 425.928 456.102 426.27C456.13 426.441 456.151 426.566 456.165 426.644L456.18 426.727L456.183 426.741L456.183 426.743L456.574 428.82L454.987 430.23C452.897 432.089 450.719 434.194 448.548 436.506C447.123 438.024 444.73 438.106 443.202 436.691C441.675 435.276 441.592 432.898 443.016 431.381C444.822 429.458 446.635 427.665 448.412 426.02C448.399 425.927 448.385 425.832 448.371 425.733C448.155 424.197 447.87 421.92 447.586 418.903C447.019 412.87 446.457 403.876 446.457 391.923C446.457 370.093 449.699 355.493 452.202 345.375C452.7 343.36 454.749 342.128 456.777 342.623ZM673.919 357.997C675.86 357.231 678.059 358.173 678.83 360.102C679.682 362.231 680.752 364.61 681.92 367.206C686.364 377.083 692.23 390.118 692.904 404.654C694.359 436.045 678.892 457.044 675.455 461.711C675.242 462 675.075 462.226 674.962 462.389C673.768 464.092 671.411 464.512 669.697 463.327C667.982 462.141 667.559 459.8 668.752 458.097C668.873 457.925 669.044 457.692 669.259 457.399C672.617 452.83 686.678 433.694 685.347 405C684.747 392.048 679.701 380.788 675.311 370.99C674.045 368.165 672.834 365.462 671.8 362.876C671.029 360.947 671.977 358.763 673.919 357.997Z" fill="white"/>
<path d="M96.8242 90.4219V94.8047H81.6133V107.953H76.1992V94.8047H61.1602V90.4219H96.8242ZM62.9219 83.8477C70.8281 82.8809 75.2109 79.0566 75.791 75.2109H64.3828V70.9141H93.6445V75.2109H82.2363C82.7949 79.0566 87.1133 82.8809 95.1484 83.8477L93.1719 88.1445C86.2969 87.2207 81.377 84.2988 79.0137 80.2812C76.6289 84.2988 71.752 87.2207 64.9414 88.1445L62.9219 83.8477ZM131.93 68.8945V96.9961H126.43V68.8945H131.93ZM99.7891 81.2266C99.7891 75.4902 104.473 71.3652 110.488 71.3867C116.482 71.3652 121.166 75.4902 121.188 81.2266C121.166 87.0488 116.482 91.1523 110.488 91.1523C104.473 91.1523 99.7891 87.0488 99.7891 81.2266ZM105.16 81.2266C105.117 84.4922 107.416 86.3828 110.488 86.3828C113.453 86.3828 115.752 84.4922 115.773 81.2266C115.752 78.0469 113.453 76.1348 110.488 76.1562C107.416 76.1348 105.117 78.0469 105.16 81.2266ZM105.719 107.266V94.1602H111.262V102.883H132.961V107.266H105.719ZM180.055 68.8516V88.1445H174.598V68.8516H180.055ZM147.957 78.9492C147.957 73.7285 152.447 69.9902 158.484 70.0117C164.436 69.9902 168.904 73.7285 168.926 78.9492C168.904 84.127 164.436 87.8223 158.484 87.8438C152.447 87.8223 147.957 84.127 147.957 78.9492ZM151.738 94.6328V90.6797H164.543V100.691H157.023V103.291C160.611 103.27 162.867 103.162 165.574 102.668L166.004 106.578C162.588 107.287 159.752 107.373 154.145 107.352H151.91V96.9961H159.258V94.6328H151.738ZM153.285 78.9492C153.242 81.7422 155.455 83.3965 158.484 83.418C161.449 83.3965 163.619 81.7422 163.641 78.9492C163.619 76.1348 161.449 74.4805 158.484 74.4805C155.477 74.4805 153.242 76.1348 153.285 78.9492ZM165.746 96.0078V92.0117H171.504V89.0469H176.875V92.0117H182.59V96.0078H165.746ZM167.164 102.41C167.121 99.166 170.107 96.9746 174.125 96.9531C178.121 96.9746 181.129 99.166 181.172 102.41C181.129 105.848 178.121 107.975 174.125 107.953C170.107 107.975 167.121 105.848 167.164 102.41ZM171.719 102.41C171.719 103.678 172.729 104.215 174.125 104.215C175.457 104.215 176.488 103.678 176.488 102.41C176.488 101.336 175.457 100.777 174.125 100.777C172.729 100.777 171.719 101.336 171.719 102.41ZM221.047 88.832V93.2148H185.383V88.832H221.047ZM188.949 78.0469C188.949 73.0625 194.6 70.0117 203.215 70.0547C211.766 70.0117 217.416 73.0625 217.438 78.0469C217.416 83.0527 211.766 86.125 203.215 86.125C194.6 86.125 188.949 83.0527 188.949 78.0469ZM189.68 107.266V95.8359H195.18V102.883H217.008V107.266H189.68ZM194.664 78.0469C194.621 80.4746 197.779 81.6992 203.215 81.6992C208.607 81.6992 211.766 80.4746 211.766 78.0469C211.766 75.6836 208.607 74.3945 203.215 74.3516C197.779 74.3945 194.621 75.6836 194.664 78.0469ZM92.1836 125.852V135.047H97.4688V139.516H92.1836V148.539H86.6836V125.852H92.1836ZM60.9023 144.973C69.5176 142.695 74.4375 138.227 75.2969 132.812H62.75V128.43H81.2695C81.291 138.85 74.7383 146.154 63.0938 149.398L60.9023 144.973ZM66.1875 157.004C66.1445 152.105 71.4727 149.012 79.4219 149.012C87.3926 149.012 92.5918 152.105 92.6133 157.004C92.5918 161.945 87.3926 164.996 79.4219 164.996C71.4727 164.996 66.1445 161.945 66.1875 157.004ZM71.6016 157.004C71.5801 159.367 74.502 160.721 79.4219 160.699C84.2773 160.721 87.1992 159.367 87.1992 157.004C87.1992 154.598 84.2773 153.266 79.4219 153.266C74.502 153.266 71.5801 154.598 71.6016 157.004ZM109.715 128.602C115.688 128.602 120.006 133.994 120.027 142.523C120.006 151.117 115.688 156.488 109.715 156.488C103.721 156.488 99.3809 151.117 99.4023 142.523C99.3809 133.994 103.721 128.602 109.715 128.602ZM104.688 142.523C104.688 148.346 106.729 151.525 109.715 151.504C112.766 151.525 114.764 148.346 114.785 142.523C114.764 136.723 112.766 133.543 109.715 133.543C106.729 133.543 104.688 136.723 104.688 142.523ZM124.539 164.953V125.852H130.039V140.59H135.797V145.145H130.039V164.953H124.539ZM152.383 136.508C152.361 142.824 155.627 149.592 162.18 152.32L159.215 156.617C154.617 154.662 151.438 150.773 149.676 146.047C147.914 151.182 144.67 155.479 140.051 157.605L136.914 153.266C143.402 150.365 146.754 143.125 146.754 136.508V134.102H138.461V129.633H160.547V134.102H152.383V136.508ZM164.414 164.953V125.852H169.957V164.953H164.414ZM207.684 129.633V133.973H199.777C199.885 137.84 202.678 141.75 208.93 143.34L206.523 147.551C201.99 146.412 198.875 143.963 197.113 140.826C195.373 144.285 192.236 146.992 187.66 148.281L185.082 143.941C191.334 142.33 194.234 138.184 194.32 133.973H186.457V129.633H194.32V125.68H199.863V129.633H207.684ZM188.863 160.613C195.717 159.775 199.541 157.068 200.551 154.125H190.539V149.828H216.879V154.125H206.91C207.92 157.004 211.787 159.797 218.598 160.699L216.664 164.867C210.369 164.029 205.965 161.537 203.688 158.186C201.453 161.516 197.07 163.965 190.84 164.781L188.863 160.613ZM210.906 148.152V125.852H216.406V134.617H221.691V139.129H216.406V148.152H210.906ZM256.281 125.852V164.953H250.738V125.852H256.281ZM223.539 153.867C233.637 149.098 238.084 142.91 238.965 134.23H225.645V129.934H244.551C244.529 141.793 240.383 151.654 226.418 158.25L223.539 153.867Z" fill="#594C4C"/>
<path d="M512.063 333.545C502.206 321.933 520.864 322.294 531.425 323.925L579.245 335.153C570.361 337.243 563.957 344.731 551.003 345.336C537.292 345.976 517.131 339.516 512.063 333.545Z" fill="#FFE99C"/>
<path d="M577.799 276.688C577.724 279.828 574.236 283.067 570.668 282.981C567.1 282.896 564.288 279.506 564.363 276.367C564.438 273.227 567.373 271.527 570.94 271.612C574.508 271.697 577.875 273.549 577.799 276.688Z" fill="#FFE99C"/>
<path d="M618.233 315.662C621.368 339.264 600.583 337.991 572.47 337.318C544.357 336.645 522.393 335.137 518.813 310.697C515.926 290.978 540.119 276.045 568.233 276.718C596.346 277.391 615.167 292.578 618.233 315.662Z" fill="#FFE99C"/>
<path d="M551.799 279.686C545.691 282.814 533.557 292.176 533.88 304.594C534.203 317.012 538.569 328.32 540.712 332.421" stroke="white" stroke-opacity="0.4" stroke-width="2"/>
<path d="M567.611 277.996C563.351 283.151 556.465 300.834 556.263 309.266C555.948 322.444 557.207 334.626 557.207 334.626" stroke="white" stroke-opacity="0.4" stroke-width="2"/>
<path d="M578.961 279.043C585.207 284.536 592.758 296.696 596.134 306.86C599.021 315.549 595.448 335.541 595.448 335.541" stroke="white" stroke-opacity="0.4" stroke-width="2"/>
<path d="M536.432 284.489C541.255 288.224 555.489 291.926 567.247 293.241C579.005 294.557 591.19 290.281 596.637 285.93" stroke="white" stroke-opacity="0.4" stroke-width="2"/>
<path d="M519.652 305.029C527.469 309.697 568.103 317.978 584.237 317.95C600.37 317.923 607.099 313.327 614.267 305.484" stroke="white" stroke-opacity="0.4" stroke-width="2"/>
<path d="M529.442 328.015C527.625 328.316 523.415 329.215 521.111 330.401C518.808 331.587 515.077 334.048 513.5 335.131" stroke="white" stroke-opacity="0.4" stroke-width="2"/>
<path d="M537.359 332.083C535.71 332.56 532.091 333.973 530.806 335.804C529.521 337.635 528.277 340.656 527.815 341.937" stroke="white" stroke-opacity="0.4" stroke-width="2"/>
<path d="M548.674 334.68C547.962 335.611 546.576 338.095 546.723 340.58C546.87 343.066 547.399 344.733 547.645 345.256" stroke="white" stroke-opacity="0.4" stroke-width="2"/>
<path d="M516.357 323.823C516.363 327.185 518.69 334.376 527.953 336.252C537.215 338.129 556.548 340.557 565.056 341.536" stroke="white" stroke-opacity="0.4" stroke-width="2"/>
<path d="M512.063 333.545L509.776 335.487L509.776 335.487L512.063 333.545ZM551.003 345.336L551.143 348.333L551.003 345.336ZM576.573 337.922C578.096 337.27 578.803 335.507 578.151 333.984C577.499 332.46 575.736 331.754 574.213 332.406L576.573 337.922ZM509.776 335.487C511.428 337.433 514.06 339.174 516.995 340.67C519.998 342.199 523.588 343.607 527.407 344.786C535.006 347.133 543.834 348.674 551.143 348.333L550.863 342.339C544.461 342.638 536.353 341.269 529.177 339.053C525.609 337.951 522.351 336.664 519.719 335.323C517.021 333.949 515.232 332.642 514.35 331.604L509.776 335.487ZM525.928 319.659C523.314 319.503 520.545 319.522 517.971 319.806C515.442 320.085 512.883 320.643 510.83 321.696C508.758 322.758 506.724 324.607 506.462 327.544C506.221 330.258 507.614 332.939 509.776 335.487L514.35 331.604C512.538 329.469 512.412 328.374 512.439 328.076C512.446 328 512.466 327.599 513.567 327.035C514.686 326.461 516.418 326.014 518.629 325.77C520.794 325.531 523.213 325.508 525.569 325.649L525.928 319.659ZM551.143 348.333C557.162 348.052 561.987 346.03 566.08 343.807C568.093 342.714 570.011 341.524 571.716 340.508C573.47 339.464 575.04 338.578 576.573 337.922L574.213 332.406C572.288 333.229 570.429 334.292 568.647 335.353C566.816 336.443 565.09 337.517 563.217 338.534C559.539 340.532 555.626 342.117 550.863 342.339L551.143 348.333Z" fill="white"/>
<path d="M577.442 277.714C577.517 274.574 574.509 271.697 570.942 271.612C567.374 271.527 564.352 273.742 564.276 276.882" stroke="white" stroke-width="6"/>
<path d="M615.259 316.057C615.991 321.568 615.259 325.141 613.798 327.534C612.357 329.895 609.914 331.584 606.191 332.725C602.426 333.878 597.615 334.386 591.842 334.538C586.803 334.672 581.216 334.533 575.157 334.383C574.295 334.362 573.423 334.34 572.542 334.319C558.365 333.98 546.381 333.417 537.487 330.108C533.123 328.485 529.645 326.245 527.055 323.148C524.471 320.058 522.611 315.927 521.782 310.262C520.561 301.925 524.963 294.27 533.558 288.559C542.161 282.843 554.607 279.393 568.161 279.717C581.702 280.041 592.773 283.853 600.771 290.144C608.741 296.412 613.826 305.267 615.259 316.057Z" stroke="white" stroke-width="6"/>
<path d="M579.699 302.574C583.926 310.047 584.086 327.29 583.637 334.977C587.599 335.194 596.948 335.461 601.218 334.891C607.817 334.011 613.11 332.242 616.481 330.861C619.074 329.799 620.628 327.228 620.334 324.441C619.696 318.408 617.736 309.579 613.959 299.59C607.868 283.481 585.456 275.681 578.209 280.059C572.971 283.223 574.414 293.232 579.699 302.574Z" fill="#FFE99C" stroke="white" stroke-width="6"/>
<path d="M532.502 299.242C527.219 306.196 525.765 320.387 527.39 325.065C525.708 321.347 520.296 318.92 520.225 309.027C520.049 284.631 559.742 276.98 562.436 279.673C567.603 284.838 540.255 289.037 532.502 299.242Z" fill="#FFE99C" stroke="white" stroke-width="6"/>
<defs>
<linearGradient id="paint0_linear_121_1454" x1="103.129" y1="-26.5" x2="487.041" y2="483.293" gradientUnits="userSpaceOnUse">
<stop stop-color="#FFCB7A"/>
<stop offset="1" stop-color="#FFDB5A"/>
</linearGradient>
</defs>
</svg>
