<svg width="516" height="464" viewBox="0 0 516 464" fill="none" xmlns="http://www.w3.org/2000/svg">
<rect width="516" height="464" rx="40" fill="url(#paint0_linear_121_1455)"/>
<path d="M74.8789 78.5625C74.8574 85.2656 76.7051 91.625 82.2266 94.5469L79.0039 98.8867C75.6094 97.0391 73.4395 93.8809 72.1504 90.0137C70.7539 94.332 68.3906 97.9414 64.8672 100.047L61.4297 96.0508C67.2949 92.5488 69.5293 85.5664 69.5508 78.9492V72.2031H74.8789V78.5625ZM82.2695 106.148V69.4102H87.4258V84.1055H90.8203V68.8516H96.0625V107.953H90.8203V88.4883H87.4258V106.148H82.2695ZM145.992 90.4219V94.8047H130.781V107.953H125.367V94.8047H110.328V90.4219H145.992ZM112.09 83.8477C119.996 82.8809 124.379 79.0566 124.959 75.2109H113.551V70.9141H142.812V75.2109H131.404C131.963 79.0566 136.281 82.8809 144.316 83.8477L142.34 88.1445C135.465 87.2207 130.545 84.2988 128.182 80.2812C125.797 84.2988 120.92 87.2207 114.109 88.1445L112.09 83.8477ZM181.098 68.8945V96.9961H175.598V68.8945H181.098ZM148.957 81.2266C148.957 75.4902 153.641 71.3652 159.656 71.3867C165.65 71.3652 170.334 75.4902 170.355 81.2266C170.334 87.0488 165.65 91.1523 159.656 91.1523C153.641 91.1523 148.957 87.0488 148.957 81.2266ZM154.328 81.2266C154.285 84.4922 156.584 86.3828 159.656 86.3828C162.621 86.3828 164.92 84.4922 164.941 81.2266C164.92 78.0469 162.621 76.1348 159.656 76.1562C156.584 76.1348 154.285 78.0469 154.328 81.2266ZM154.887 107.266V94.1602H160.43V102.883H182.129V107.266H154.887ZM204.215 69.4102C213.217 69.4102 218.416 71.7734 218.438 76.0703C218.416 80.4316 213.217 82.7734 204.215 82.7734C195.191 82.7734 189.949 80.4316 189.949 76.0703C189.949 71.7734 195.191 69.4102 204.215 69.4102ZM186.383 88.9609V84.6211H222.047V88.9609H186.383ZM190.508 95.2344V91.2383H217.707V101.207H195.922V103.57H218.738V107.695H190.551V97.3828H212.293V95.2344H190.508ZM195.707 76.0703C195.686 77.9824 198.479 78.7344 204.215 78.7344C209.994 78.7344 212.766 77.9824 212.766 76.0703C212.766 74.3301 209.994 73.4062 204.215 73.4062C198.479 73.4062 195.686 74.3301 195.707 76.0703ZM256.852 72.6328V76.9727H248.945C249.053 80.8398 251.846 84.75 258.098 86.3398L255.691 90.5508C251.158 89.4121 248.043 86.9629 246.281 83.8262C244.541 87.2852 241.404 89.9922 236.828 91.2812L234.25 86.9414C240.502 85.3301 243.402 81.1836 243.488 76.9727H235.625V72.6328H243.488V68.6797H249.031V72.6328H256.852ZM238.031 103.613C244.885 102.775 248.709 100.068 249.719 97.125H239.707V92.8281H266.047V97.125H256.078C257.088 100.004 260.955 102.797 267.766 103.699L265.832 107.867C259.537 107.029 255.133 104.537 252.855 101.186C250.621 104.516 246.238 106.965 240.008 107.781L238.031 103.613ZM260.074 91.1523V68.8516H265.574V77.6172H270.859V82.1289H265.574V91.1523H260.074ZM304.332 79.5078V83.8047H277.004V70.2266H282.461V79.5078H304.332ZM272.535 92.3125V88.0156H308.328V92.3125H272.535ZM276.66 107.094V95.4922H282.16V102.711H304.59V107.094H276.66ZM93.1836 125.852V135.047H98.4688V139.516H93.1836V148.539H87.6836V125.852H93.1836ZM61.9023 144.973C70.5176 142.695 75.4375 138.227 76.2969 132.812H63.75V128.43H82.2695C82.291 138.85 75.7383 146.154 64.0938 149.398L61.9023 144.973ZM67.1875 157.004C67.1445 152.105 72.4727 149.012 80.4219 149.012C88.3926 149.012 93.5918 152.105 93.6133 157.004C93.5918 161.945 88.3926 164.996 80.4219 164.996C72.4727 164.996 67.1445 161.945 67.1875 157.004ZM72.6016 157.004C72.5801 159.367 75.502 160.721 80.4219 160.699C85.2773 160.721 88.1992 159.367 88.1992 157.004C88.1992 154.598 85.2773 153.266 80.4219 153.266C75.502 153.266 72.5801 154.598 72.6016 157.004ZM110.715 128.602C116.688 128.602 121.006 133.994 121.027 142.523C121.006 151.117 116.688 156.488 110.715 156.488C104.721 156.488 100.381 151.117 100.402 142.523C100.381 133.994 104.721 128.602 110.715 128.602ZM105.688 142.523C105.688 148.346 107.729 151.525 110.715 151.504C113.766 151.525 115.764 148.346 115.785 142.523C115.764 136.723 113.766 133.543 110.715 133.543C107.729 133.543 105.688 136.723 105.688 142.523ZM125.539 164.953V125.852H131.039V140.59H136.797V145.145H131.039V164.953H125.539ZM153.383 136.508C153.361 142.824 156.627 149.592 163.18 152.32L160.215 156.617C155.617 154.662 152.438 150.773 150.676 146.047C148.914 151.182 145.67 155.479 141.051 157.605L137.914 153.266C144.402 150.365 147.754 143.125 147.754 136.508V134.102H139.461V129.633H161.547V134.102H153.383V136.508ZM165.414 164.953V125.852H170.957V164.953H165.414ZM222.176 155.93V160.398H186.383V155.93H201.465V148.711H190.164V128.344H195.664V134.402H212.723V128.344H218.18V148.711H206.922V155.93H222.176ZM195.664 144.328H212.723V138.785H195.664V144.328ZM257.281 125.852V164.953H251.738V125.852H257.281ZM224.539 153.867C234.637 149.098 239.084 142.91 239.965 134.23H226.645V129.934H245.551C245.529 141.793 241.383 151.654 227.418 158.25L224.539 153.867Z" fill="#594C4C"/>
<path fill-rule="evenodd" clip-rule="evenodd" d="M298.415 357.023C300.517 356.794 302.407 358.31 302.636 360.407C302.883 362.665 303.512 366.371 304.573 369.967C305.687 373.738 307.073 376.661 308.461 378.024C309.948 379.483 311.488 380.656 312.897 381.566C313.15 380.54 313.505 379.435 313.984 378.26C314.758 376.361 315.558 374.665 316.283 373.254C317.499 370.887 319.881 370.055 321.852 370.209C323.751 370.359 325.695 371.413 326.786 373.321C328.112 375.643 330.264 378.075 333.36 379.29C333.791 379.459 334.212 379.613 334.623 379.752C333.892 378.529 333.308 377.183 333.014 375.741C332.529 373.363 332.408 371.38 332.488 369.804C332.562 368.347 332.824 366.945 333.353 365.907C334.311 364.026 336.617 363.276 338.502 364.232C340.334 365.161 341.096 367.36 340.257 369.21C340.262 369.212 340.172 369.505 340.137 370.192C340.092 371.062 340.149 372.401 340.519 374.218C340.797 375.583 342.093 377.37 344.005 379.075C345.558 380.459 346.37 382.609 345.837 384.726C345.565 385.803 344.934 386.855 343.904 387.61C342.864 388.373 341.648 388.665 340.487 388.615C337.796 388.501 334.397 387.908 330.556 386.4C326.59 384.844 323.722 382.19 321.749 379.564C321.525 380.068 321.3 380.594 321.078 381.138C320.567 382.393 320.29 383.445 320.15 384.275C319.823 386.205 318.629 387.815 317.253 388.794C315.889 389.764 313.459 390.66 311 389.325C308.669 388.059 305.819 386.149 303.091 383.471C300.204 380.639 298.384 376.046 297.227 372.126C296.018 368.031 295.311 363.871 295.023 361.235C294.794 359.137 296.313 357.251 298.415 357.023Z" fill="white"/>
<path d="M298.87 432.961C299.022 435.007 295.683 441.018 291.035 441.36C286.387 441.702 282.191 436.245 282.038 434.199C281.886 432.153 284.432 430.298 289.08 429.956C293.727 429.614 298.717 430.915 298.87 432.961Z" fill="white"/>
<path d="M276 422.742C276 426.75 273.485 430 271 430C268.515 430 266 426.75 266 422.742C266 418.733 267.5 415 271.5 415C274.5 415 276 418.733 276 422.742Z" fill="white"/>
<path d="M322 422.742C322 426.75 319.234 430 316.5 430C313.766 430 311 426.75 311 422.742C311 418.733 312.65 415 317.05 415C320.35 415 322 418.733 322 422.742Z" fill="white"/>
<path fill-rule="evenodd" clip-rule="evenodd" d="M286.923 322.25C280.309 313.898 265.925 303.644 240.847 306.483C232.76 307.398 225.018 312.054 218.239 318.755C211.423 325.493 205.308 334.559 200.463 344.898C190.79 365.537 185.906 391.851 191.124 416.062C194.858 433.385 199.705 443.327 203.873 449.037C205.486 451.247 206.999 452.824 208.304 453.945C207.366 455.405 206.469 456.901 205.624 458.428C204.615 460.25 205.289 462.538 207.131 463.536C208.972 464.535 211.282 463.867 212.291 462.045C213.611 459.66 215.078 457.349 216.638 455.137C216.672 455.091 216.705 455.045 216.737 454.998C221.041 448.922 226.045 443.593 230.646 439.507L232.236 438.095L231.845 436.02L231.845 436.018L231.842 436.005L231.829 435.93C231.816 435.858 231.796 435.743 231.77 435.586C231.719 435.271 231.642 434.785 231.549 434.127C231.364 432.812 231.112 430.811 230.859 428.125C230.353 422.753 229.842 414.637 229.842 403.778C229.842 384.33 232.719 371.411 234.966 362.339C235.466 360.32 234.218 358.282 232.179 357.788C230.14 357.293 228.082 358.528 227.582 360.546C225.255 369.941 222.24 383.504 222.24 403.778C222.24 414.871 222.762 423.22 223.289 428.823C223.553 431.625 223.818 433.74 224.02 435.169C224.026 435.212 224.032 435.254 224.038 435.295C220.286 438.775 216.34 442.983 212.694 447.722C211.949 447.01 211.044 446.011 210.035 444.628C206.667 440.016 202.148 431.142 198.559 414.492C193.751 392.185 198.233 367.54 207.359 348.065C211.914 338.347 217.556 330.066 223.611 324.081C229.703 318.059 235.945 314.613 241.711 313.96C266.417 311.164 278.354 322.574 282.409 328.951L284.245 331.839L287.327 330.312C291.797 328.099 305.324 323.272 321.605 322.869C337.945 322.464 365.305 327.819 377.09 330.607L379.847 331.259L381.258 328.841L381.26 328.839L381.262 328.835L381.263 328.832L381.265 328.829C381.276 328.812 381.297 328.777 381.328 328.728C381.39 328.629 381.492 328.47 381.635 328.259C381.922 327.837 382.371 327.209 382.987 326.447C384.22 324.92 386.101 322.877 388.651 320.87C393.722 316.88 401.423 313.032 412.125 313.6C425.437 314.307 439.014 322.837 449.535 336.134C460.011 349.373 467.053 366.867 467.555 384.546C467.648 387.816 467.765 391.107 467.881 394.398C468.358 407.854 468.834 421.296 467.699 433.224C467.502 435.293 469.037 437.129 471.127 437.324C473.217 437.518 475.071 435.999 475.268 433.93C476.454 421.467 475.953 407.389 475.473 393.897C475.358 390.665 475.244 387.468 475.155 384.334C474.602 364.903 466.906 345.883 455.52 331.493C444.18 317.16 428.772 306.946 412.532 306.085C399.594 305.398 390.117 310.102 383.921 314.978C380.837 317.404 378.562 319.873 377.048 321.748C376.776 322.084 376.529 322.402 376.305 322.698C363.378 319.785 337.692 314.942 321.415 315.345C306.528 315.713 293.724 319.49 286.923 322.25ZM399.588 364.997C401.688 364.997 403.39 366.681 403.39 368.76C403.39 371.047 403.081 373.259 402.674 375.578C402.49 376.625 402.302 377.613 402.107 378.645C401.833 380.085 401.544 381.608 401.227 383.49C400.204 389.569 399.168 397.986 399.168 411.096C399.168 424.165 403.486 435.83 410.646 445.526C411.885 447.203 411.515 449.558 409.82 450.784C408.125 452.011 405.747 451.645 404.508 449.967C396.47 439.081 391.565 425.881 391.565 411.096C391.565 397.549 392.64 388.718 393.728 382.253C394.038 380.411 394.378 378.613 394.675 377.036C394.869 376.01 395.045 375.078 395.184 374.289C395.568 372.101 395.787 370.393 395.787 368.76C395.787 366.681 397.489 364.997 399.588 364.997Z" fill="white"/>
<path d="M277.842 335.35C268.846 324.753 285.874 325.082 295.513 326.571L339.155 336.818C331.047 338.725 325.202 345.559 313.38 346.111C300.867 346.696 282.468 340.8 277.842 335.35Z" fill="#FFE99C"/>
<path d="M337.837 283.461C337.768 286.327 334.585 289.282 331.329 289.204C328.073 289.126 325.506 286.033 325.574 283.168C325.643 280.303 328.321 278.75 331.577 278.828C334.833 278.906 337.906 280.596 337.837 283.461Z" fill="#FFE99C"/>
<path d="M374.737 319.03C377.598 340.57 358.629 339.408 332.972 338.794C307.315 338.18 287.27 336.804 284.004 314.498C281.368 296.503 303.448 282.874 329.105 283.488C354.762 284.102 371.939 297.963 374.737 319.03Z" fill="#FFE99C"/>
<path d="M314.106 286.197C308.532 289.052 297.458 297.596 297.753 308.929C298.048 320.262 302.033 330.582 303.988 334.325" stroke="white" stroke-opacity="0.4" stroke-width="2"/>
<path d="M328.537 284.655C324.65 289.359 318.365 305.497 318.181 313.193C317.893 325.22 319.042 336.337 319.042 336.337" stroke="white" stroke-opacity="0.4" stroke-width="2"/>
<path d="M338.896 285.61C344.597 290.623 351.488 301.721 354.57 310.997C357.204 318.927 353.943 337.172 353.943 337.172" stroke="white" stroke-opacity="0.4" stroke-width="2"/>
<path d="M300.082 290.58C304.484 293.989 317.474 297.367 328.205 298.568C338.936 299.768 350.056 295.866 355.028 291.895" stroke="white" stroke-opacity="0.4" stroke-width="2"/>
<path d="M284.769 309.326C291.903 313.586 328.987 321.143 343.711 321.118C358.435 321.093 364.576 316.899 371.118 309.741" stroke="white" stroke-opacity="0.4" stroke-width="2"/>
<path d="M293.703 330.303C292.045 330.578 288.203 331.399 286.101 332.481C283.998 333.563 280.594 335.81 279.155 336.798" stroke="white" stroke-opacity="0.4" stroke-width="2"/>
<path d="M300.929 334.016C299.424 334.452 296.121 335.741 294.949 337.412C293.776 339.083 292.641 341.84 292.219 343.009" stroke="white" stroke-opacity="0.4" stroke-width="2"/>
<path d="M311.254 336.387C310.605 337.236 309.339 339.503 309.474 341.771C309.608 344.039 310.091 345.561 310.315 346.038" stroke="white" stroke-opacity="0.4" stroke-width="2"/>
<path d="M281.762 326.478C281.767 329.546 283.891 336.109 292.344 337.821C300.797 339.534 318.441 341.749 326.206 342.643" stroke="white" stroke-opacity="0.4" stroke-width="2"/>
<path d="M277.844 335.351L275.557 337.292L275.557 337.292L277.844 335.351ZM313.382 346.111L313.522 349.108L313.382 346.111ZM336.821 339.586C338.344 338.934 339.051 337.171 338.399 335.648C337.747 334.124 335.984 333.418 334.46 334.07L336.821 339.586ZM275.557 337.292C277.098 339.108 279.537 340.716 282.226 342.086C284.983 343.49 288.273 344.78 291.77 345.86C298.724 348.008 306.812 349.421 313.522 349.108L313.242 343.115C307.438 343.386 300.07 342.144 293.54 340.127C290.294 339.125 287.336 337.955 284.95 336.74C282.498 335.491 280.902 334.317 280.131 333.409L275.557 337.292ZM290.513 322.416C288.117 322.273 285.574 322.29 283.206 322.551C280.885 322.808 278.514 323.321 276.599 324.303C274.666 325.294 272.721 327.045 272.472 329.85C272.242 332.433 273.568 334.949 275.557 337.292L280.131 333.409C278.493 331.479 278.433 330.549 278.448 330.382C278.451 330.346 278.454 330.31 278.529 330.218C278.63 330.096 278.862 329.885 279.336 329.642C280.317 329.14 281.861 328.736 283.865 328.515C285.823 328.299 288.015 328.278 290.154 328.406L290.513 322.416ZM313.522 349.108C319.07 348.849 323.513 346.985 327.267 344.946C329.109 343.945 330.868 342.854 332.419 341.931C334.019 340.978 335.439 340.177 336.821 339.586L334.46 334.07C332.687 334.829 330.978 335.806 329.35 336.775C327.673 337.774 326.107 338.748 324.403 339.674C321.065 341.487 317.534 342.914 313.242 343.115L313.522 349.108Z" fill="white"/>
<path d="M337.51 284.397C337.579 281.532 334.834 278.906 331.578 278.828C328.322 278.75 325.563 280.772 325.495 283.638" stroke="white" stroke-width="6"/>
<path d="M371.763 319.425C372.427 324.42 371.757 327.613 370.466 329.728C369.195 331.811 367.031 333.322 363.671 334.351C360.269 335.393 355.907 335.856 350.645 335.995C346.053 336.116 340.962 335.99 335.432 335.853C334.645 335.834 333.849 335.814 333.044 335.795C320.095 335.485 309.205 334.969 301.138 331.969C297.186 330.499 294.054 328.477 291.726 325.693C289.404 322.917 287.724 319.195 286.972 314.064C285.877 306.588 289.814 299.69 297.605 294.513C305.404 289.331 316.708 286.192 329.033 286.487C341.347 286.782 351.392 290.248 358.639 295.947C365.857 301.625 370.464 309.643 371.763 319.425Z" stroke="white" stroke-width="6"/>
<path d="M339.569 307.085C343.427 313.906 343.573 329.642 343.163 336.658C346.779 336.855 355.312 337.099 359.208 336.579C364.999 335.807 369.688 334.284 372.775 333.048C375.377 332.006 376.927 329.434 376.611 326.65C375.987 321.157 374.202 313.264 370.836 304.362C365.277 289.661 344.823 282.542 338.21 286.537C333.429 289.425 334.746 298.559 339.569 307.085Z" fill="#FFE99C" stroke="white" stroke-width="6"/>
<path d="M296.497 304.044C291.676 310.391 290.348 323.342 291.832 327.611C290.297 324.219 285.357 322.003 285.292 312.975C285.132 290.71 321.357 283.727 323.816 286.185C328.531 290.899 303.572 294.731 296.497 304.044Z" fill="#FFE99C" stroke="white" stroke-width="6"/>
<defs>
<linearGradient id="paint0_linear_121_1455" x1="72.6978" y1="-26.5" x2="471.281" y2="346.595" gradientUnits="userSpaceOnUse">
<stop stop-color="#FFE0B0"/>
<stop offset="1" stop-color="#FFE587"/>
</linearGradient>
</defs>
</svg>
