<svg width="345" height="56" viewBox="0 0 345 56" fill="none" xmlns="http://www.w3.org/2000/svg">
<rect x="0.5" y="0.5" width="344" height="55" rx="7.5" fill="#FFB941"/>
<path d="M104.277 28.9258V30.6836H97.2656V36.7188H95.1172V30.6836H88.1836V28.9258H104.277ZM89.0234 26.0352C92.4902 25.5957 94.8145 23.7305 94.9707 21.7969H89.668V20.0781H102.793V21.7969H97.4902C97.6367 23.7305 99.9414 25.5957 103.438 26.0352L102.656 27.7344C99.6484 27.3047 97.3047 25.9277 96.2305 24.0234C95.1465 25.9277 92.8223 27.3047 89.8438 27.7344L89.0234 26.0352ZM120.176 19.1016V31.8555H117.988V19.1016H120.176ZM105.781 24.668C105.781 22.0996 107.861 20.2637 110.547 20.2539C113.232 20.2637 115.303 22.0996 115.293 24.668C115.303 27.2754 113.232 29.1016 110.547 29.1016C107.861 29.1016 105.781 27.2754 105.781 24.668ZM107.91 24.668C107.9 26.2305 109.033 27.207 110.547 27.207C112.021 27.207 113.164 26.2305 113.164 24.668C113.164 23.1445 112.021 22.1484 110.547 22.1484C109.033 22.1484 107.9 23.1445 107.91 24.668ZM108.496 36.3867V30.5664H110.684V34.6289H120.664V36.3867H108.496ZM142.168 19.082V27.8711H140.02V19.082H142.168ZM127.812 23.6328C127.812 21.3086 129.805 19.6582 132.5 19.6484C135.176 19.6582 137.168 21.3086 137.188 23.6328C137.168 25.9668 135.176 27.6074 132.5 27.6172C129.805 27.6074 127.812 25.9668 127.812 23.6328ZM129.492 30.5859V29.0039H135.176V33.3789H131.602V34.8242C133.34 34.8145 134.395 34.7656 135.684 34.5312L135.879 36.1133C134.297 36.4258 133.018 36.4648 130.547 36.4648H129.57V31.8945H133.086V30.5859H129.492ZM129.922 23.6328C129.922 25 131.016 25.8594 132.5 25.8594C133.984 25.8594 135.068 25 135.078 23.6328C135.068 22.2949 133.984 21.4355 132.5 21.4453C131.016 21.4355 129.922 22.2949 129.922 23.6328ZM135.762 31.2695V29.668H138.516V28.2227H140.645V29.668H143.359V31.2695H135.762ZM136.426 34.2383C136.416 32.7734 137.754 31.7871 139.551 31.7969C141.338 31.7871 142.686 32.7734 142.695 34.2383C142.686 35.7715 141.338 36.7188 139.551 36.7188C137.754 36.7188 136.416 35.7715 136.426 34.2383ZM138.262 34.2383C138.252 34.8926 138.789 35.2148 139.551 35.2148C140.283 35.2148 140.83 34.8926 140.84 34.2383C140.83 33.6523 140.283 33.3203 139.551 33.3203C138.789 33.3203 138.252 33.6523 138.262 34.2383ZM160.879 28.2031V29.9414H144.785V28.2031H160.879ZM146.445 23.2227C146.445 20.9863 148.955 19.6387 152.812 19.6484C156.66 19.6387 159.17 20.9863 159.18 23.2227C159.17 25.4688 156.66 26.8359 152.812 26.8359C148.955 26.8359 146.445 25.4688 146.445 23.2227ZM146.777 36.3867V31.25H148.945V34.6289H159.062V36.3867H146.777ZM148.711 23.2227C148.691 24.4238 150.244 25.0684 152.812 25.0586C155.391 25.0684 156.934 24.4238 156.934 23.2227C156.934 22.0605 155.391 21.3867 152.812 21.3867C150.244 21.3867 148.691 22.0605 148.711 23.2227ZM180.742 19.082V23.3789H183.203V25.1562H180.742V29.4336H178.574V19.082H180.742ZM166.758 27.9492C170.752 26.8555 173.135 24.6973 173.506 22.0508H167.559V20.293H175.859C175.869 24.9316 172.842 28.2324 167.617 29.707L166.758 27.9492ZM169.141 33.1836C169.121 31.0059 171.484 29.6484 175.039 29.6484C178.623 29.6484 180.938 31.0059 180.938 33.1836C180.938 35.3809 178.623 36.7285 175.039 36.7188C171.484 36.7285 169.121 35.3809 169.141 33.1836ZM171.289 33.1836C171.279 34.3359 172.705 35.0195 175.039 35.0195C177.363 35.0195 178.799 34.3359 178.809 33.1836C178.799 32.0215 177.363 31.3477 175.039 31.3477C172.705 31.3477 171.279 32.0215 171.289 33.1836ZM188.848 20.3711C191.504 20.3711 193.418 22.793 193.438 26.6016C193.418 30.4395 191.504 32.8516 188.848 32.8516C186.162 32.8516 184.248 30.4395 184.258 26.6016C184.248 22.793 186.162 20.3711 188.848 20.3711ZM186.348 26.6016C186.338 29.3164 187.363 30.8887 188.848 30.8984C190.342 30.8887 191.338 29.3164 191.348 26.6016C191.338 23.9062 190.342 22.3242 188.848 22.3242C187.363 22.3242 186.338 23.9062 186.348 26.6016ZM195.762 36.7383V19.082H197.93V25.8594H200.645V27.6953H197.93V36.7383H195.762ZM208.047 24.1016C208.047 26.9922 209.746 30.0391 212.598 31.2305L211.406 32.9492C209.316 32.041 207.793 30.1953 206.982 27.9492C206.172 30.3711 204.619 32.4023 202.559 33.3789L201.309 31.6797C204.092 30.3906 205.83 27.0996 205.84 24.1016V22.6172H201.953V20.8203H211.914V22.6172H208.047V24.1016ZM213.887 36.7383V19.082H216.074V36.7383H213.887ZM229.766 22.6953C229.756 24.5898 231.191 26.4453 233.965 27.1875L232.988 28.8477C230.947 28.3008 229.492 27.1289 228.701 25.625C227.92 27.2852 226.436 28.5742 224.355 29.1797L223.32 27.4609C226.104 26.709 227.598 24.7656 227.598 22.6953V22.6367H223.906V20.918H227.598V19.0039H229.785V20.918H233.457V22.6367H229.766V22.6953ZM225.059 35C228.086 34.5898 230.049 33.2617 230.469 31.7578H225.781V30.0195H237.598V31.7578H232.93C233.35 33.2227 235.322 34.5996 238.34 35.0195L237.559 36.6797C234.795 36.2891 232.705 35.1074 231.689 33.5059C230.674 35.0977 228.594 36.25 225.859 36.6406L225.059 35ZM235.176 29.1992V19.082H237.344V23.1836H239.805V24.9805H237.344V29.1992H235.176ZM255.449 19.082V36.7383H253.262V19.082H255.449ZM240.82 31.875C245.449 29.6777 247.578 26.6895 247.969 22.6758H241.719V20.957H250.176C250.176 26.2109 248.135 30.6738 241.953 33.6133L240.82 31.875Z" fill="white"/>
<rect x="0.5" y="0.5" width="344" height="55" rx="7.5" stroke="#FFB941"/>
</svg>
