<svg width="345" height="56" viewBox="0 0 345 56" fill="none" xmlns="http://www.w3.org/2000/svg">
<path d="M68.3008 19.082V36.7578H66.1133V19.082H68.3008ZM54.1797 26.6016C54.1699 22.793 56.1133 20.3711 58.7891 20.3711C61.4355 20.3711 63.3887 22.793 63.3984 26.6016C63.3887 30.4395 61.4355 32.8516 58.7891 32.8516C56.1133 32.8516 54.1699 30.4395 54.1797 26.6016ZM56.2695 26.6016C56.2695 29.3164 57.2949 30.8887 58.7891 30.8984C60.2734 30.8887 61.2891 29.3164 61.2891 26.6016C61.2891 23.9062 60.2734 22.3242 58.7891 22.3242C57.2949 22.3242 56.2695 23.9062 56.2695 26.6016ZM80.2344 20.7422V32.4414H71.8359V20.7422H80.2344ZM73.9844 30.7031H78.125V22.4414H73.9844V30.7031ZM83.3984 36.7578V19.082H85.5859V36.7578H83.3984ZM94.8438 24.1016C94.8438 26.9922 96.543 30.0391 99.3945 31.2305L98.2031 32.9492C96.1133 32.041 94.5898 30.1953 93.7793 27.9492C92.9688 30.3711 91.416 32.4023 89.3555 33.3789L88.1055 31.6797C90.8887 30.3906 92.627 27.0996 92.6367 24.1016V22.6172H88.75V20.8203H98.7109V22.6172H94.8438V24.1016ZM100.684 36.7383V19.082H102.871V36.7383H100.684ZM121.602 32.8906V34.6875H105.469V32.8906H112.422V30.0195H107.383V24.2383H117.539V22.0508H107.344V20.293H119.688V25.957H109.551V28.2422H120.098V30.0195H114.57V32.8906H121.602ZM142.168 19.082V27.8711H140.02V19.082H142.168ZM127.812 23.6328C127.812 21.3086 129.805 19.6582 132.5 19.6484C135.176 19.6582 137.168 21.3086 137.188 23.6328C137.168 25.9668 135.176 27.6074 132.5 27.6172C129.805 27.6074 127.812 25.9668 127.812 23.6328ZM129.492 30.5859V29.0039H135.176V33.3789H131.602V34.8242C133.34 34.8145 134.395 34.7656 135.684 34.5312L135.879 36.1133C134.297 36.4258 133.018 36.4648 130.547 36.4648H129.57V31.8945H133.086V30.5859H129.492ZM129.922 23.6328C129.922 25 131.016 25.8594 132.5 25.8594C133.984 25.8594 135.068 25 135.078 23.6328C135.068 22.2949 133.984 21.4355 132.5 21.4453C131.016 21.4355 129.922 22.2949 129.922 23.6328ZM135.762 31.2695V29.668H138.516V28.2227H140.645V29.668H143.359V31.2695H135.762ZM136.426 34.2383C136.416 32.7734 137.754 31.7871 139.551 31.7969C141.338 31.7871 142.686 32.7734 142.695 34.2383C142.686 35.7715 141.338 36.7188 139.551 36.7188C137.754 36.7188 136.416 35.7715 136.426 34.2383ZM138.262 34.2383C138.252 34.8926 138.789 35.2148 139.551 35.2148C140.283 35.2148 140.83 34.8926 140.84 34.2383C140.83 33.6523 140.283 33.3203 139.551 33.3203C138.789 33.3203 138.252 33.6523 138.262 34.2383ZM149.609 20.3711C151.992 20.3711 153.76 22.3633 154.072 25.5859H157.441V19.082H159.59V36.7578H157.441V27.3438H154.092C153.857 30.752 152.061 32.8516 149.609 32.8516C146.953 32.8516 145.068 30.4395 145.078 26.6016C145.068 22.793 146.953 20.3711 149.609 20.3711ZM147.168 26.6016C147.158 29.3164 148.154 30.8887 149.609 30.8984C151.074 30.8887 152.061 29.3164 152.07 26.6016C152.061 23.9062 151.074 22.3242 149.609 22.3242C148.154 22.3242 147.158 23.9062 147.168 26.6016ZM176.875 19.082V36.7578H174.727V27.1875H171.133V32.4805H162.734V20.4492H164.922V24.8438H169.004V20.4492H171.133V25.4102H174.727V19.082H176.875ZM164.922 30.7422H169.004V26.543H164.922V30.7422ZM194.023 19.1016V32.0898H191.875V19.1016H194.023ZM180.254 22.0312V20.293H188.398V25.7422H182.422V27.9688C185.615 27.9688 187.725 27.8711 190.156 27.4219L190.391 29.1602C187.725 29.6582 185.41 29.7461 181.797 29.7461H180.293V24.1016H186.25V22.0312H180.254ZM182.266 36.3867V31.0352H184.453V34.6289H194.512V36.3867H182.266ZM215.312 19.082V23.3789H217.773V25.1562H215.312V29.4336H213.145V19.082H215.312ZM201.328 27.9492C205.322 26.8555 207.705 24.6973 208.076 22.0508H202.129V20.293H210.43C210.439 24.9316 207.412 28.2324 202.188 29.707L201.328 27.9492ZM203.711 33.1836C203.691 31.0059 206.055 29.6484 209.609 29.6484C213.193 29.6484 215.508 31.0059 215.508 33.1836C215.508 35.3809 213.193 36.7285 209.609 36.7188C206.055 36.7285 203.691 35.3809 203.711 33.1836ZM205.859 33.1836C205.85 34.3359 207.275 35.0195 209.609 35.0195C211.934 35.0195 213.369 34.3359 213.379 33.1836C213.369 32.0215 211.934 31.3477 209.609 31.3477C207.275 31.3477 205.85 32.0215 205.859 33.1836ZM223.418 20.3711C226.074 20.3711 227.988 22.793 228.008 26.6016C227.988 30.4395 226.074 32.8516 223.418 32.8516C220.732 32.8516 218.818 30.4395 218.828 26.6016C218.818 22.793 220.732 20.3711 223.418 20.3711ZM220.918 26.6016C220.908 29.3164 221.934 30.8887 223.418 30.8984C224.912 30.8887 225.908 29.3164 225.918 26.6016C225.908 23.9062 224.912 22.3242 223.418 22.3242C221.934 22.3242 220.908 23.9062 220.918 26.6016ZM230.332 36.7383V19.082H232.5V25.8594H235.215V27.6953H232.5V36.7383H230.332ZM242.617 24.1016C242.617 26.9922 244.316 30.0391 247.168 31.2305L245.977 32.9492C243.887 32.041 242.363 30.1953 241.553 27.9492C240.742 30.3711 239.189 32.4023 237.129 33.3789L235.879 31.6797C238.662 30.3906 240.4 27.0996 240.41 24.1016V22.6172H236.523V20.8203H246.484V22.6172H242.617V24.1016ZM248.457 36.7383V19.082H250.645V36.7383H248.457ZM264.336 22.6953C264.326 24.5898 265.762 26.4453 268.535 27.1875L267.559 28.8477C265.518 28.3008 264.062 27.1289 263.271 25.625C262.49 27.2852 261.006 28.5742 258.926 29.1797L257.891 27.4609C260.674 26.709 262.168 24.7656 262.168 22.6953V22.6367H258.477V20.918H262.168V19.0039H264.355V20.918H268.027V22.6367H264.336V22.6953ZM259.629 35C262.656 34.5898 264.619 33.2617 265.039 31.7578H260.352V30.0195H272.168V31.7578H267.5C267.92 33.2227 269.893 34.5996 272.91 35.0195L272.129 36.6797C269.365 36.2891 267.275 35.1074 266.26 33.5059C265.244 35.0977 263.164 36.25 260.43 36.6406L259.629 35ZM269.746 29.1992V19.082H271.914V23.1836H274.375V24.9805H271.914V29.1992H269.746ZM290.02 19.082V36.7383H287.832V19.082H290.02ZM275.391 31.875C280.02 29.6777 282.148 26.6895 282.539 22.6758H276.289V20.957H284.746C284.746 26.2109 282.705 30.6738 276.523 33.6133L275.391 31.875Z" fill="#FFB941"/>
<rect x="0.5" y="0.5" width="344" height="55" rx="7.5" stroke="#FFB941"/>
</svg>
