<svg width="345" height="56" viewBox="0 0 345 56" fill="none" xmlns="http://www.w3.org/2000/svg">
<rect x="0.5" y="0.5" width="344" height="55" rx="7.5" fill="white"/>
<path d="M74.1113 23.6719C74.1016 26.6504 75.127 29.5605 77.5684 30.8594L76.2793 32.5781C74.6875 31.6895 73.6328 30.1367 73.0371 28.252C72.4023 30.332 71.2695 32.0801 69.6191 33.0664L68.2324 31.4844C70.8301 29.9609 72.002 26.8164 72.002 23.8086V20.6445H74.1113V23.6719ZM77.8027 35.8789V19.3945H79.8535V26.0352H81.6699V19.082H83.7598V36.7383H81.6699V27.793H79.8535V35.8789H77.8027ZM106.65 28.9258V30.6836H99.6387V36.7188H97.4902V30.6836H90.5566V28.9258H106.65ZM91.3965 26.0352C94.8633 25.5957 97.1875 23.7305 97.3438 21.7969H92.041V20.0781H105.166V21.7969H99.8633C100.01 23.7305 102.314 25.5957 105.811 26.0352L105.029 27.7344C102.021 27.3047 99.6777 25.9277 98.6035 24.0234C97.5195 25.9277 95.1953 27.3047 92.2168 27.7344L91.3965 26.0352ZM122.549 19.1016V31.8555H120.361V19.1016H122.549ZM108.154 24.668C108.154 22.0996 110.234 20.2637 112.92 20.2539C115.605 20.2637 117.676 22.0996 117.666 24.668C117.676 27.2754 115.605 29.1016 112.92 29.1016C110.234 29.1016 108.154 27.2754 108.154 24.668ZM110.283 24.668C110.273 26.2305 111.406 27.207 112.92 27.207C114.395 27.207 115.537 26.2305 115.537 24.668C115.537 23.1445 114.395 22.1484 112.92 22.1484C111.406 22.1484 110.273 23.1445 110.283 24.668ZM110.869 36.3867V30.5664H113.057V34.6289H123.037V36.3867H110.869ZM133.154 19.3555C137.178 19.3652 139.512 20.4297 139.521 22.3828C139.512 24.3555 137.178 25.4199 133.154 25.4297C129.141 25.4199 126.787 24.3555 126.787 22.3828C126.787 20.4297 129.141 19.3652 133.154 19.3555ZM125.127 28.1055V26.3672H141.221V28.1055H125.127ZM127.021 30.8984V29.2969H139.209V33.6133H129.17V34.9219H139.697V36.582H127.041V32.0703H137.08V30.8984H127.021ZM129.072 22.3828C129.062 23.3594 130.469 23.8086 133.154 23.8086C135.879 23.8086 137.275 23.3594 137.275 22.3828C137.275 21.4746 135.879 20.957 133.154 20.957C130.469 20.957 129.062 21.4746 129.072 22.3828ZM153.506 22.6953C153.496 24.5898 154.932 26.4453 157.705 27.1875L156.729 28.8477C154.688 28.3008 153.232 27.1289 152.441 25.625C151.66 27.2852 150.176 28.5742 148.096 29.1797L147.061 27.4609C149.844 26.709 151.338 24.7656 151.338 22.6953V22.6367H147.646V20.918H151.338V19.0039H153.525V20.918H157.197V22.6367H153.506V22.6953ZM148.799 35C151.826 34.5898 153.789 33.2617 154.209 31.7578H149.521V30.0195H161.338V31.7578H156.67C157.09 33.2227 159.062 34.5996 162.08 35.0195L161.299 36.6797C158.535 36.2891 156.445 35.1074 155.43 33.5059C154.414 35.0977 152.334 36.25 149.6 36.6406L148.799 35ZM158.916 29.1992V19.082H161.084V23.1836H163.545V24.9805H161.084V29.1992H158.916ZM178.74 24.082V25.8008H166.514V19.7266H168.662V24.082H178.74ZM164.424 29.5703V27.8516H180.557V29.5703H164.424ZM166.357 36.3281V31.1328H168.525V34.5703H178.857V36.3281H166.357ZM200.4 19.082V23.3789H202.861V25.1562H200.4V29.4336H198.232V19.082H200.4ZM186.416 27.9492C190.41 26.8555 192.793 24.6973 193.164 22.0508H187.217V20.293H195.518C195.527 24.9316 192.5 28.2324 187.275 29.707L186.416 27.9492ZM188.799 33.1836C188.779 31.0059 191.143 29.6484 194.697 29.6484C198.281 29.6484 200.596 31.0059 200.596 33.1836C200.596 35.3809 198.281 36.7285 194.697 36.7188C191.143 36.7285 188.779 35.3809 188.799 33.1836ZM190.947 33.1836C190.938 34.3359 192.363 35.0195 194.697 35.0195C197.021 35.0195 198.457 34.3359 198.467 33.1836C198.457 32.0215 197.021 31.3477 194.697 31.3477C192.363 31.3477 190.938 32.0215 190.947 33.1836ZM208.506 20.3711C211.162 20.3711 213.076 22.793 213.096 26.6016C213.076 30.4395 211.162 32.8516 208.506 32.8516C205.82 32.8516 203.906 30.4395 203.916 26.6016C203.906 22.793 205.82 20.3711 208.506 20.3711ZM206.006 26.6016C205.996 29.3164 207.021 30.8887 208.506 30.8984C210 30.8887 210.996 29.3164 211.006 26.6016C210.996 23.9062 210 22.3242 208.506 22.3242C207.021 22.3242 205.996 23.9062 206.006 26.6016ZM215.42 36.7383V19.082H217.588V25.8594H220.303V27.6953H217.588V36.7383H215.42ZM227.705 24.1016C227.705 26.9922 229.404 30.0391 232.256 31.2305L231.064 32.9492C228.975 32.041 227.451 30.1953 226.641 27.9492C225.83 30.3711 224.277 32.4023 222.217 33.3789L220.967 31.6797C223.75 30.3906 225.488 27.0996 225.498 24.1016V22.6172H221.611V20.8203H231.572V22.6172H227.705V24.1016ZM233.545 36.7383V19.082H235.732V36.7383H233.545ZM259.209 32.832V34.6094H243.076V32.832H250.029V29.3945H244.854V20.2539H247.021V23.1445H255.205V20.2539H257.373V29.3945H252.178V32.832H259.209ZM247.021 27.6367H255.205V24.8828H247.021V27.6367ZM275.107 19.082V36.7383H272.92V19.082H275.107ZM260.479 31.875C265.107 29.6777 267.236 26.6895 267.627 22.6758H261.377V20.957H269.834C269.834 26.2109 267.793 30.6738 261.611 33.6133L260.479 31.875Z" fill="#FFB941"/>
<rect x="0.5" y="0.5" width="344" height="55" rx="7.5" stroke="#FFB941"/>
</svg>
