<svg width="345" height="56" viewBox="0 0 345 56" fill="none" xmlns="http://www.w3.org/2000/svg">
<path d="M87.0117 28.9844V30.7422H83.0859V36.7383H80.8789V30.7422H76.9727V36.7383H74.7461V30.7422H70.8789V28.9844H87.0117ZM72.5781 23.6523C72.5684 21.25 75.1465 19.7168 78.9062 19.707C82.666 19.7168 85.2637 21.25 85.2734 23.6523C85.2637 26.0254 82.666 27.5195 78.9062 27.5195C75.1465 27.5195 72.5684 26.0254 72.5781 23.6523ZM74.8047 23.6523C74.7949 25 76.416 25.791 78.9062 25.8008C81.4062 25.791 83.0273 25 83.0273 23.6523C83.0273 22.2656 81.4062 21.4648 78.9062 21.4648C76.416 21.4648 74.7949 22.2656 74.8047 23.6523ZM102.93 19.082V36.7383H100.742V19.082H102.93ZM88.3008 31.875C92.9297 29.6777 95.0586 26.6895 95.4492 22.6758H89.1992V20.957H97.6562C97.6562 26.2109 95.6152 30.6738 89.4336 33.6133L88.3008 31.875ZM121.582 27.5391V29.2773H105.469V27.5391H112.461V25.8594H107.441V19.8828H119.629V21.582H109.609V24.1406H119.727V25.8594H114.59V27.5391H121.582ZM107.344 33.5156C107.344 31.4453 109.658 30.2832 113.496 30.293C117.305 30.2832 119.6 31.4453 119.609 33.5156C119.6 35.5664 117.305 36.7285 113.496 36.7383C109.658 36.7285 107.344 35.5664 107.344 33.5156ZM109.551 33.5156C109.541 34.541 110.928 35.0684 113.496 35.0586C116.025 35.0684 117.422 34.541 117.441 33.5156C117.422 32.5 116.025 31.9531 113.496 31.9531C110.928 31.9531 109.541 32.5 109.551 33.5156ZM138.848 26.25V27.9688H131.855V29.2969H136.836V33.6328H126.797V34.9219H137.324V36.582H124.668V32.0703H134.707V30.9375H124.648V29.2969H129.688V27.9688H122.754V26.25H138.848ZM124.785 25.1367V19.6289H136.777V25.1367H124.785ZM126.914 23.4375H134.609V21.3281H126.914V23.4375ZM160.918 32.832V34.6094H144.785V32.832H151.758V28.7695H153.926V32.832H160.918ZM145.488 27.793C149.004 27.207 151.621 24.8242 151.68 22.2852H146.133V20.5078H159.531V22.2852H153.965C154.033 24.8242 156.65 27.1484 160.273 27.6953L159.414 29.4141C156.436 28.877 153.984 27.2949 152.842 25.0879C151.709 27.3242 149.287 28.9551 146.348 29.5117L145.488 27.793ZM176.777 19.082V36.7383H174.609V19.082H176.777ZM162.148 31.8359C163.555 31.8262 165.146 31.8262 166.816 31.7773V30.1562C164.834 29.8438 163.535 28.6328 163.535 26.9531C163.535 24.9609 165.303 23.6426 167.871 23.6328C170.469 23.6426 172.266 24.9609 172.266 26.9531C172.266 28.623 170.967 29.8242 168.984 30.1465V31.6992C170.537 31.6309 172.1 31.5039 173.574 31.3086L173.73 32.9297C169.854 33.584 165.635 33.6328 162.461 33.6328L162.148 31.8359ZM162.52 22.832V21.1133H166.816V19.1406H168.984V21.1133H173.262V22.832H162.52ZM165.605 26.9531C165.586 27.9688 166.533 28.5645 167.871 28.5547C169.248 28.5645 170.186 27.9688 170.176 26.9531C170.186 25.9277 169.248 25.3027 167.871 25.293C166.533 25.3027 165.586 25.9277 165.605 26.9531ZM193.516 20.1758V27.5195H185V20.1758H193.516ZM186.055 35.0195C189.443 34.7266 191.611 33.2227 191.807 31.8164H186.777V30.1758H191.855V28.6328H194.043V30.1758H199.141V31.8164H194.102C194.297 33.1836 196.426 34.6777 199.805 35.0195L199.062 36.6797C196.201 36.377 194.033 35.2539 192.959 33.7891C191.875 35.2734 189.678 36.3672 186.797 36.6797L186.055 35.0195ZM187.148 25.8203H191.367V21.8945H187.148V25.8203ZM196.621 29.1406V19.082H198.77V29.1406H196.621ZM220.84 19.082V28.5547H218.652V19.082H220.84ZM206.445 24.0039C206.445 21.5527 208.477 19.8535 211.211 19.8633C213.936 19.8535 215.967 21.5527 215.957 24.0039C215.967 26.416 213.936 28.1152 211.211 28.1055C208.477 28.1152 206.445 26.416 206.445 24.0039ZM208.574 24.0039C208.564 25.4199 209.668 26.3184 211.211 26.3281C212.725 26.3184 213.828 25.4199 213.828 24.0039C213.828 22.5879 212.725 21.6699 211.211 21.6797C209.668 21.6699 208.564 22.5879 208.574 24.0039ZM209.16 36.5234V29.375H211.309V31.1914H218.672V29.375H220.84V36.5234H209.16ZM211.309 34.7656H218.672V32.8906H211.309V34.7656ZM239.746 21.4453V23.2227H237.344V25.2344H239.746V27.0312H237.344V29.4531H235.176V19.082H237.344V21.4453H239.746ZM223.613 24.3164C223.604 21.8262 225.654 20.0781 228.379 20.0977C231.094 20.0781 233.125 21.8262 233.145 24.3164C233.125 26.7969 231.094 28.5449 228.379 28.5547C225.654 28.5449 223.604 26.7969 223.613 24.3164ZM225.625 33.3008C225.625 31.1426 227.949 29.873 231.602 29.8633C235.225 29.873 237.51 31.1426 237.52 33.3008C237.51 35.4395 235.225 36.7188 231.602 36.7188C227.949 36.7188 225.625 35.4395 225.625 33.3008ZM225.742 24.3164C225.732 25.7812 226.855 26.709 228.379 26.7188C229.883 26.709 231.006 25.7812 231.016 24.3164C231.006 22.8613 229.883 21.9043 228.379 21.9141C226.855 21.9043 225.732 22.8613 225.742 24.3164ZM227.793 33.3008C227.793 34.4141 229.18 34.9805 231.602 34.9805C234.014 34.9805 235.371 34.4141 235.371 33.3008C235.371 32.1973 234.014 31.6016 231.602 31.6016C229.18 31.6016 227.793 32.1973 227.793 33.3008ZM254.531 19.082V26.1133H257.246V27.9102H254.531V36.7383H252.383V19.082H254.531ZM240.605 23.5352V21.7969H244.785V19.3359H246.953V21.7969H251.016V23.5352H240.605ZM241.426 28.8477C241.406 26.4062 243.301 24.6777 245.879 24.6875C248.418 24.6777 250.303 26.4062 250.312 28.8477C250.303 31.2793 248.418 32.9883 245.879 32.9883C243.301 32.9883 241.406 31.2793 241.426 28.8477ZM243.496 28.8477C243.486 30.2832 244.492 31.2012 245.879 31.1914C247.236 31.2012 248.223 30.2832 248.242 28.8477C248.223 27.4121 247.236 26.4648 245.879 26.4648C244.492 26.4648 243.486 27.4121 243.496 28.8477ZM272.734 19.082V36.7383H270.547V19.082H272.734ZM258.105 31.875C262.734 29.6777 264.863 26.6895 265.254 22.6758H259.004V20.957H267.461C267.461 26.2109 265.42 30.6738 259.238 33.6133L258.105 31.875Z" fill="#FFB941"/>
<rect x="0.5" y="0.5" width="344" height="55" rx="7.5" stroke="#FFB941"/>
</svg>
