<svg width="564" height="564" viewBox="0 0 564 564" fill="none" xmlns="http://www.w3.org/2000/svg">
<g filter="url(#filter0_d_24_479)">
<rect x="12" y="8" width="540" height="540" rx="40" fill="white"/>
</g>
<path d="M122.555 288.898V299.445H119.977V288.898H122.555ZM105.328 294.359C105.328 291.57 107.719 289.59 110.953 289.578C114.164 289.59 116.555 291.57 116.578 294.359C116.555 297.16 114.164 299.129 110.953 299.141C107.719 299.129 105.328 297.16 105.328 294.359ZM107.344 302.703V300.805H114.164V306.055H109.875V307.789C111.961 307.777 113.227 307.719 114.773 307.438L115.008 309.336C113.109 309.711 111.574 309.758 108.609 309.758H107.438V304.273H111.656V302.703H107.344ZM107.859 294.359C107.859 296 109.172 297.031 110.953 297.031C112.734 297.031 114.035 296 114.047 294.359C114.035 292.754 112.734 291.723 110.953 291.734C109.172 291.723 107.859 292.754 107.859 294.359ZM114.867 303.523V301.602H118.172V299.867H120.727V301.602H123.984V303.523H114.867ZM115.664 307.086C115.652 305.328 117.258 304.145 119.414 304.156C121.559 304.145 123.176 305.328 123.188 307.086C123.176 308.926 121.559 310.062 119.414 310.062C117.258 310.062 115.652 308.926 115.664 307.086ZM117.867 307.086C117.855 307.871 118.5 308.258 119.414 308.258C120.293 308.258 120.949 307.871 120.961 307.086C120.949 306.383 120.293 305.984 119.414 305.984C118.5 305.984 117.855 306.383 117.867 307.086ZM131.484 290.445C134.344 290.445 136.465 292.836 136.84 296.703H140.883V288.898H143.461V310.109H140.883V298.812H136.863C136.582 302.902 134.426 305.422 131.484 305.422C128.297 305.422 126.035 302.527 126.047 297.922C126.035 293.352 128.297 290.445 131.484 290.445ZM128.555 297.922C128.543 301.18 129.738 303.066 131.484 303.078C133.242 303.066 134.426 301.18 134.438 297.922C134.426 294.688 133.242 292.789 131.484 292.789C129.738 292.789 128.543 294.688 128.555 297.922ZM164.203 288.898V310.109H161.625V298.625H157.312V304.977H147.234V290.539H149.859V295.812H154.758V290.539H157.312V296.492H161.625V288.898H164.203ZM149.859 302.891H154.758V297.852H149.859V302.891ZM184.781 288.922V304.508H182.203V288.922H184.781ZM168.258 292.438V290.352H178.031V296.891H170.859V299.562C174.691 299.562 177.223 299.445 180.141 298.906L180.422 300.992C177.223 301.59 174.445 301.695 170.109 301.695H168.305V294.922H175.453V292.438H168.258ZM170.672 309.664V303.242H173.297V307.555H185.367V309.664H170.672ZM210.328 288.898V294.055H213.281V296.188H210.328V301.32H207.727V288.898H210.328ZM193.547 299.539C198.34 298.227 201.199 295.637 201.645 292.461H194.508V290.352H204.469C204.48 295.918 200.848 299.879 194.578 301.648L193.547 299.539ZM196.406 305.82C196.383 303.207 199.219 301.578 203.484 301.578C207.785 301.578 210.562 303.207 210.562 305.82C210.562 308.457 207.785 310.074 203.484 310.062C199.219 310.074 196.383 308.457 196.406 305.82ZM198.984 305.82C198.973 307.203 200.684 308.023 203.484 308.023C206.273 308.023 207.996 307.203 208.008 305.82C207.996 304.426 206.273 303.617 203.484 303.617C200.684 303.617 198.973 304.426 198.984 305.82ZM220.055 290.445C223.242 290.445 225.539 293.352 225.562 297.922C225.539 302.527 223.242 305.422 220.055 305.422C216.832 305.422 214.535 302.527 214.547 297.922C214.535 293.352 216.832 290.445 220.055 290.445ZM217.055 297.922C217.043 301.18 218.273 303.066 220.055 303.078C221.848 303.066 223.043 301.18 223.055 297.922C223.043 294.688 221.848 292.789 220.055 292.789C218.273 292.789 217.043 294.688 217.055 297.922ZM228.352 310.086V288.898H230.953V297.031H234.211V299.234H230.953V310.086H228.352ZM243.094 294.922C243.094 298.391 245.133 302.047 248.555 303.477L247.125 305.539C244.617 304.449 242.789 302.234 241.816 299.539C240.844 302.445 238.98 304.883 236.508 306.055L235.008 304.016C238.348 302.469 240.434 298.52 240.445 294.922V293.141H235.781V290.984H247.734V293.141H243.094V294.922ZM250.102 310.086V288.898H252.727V310.086H250.102ZM262.711 290.375C266.074 290.363 268.523 292.484 268.547 295.484C268.523 298.496 266.074 300.605 262.711 300.617C259.383 300.605 256.887 298.496 256.898 295.484C256.887 292.484 259.383 290.363 262.711 290.375ZM255.938 303.547C259.758 303.547 265.043 303.5 269.625 302.844L269.836 304.742C265.09 305.645 260.004 305.68 256.266 305.68L255.938 303.547ZM259.477 295.484C259.465 297.254 260.859 298.344 262.711 298.344C264.586 298.344 265.98 297.254 265.992 295.484C265.98 293.727 264.598 292.625 262.711 292.625C260.859 292.625 259.465 293.727 259.477 295.484ZM270.891 310.109V288.898H273.492V310.109H270.891ZM289.852 293.984C289.828 297.77 291.727 301.59 295.008 303.172L293.414 305.258C291.117 304.098 289.465 301.859 288.562 299.164C287.637 302.047 285.902 304.438 283.477 305.656L281.883 303.57C285.293 301.953 287.238 297.898 287.25 293.984V290.609H289.852V293.984ZM296.273 310.086V288.898H298.875V297.195H302.133V299.422H298.875V310.086H296.273ZM311.062 293.211C311.062 295.848 312.867 298.426 316.242 299.469L314.906 301.508C312.504 300.734 310.758 299.141 309.785 297.125C308.836 299.316 307.031 301.062 304.523 301.93L303.188 299.867C306.598 298.742 308.414 296 308.438 293.211V292.602H303.867V290.516H315.516V292.602H311.062V293.211ZM306.656 309.664V302.891H309.281V307.555H321.258V309.664H306.656ZM318.047 304.297V288.922H320.672V304.297H318.047ZM333.398 289.227C338.227 289.238 341.027 290.516 341.039 292.859C341.027 295.227 338.227 296.504 333.398 296.516C328.582 296.504 325.758 295.227 325.758 292.859C325.758 290.516 328.582 289.238 333.398 289.227ZM323.766 299.727V297.641H343.078V299.727H323.766ZM326.039 303.078V301.156H340.664V306.336H328.617V307.906H341.25V309.898H326.062V304.484H338.109V303.078H326.039ZM328.5 292.859C328.488 294.031 330.176 294.57 333.398 294.57C336.668 294.57 338.344 294.031 338.344 292.859C338.344 291.77 336.668 291.148 333.398 291.148C330.176 291.148 328.488 291.77 328.5 292.859ZM354.023 289.93V296.328C356.824 296.293 359.566 296.105 362.531 295.555L362.836 297.664C359.426 298.32 356.355 298.496 353.133 298.508H351.375V289.93H354.023ZM353.109 303.078V301.062H359.438V299.188H362.039V301.062H368.367V303.078H353.109ZM354.68 306.898C354.668 304.895 357.012 303.781 360.727 303.758C364.488 303.781 366.785 304.895 366.797 306.898C366.785 308.926 364.488 310.062 360.727 310.062C357.012 310.062 354.668 308.926 354.68 306.898ZM357.258 306.898C357.258 307.754 358.523 308.223 360.727 308.211C362.918 308.223 364.16 307.754 364.172 306.898C364.16 306.066 362.918 305.633 360.727 305.656C358.523 305.633 357.258 306.066 357.258 306.898ZM359.719 293.844V291.758H365.344V288.898H367.945V300.008H365.344V293.844H359.719ZM376.734 290.445C379.594 290.445 381.715 292.836 382.09 296.703H386.133V288.898H388.711V310.109H386.133V298.812H382.113C381.832 302.902 379.676 305.422 376.734 305.422C373.547 305.422 371.285 302.527 371.297 297.922C371.285 293.352 373.547 290.445 376.734 290.445ZM373.805 297.922C373.793 301.18 374.988 303.066 376.734 303.078C378.492 303.066 379.676 301.18 379.688 297.922C379.676 294.688 378.492 292.789 376.734 292.789C374.988 292.789 373.793 294.688 373.805 297.922ZM411 300.711V302.82H402.586V310.062H400.008V302.82H391.688V300.711H411ZM392.695 297.242C396.855 296.715 399.645 294.477 399.832 292.156H393.469V290.094H409.219V292.156H402.855C403.031 294.477 405.797 296.715 409.992 297.242L409.055 299.281C405.445 298.766 402.633 297.113 401.344 294.828C400.043 297.113 397.254 298.766 393.68 299.281L392.695 297.242ZM419.039 294.453C419.051 297.875 420.223 301.438 423.094 303.242L421.664 305.234C419.754 304.086 418.512 302.117 417.809 299.809C417.047 302.352 415.688 304.508 413.695 305.727L412.078 303.781C415.16 301.918 416.52 298.18 416.531 294.57V290.773H419.039V294.453ZM420.82 298.344V296.188H423.844V289.273H426.305V309.055H423.844V298.344H420.82ZM428.203 310.086V288.898H430.711V310.086H428.203ZM452.531 305.375V307.508H433.172V305.375H437.648V300.02C435.961 299.047 434.941 297.523 434.953 295.648C434.941 292.273 438.246 290.047 442.805 290.047C447.387 290.047 450.715 292.273 450.703 295.648C450.715 297.5 449.719 298.988 448.078 299.961V305.375H452.531ZM437.508 295.648C437.496 297.816 439.641 299.199 442.805 299.188C445.957 299.199 448.148 297.816 448.148 295.648C448.148 293.445 445.957 292.098 442.805 292.109C439.641 292.098 437.496 293.445 437.508 295.648ZM440.227 305.375H445.43V300.957C444.621 301.133 443.742 301.227 442.805 301.227C441.891 301.227 441.023 301.133 440.227 300.969V305.375ZM456.492 308.188C455.484 308.188 454.652 307.367 454.664 306.359C454.652 305.375 455.484 304.566 456.492 304.555C457.465 304.566 458.297 305.375 458.297 306.359C458.297 307.367 457.465 308.188 456.492 308.188Z" fill="#E5E5E5"/>
<path d="M332.177 258.474C335.032 265.313 338.805 271.401 338.805 278.804L225.196 278.804C225.196 271.401 228.732 263.895 231.587 257.055C233.039 253.576 229.793 249.017 228.56 244.526C227.326 240.034 226.38 230.814 229.52 228.103C232.661 225.392 241.527 228.443 241.527 228.443C248.468 230.627 254.131 236.935 258.095 235.306C264.987 232.473 269.456 229.522 282 229.522C294.545 229.522 299.25 232.473 306.142 235.306C312.816 238.049 315.383 232.874 320.343 229.522C325.077 226.322 333.424 224.667 336.674 228.103C338.79 230.34 338.259 238.172 336.674 244.998C335.265 251.071 330.833 255.253 332.177 258.474Z" fill="white"/>
<g filter="url(#filter1_f_24_479)">
<path fill-rule="evenodd" clip-rule="evenodd" d="M334.719 264.381C334.025 262.894 333.303 261.348 332.608 259.674C332.329 259.004 332.172 258.211 332.11 257.321C331.644 257.295 331.174 257.283 330.701 257.283C317.948 257.283 307.362 266.59 305.319 278.804L338.804 278.804C338.804 273.128 336.895 269.04 334.719 264.381Z" fill="#FAE7E9"/>
</g>
<g filter="url(#filter2_f_24_479)">
<path fill-rule="evenodd" clip-rule="evenodd" d="M230.862 257.567C232.102 257.38 233.372 257.283 234.665 257.283C247.332 257.283 257.848 266.59 259.877 278.804L225.196 278.804C225.196 272.112 227.075 267.628 229.513 261.812C229.803 261.12 230.101 260.409 230.404 259.674C230.651 259.075 230.797 258.361 230.862 257.567Z" fill="#FAE7E9"/>
</g>
<path d="M293.958 263.376C293.958 265.294 292.755 266.848 291.567 266.848C290.378 266.848 289.175 265.294 289.175 263.376C289.175 261.459 289.892 259.674 291.806 259.674C293.241 259.674 293.958 261.459 293.958 263.376Z" fill="black"/>
<path d="M285.222 267.616C285.29 268.538 283.797 271.245 281.72 271.399C279.642 271.553 277.766 269.095 277.698 268.174C277.63 267.252 278.768 266.416 280.846 266.262C282.923 266.109 285.154 266.694 285.222 267.616Z" fill="black"/>
<path d="M274.825 263.376C274.825 265.294 273.622 266.848 272.433 266.848C271.244 266.848 270.041 265.294 270.041 263.376C270.041 261.459 270.759 259.674 272.672 259.674C274.107 259.674 274.825 261.459 274.825 263.376Z" fill="black"/>
<path fill-rule="evenodd" clip-rule="evenodd" d="M328.709 225.138C331.906 224.741 335.393 225.123 337.492 227.332C338.284 228.166 338.718 229.342 338.962 230.551C339.211 231.789 339.294 233.233 339.26 234.768C339.191 237.841 338.645 241.459 337.841 244.907C337.186 247.718 335.914 250.11 334.888 252.038C334.736 252.324 334.589 252.599 334.451 252.865C333.895 253.93 333.491 254.788 333.287 255.537C333.091 256.258 333.114 256.761 333.289 257.18C333.799 258.395 334.355 259.645 334.919 260.914C335.876 263.067 336.858 265.274 337.676 267.456C339 270.984 340 274.684 340 278.593C340 279.37 339.367 280 338.585 280C337.804 280 337.171 279.37 337.171 278.593C337.171 275.158 336.292 271.815 335.026 268.44C334.229 266.315 333.318 264.269 332.39 262.187C331.818 260.902 331.24 259.603 330.678 258.263C330.184 257.085 330.257 255.901 330.556 254.802C330.847 253.73 331.383 252.634 331.939 251.568C332.091 251.278 332.246 250.986 332.402 250.692C333.432 248.749 334.519 246.699 335.085 244.271C335.86 240.948 336.368 237.53 336.431 234.705C336.463 233.291 336.382 232.07 336.187 231.104C335.987 230.109 335.696 229.54 335.435 229.265C334.296 228.066 332.007 227.564 329.059 227.93C326.194 228.285 323.15 229.415 320.988 230.871C319.837 231.646 318.813 232.533 317.768 233.445L317.684 233.518C316.69 234.386 315.649 235.295 314.537 236.019C313.372 236.777 312.069 237.375 310.539 237.559C309.004 237.744 307.353 237.499 305.51 236.744C304.47 236.319 303.5 235.9 302.559 235.494C300.295 234.517 298.203 233.614 295.725 232.867C292.283 231.829 288.127 231.112 282 231.112C275.873 231.112 271.779 231.829 268.399 232.865C266.03 233.591 264.036 234.46 261.868 235.404C260.875 235.837 259.845 236.286 258.725 236.744C257.302 237.327 255.83 237.15 254.469 236.702C253.12 236.257 251.714 235.488 250.325 234.668C249.827 234.374 249.327 234.072 248.824 233.768C246.424 232.317 243.948 230.821 241.258 229.978L241.181 229.954L241.108 229.921L241.108 229.921L241.108 229.921L241.108 229.921L241.105 229.92L241.087 229.912C241.071 229.905 241.046 229.895 241.013 229.88C240.945 229.851 240.844 229.809 240.712 229.755C240.449 229.648 240.068 229.497 239.603 229.329C238.669 228.99 237.422 228.586 236.132 228.306C234.82 228.021 233.573 227.889 232.6 228.018C231.64 228.145 231.202 228.477 231.001 228.9C230.14 230.709 229.61 233.458 229.465 236.378C229.32 239.284 229.566 242.175 230.129 244.217C230.419 245.267 230.818 246.379 231.249 247.551C231.303 247.697 231.357 247.843 231.412 247.991C231.789 249.012 232.182 250.073 232.508 251.112C233.232 253.411 233.788 256.027 232.85 258.263C232.519 259.053 232.185 259.837 231.853 260.616C229.279 266.654 226.829 272.401 226.829 278.593C226.829 279.37 226.196 280 225.415 280C224.633 280 224 279.37 224 278.593C224 271.787 226.698 265.477 229.251 259.506C229.585 258.725 229.916 257.95 230.239 257.18C230.748 255.965 230.529 254.242 229.808 251.952C229.504 250.985 229.137 249.993 228.758 248.966C228.703 248.818 228.648 248.669 228.593 248.52C228.162 247.351 227.726 246.139 227.401 244.961C226.735 242.548 226.485 239.341 226.639 236.24C226.792 233.153 227.355 229.984 228.443 227.696C229.217 226.072 230.761 225.422 232.227 225.228C233.679 225.036 235.3 225.245 236.735 225.556C238.192 225.873 239.569 226.321 240.573 226.685C241.078 226.868 241.494 227.032 241.786 227.151C241.932 227.211 242.047 227.26 242.127 227.294C242.148 227.302 242.166 227.31 242.181 227.317C245.204 228.277 248.005 229.975 250.386 231.417C250.864 231.707 251.326 231.987 251.769 232.248C253.148 233.061 254.325 233.689 255.36 234.031C256.384 234.368 257.097 234.368 257.649 234.142C258.642 233.735 259.608 233.315 260.571 232.895C262.812 231.92 265.039 230.95 267.565 230.176C271.251 229.046 275.631 228.298 282 228.298C288.369 228.298 292.805 229.046 296.546 230.174C299.189 230.971 301.504 231.969 303.829 232.973C304.74 233.366 305.653 233.759 306.587 234.142C308.069 234.749 309.23 234.882 310.199 234.766C311.172 234.649 312.064 234.266 312.987 233.665C313.931 233.05 314.843 232.254 315.899 231.332L315.902 231.33C316.934 230.43 318.083 229.428 319.402 228.54C321.955 226.822 325.427 225.544 328.709 225.138Z" fill="black"/>
<defs>
<filter id="filter0_d_24_479" x="0" y="0" width="564" height="564" filterUnits="userSpaceOnUse" color-interpolation-filters="sRGB">
<feFlood flood-opacity="0" result="BackgroundImageFix"/>
<feColorMatrix in="SourceAlpha" type="matrix" values="0 0 0 0 0 0 0 0 0 0 0 0 0 0 0 0 0 0 127 0" result="hardAlpha"/>
<feOffset dy="4"/>
<feGaussianBlur stdDeviation="6"/>
<feComposite in2="hardAlpha" operator="out"/>
<feColorMatrix type="matrix" values="0 0 0 0 0 0 0 0 0 0 0 0 0 0 0 0 0 0 0.1 0"/>
<feBlend mode="normal" in2="BackgroundImageFix" result="effect1_dropShadow_24_479"/>
<feBlend mode="normal" in="SourceGraphic" in2="effect1_dropShadow_24_479" result="shape"/>
</filter>
<filter id="filter1_f_24_479" x="301.319" y="253.283" width="41.4844" height="29.522" filterUnits="userSpaceOnUse" color-interpolation-filters="sRGB">
<feFlood flood-opacity="0" result="BackgroundImageFix"/>
<feBlend mode="normal" in="SourceGraphic" in2="BackgroundImageFix" result="shape"/>
<feGaussianBlur stdDeviation="2" result="effect1_foregroundBlur_24_479"/>
</filter>
<filter id="filter2_f_24_479" x="221.196" y="253.283" width="42.6807" height="29.522" filterUnits="userSpaceOnUse" color-interpolation-filters="sRGB">
<feFlood flood-opacity="0" result="BackgroundImageFix"/>
<feBlend mode="normal" in="SourceGraphic" in2="BackgroundImageFix" result="shape"/>
<feGaussianBlur stdDeviation="2" result="effect1_foregroundBlur_24_479"/>
</filter>
</defs>
</svg>
