<svg width="522" height="171" viewBox="0 0 522 171" fill="none" xmlns="http://www.w3.org/2000/svg">
<path d="M65.9375 39.8438V49.9219H38.9062V72.4219H26.4844V49.9219H0V39.8438H65.9375ZM6.01562 18.9062C5.97656 8.71094 17.0312 2.14844 32.7344 2.1875C48.4375 2.14844 59.6484 8.71094 59.6875 18.9062C59.6484 28.8281 48.4375 35.2344 32.7344 35.2344C17.0312 35.2344 5.97656 28.8281 6.01562 18.9062ZM18.9062 18.9062C18.8672 23.2422 24.0625 25.3516 32.7344 25.3906C41.5625 25.3516 46.6406 23.2422 46.6406 18.9062C46.6406 14.2969 41.5625 12.1094 32.7344 12.1094C24.0625 12.1094 18.8672 14.2969 18.9062 18.9062Z" fill="#FFB941"/>
<path d="M130.234 0V72.5H117.734V0H130.234ZM72.8125 55.9375V25.1562H94.7656V15.7031H72.8125V5.70312H107.578V34.9219H85.7812V45.7422C96.0938 45.625 104.57 45 113.75 43.4375L114.766 53.5156C103.828 55.5859 93.2812 55.9766 79.6094 55.9375H72.8125Z" fill="#FFB941"/>
<path d="M195.938 0V26.6406H205.156V36.875H195.938V72.1094H183.359V0H195.938ZM136.719 50.8594C152.773 42.7344 161.367 32.6562 163.477 17.3438H141.25V7.1875H176.25C176.211 29.5312 168.516 48.2812 143.828 60.3906L136.719 50.8594Z" fill="#FFB941"/>
<path d="M282.5 0V25.7812H521.359V35.9375H282.5V72.5H269.922V0H282.5ZM227.578 55.3125V6.48438H261.484V16.5625H240V45.0391C249.023 44.9219 257.148 44.375 265.859 42.9688L267.188 53.2812C256.055 55.1172 245.977 55.3516 233.828 55.3125H227.578Z" fill="#FFB941"/>
<path d="M292.328 104.094V113.859H278.891C279.438 119.836 283.578 126.125 295.062 128.781L289.672 138.312C281.469 136.477 276 132.531 272.719 127.414C269.555 133.078 264.164 137.531 255.922 139.641L250.062 129.797C261.586 127.062 265.805 120.305 266.352 113.859H252.953V104.094H266.391V97.7656H278.969V104.094H292.328ZM256.859 160.5C269.477 159.172 275.18 155.148 277.211 150.969H260.141V141.281H309.438V150.969H292.562C294.633 155.07 300.375 159.211 312.875 160.656L308.422 170.188C296.508 168.82 288.891 164.602 284.75 159.016C280.688 164.562 273.109 168.625 261.312 169.953L256.859 160.5ZM296.234 138.703V98H308.812V113.234H317.797V123.469H308.812V138.703H296.234Z" fill="#FFB941"/>
<path d="M339.672 102.844C350.883 102.805 359.164 112.883 359.203 128.859C359.164 145.07 350.883 155.109 339.672 155.109C328.344 155.109 319.984 145.07 320.062 128.859C319.984 112.883 328.344 102.805 339.672 102.844ZM332.25 128.859C332.172 139.016 335.18 143.664 339.672 143.625C344.281 143.664 347.172 139.016 347.25 128.859C347.172 118.859 344.281 114.133 339.672 114.172C335.18 114.133 332.172 118.859 332.25 128.859ZM365.219 170.266V98H377.797V124.25H387.562V134.641H377.797V170.266H365.219Z" fill="#FFB941"/>
<path d="M455.219 125.891V135.578H428.422V138.625H447.406V158.312H408.891V160.734H449.125V169.953H396.625V149.797H435.062V147.766H396.703V138.625H416V135.578H389.281V125.891H455.219ZM391.859 115.578C403.969 114.836 409.984 112.141 412.719 109.25H395.297V99.7969H449.203V109.25H431.586C434.359 112.141 440.492 114.836 452.719 115.578L448.812 124.875C434.867 124.055 426.352 120.188 422.133 114.797C417.875 120.148 409.477 124.055 395.688 124.875L391.859 115.578Z" fill="#FFB941"/>
<path d="M521.078 98V170.266H509.125V134.25H504.672V167.297H493.109V99.875H504.672V124.25H509.125V98H521.078ZM456.938 147.219C470.297 139.133 476.273 130.07 477.797 116.594H461.156V106.672H489.984C490.023 127.961 484.242 143.938 464.125 155.812L456.938 147.219Z" fill="#FFB941"/>
<path d="M2 140H238V150H2V140Z" fill="#FFB941"/>
</svg>
