<svg width="559" height="171" viewBox="0 0 559 171" fill="none" xmlns="http://www.w3.org/2000/svg">
<path d="M65.9375 39.8438V49.9219H38.9062V72.4219H26.4844V49.9219H0V39.8438H65.9375ZM6.01562 18.9062C5.97656 8.71094 17.0312 2.14844 32.7344 2.1875C48.4375 2.14844 59.6484 8.71094 59.6875 18.9062C59.6484 28.8281 48.4375 35.2344 32.7344 35.2344C17.0312 35.2344 5.97656 28.8281 6.01562 18.9062ZM18.9062 18.9062C18.8672 23.2422 24.0625 25.3516 32.7344 25.3906C41.5625 25.3516 46.6406 23.2422 46.6406 18.9062C46.6406 14.2969 41.5625 12.1094 32.7344 12.1094C24.0625 12.1094 18.8672 14.2969 18.9062 18.9062Z" fill="#FFB941"/>
<path d="M130.234 0V72.5H117.734V0H130.234ZM72.8125 55.9375V25.1562H94.7656V15.7031H72.8125V5.70312H107.578V34.9219H85.7812V45.7422C96.0938 45.625 104.57 45 113.75 43.4375L114.766 53.5156C103.828 55.5859 93.2812 55.9766 79.6094 55.9375H72.8125Z" fill="#FFB941"/>
<path d="M195.938 0V26.6406H205.156V36.875H195.938V72.1094H183.359V0H195.938ZM136.719 50.8594C152.773 42.7344 161.367 32.6562 163.477 17.3438H141.25V7.1875H176.25C176.211 29.5312 168.516 48.2812 143.828 60.3906L136.719 50.8594Z" fill="#FFB941"/>
<path d="M282.5 0V25.7812H521.359V35.9375H282.5V72.5H269.922V0H282.5ZM227.578 55.3125V6.48438H261.484V16.5625H240V45.0391C249.023 44.9219 257.148 44.375 265.859 42.9688L267.188 53.2812C256.055 55.1172 245.977 55.3516 233.828 55.3125H227.578Z" fill="#FFB941"/>
<path d="M292.328 104.094V113.859H278.891C279.438 119.836 283.578 126.125 295.062 128.781L289.672 138.312C281.469 136.477 276 132.531 272.719 127.414C269.555 133.078 264.164 137.531 255.922 139.641L250.062 129.797C261.586 127.062 265.805 120.305 266.352 113.859H252.953V104.094H266.391V97.7656H278.969V104.094H292.328ZM256.859 160.5C269.477 159.172 275.18 155.148 277.211 150.969H260.141V141.281H309.438V150.969H292.562C294.633 155.07 300.375 159.211 312.875 160.656L308.422 170.188C296.508 168.82 288.891 164.602 284.75 159.016C280.688 164.562 273.109 168.625 261.312 169.953L256.859 160.5ZM296.234 138.703V98H308.812V113.234H317.797V123.469H308.812V138.703H296.234Z" fill="#FFB941"/>
<path d="M339.672 102.844C350.883 102.805 359.164 112.883 359.203 128.859C359.164 145.07 350.883 155.109 339.672 155.109C328.344 155.109 319.984 145.07 320.062 128.859C319.984 112.883 328.344 102.805 339.672 102.844ZM332.25 128.859C332.172 139.016 335.18 143.664 339.672 143.625C344.281 143.664 347.172 139.016 347.25 128.859C347.172 118.859 344.281 114.133 339.672 114.172C335.18 114.133 332.172 118.859 332.25 128.859ZM365.219 170.266V98H377.797V124.25H387.562V134.641H377.797V170.266H365.219Z" fill="#FFB941"/>
<path d="M455.219 125.891V135.578H428.422V138.625H447.406V158.312H408.891V160.734H449.125V169.953H396.625V149.797H435.062V147.766H396.703V138.625H416V135.578H389.281V125.891H455.219ZM391.859 115.578C403.969 114.836 409.984 112.141 412.719 109.25H395.297V99.7969H449.203V109.25H431.586C434.359 112.141 440.492 114.836 452.719 115.578L448.812 124.875C434.867 124.055 426.352 120.188 422.133 114.797C417.875 120.148 409.477 124.055 395.688 124.875L391.859 115.578Z" fill="#FFB941"/>
<path d="M521.078 98V170.266H509.125V134.25H504.672V167.297H493.109V99.875H504.672V124.25H509.125V98H521.078ZM456.938 147.219C470.297 139.133 476.273 130.07 477.797 116.594H461.156V106.672H489.984C490.023 127.961 484.242 143.938 464.125 155.812L456.938 147.219Z" fill="#FFB941"/>
<path d="M2 140H238V150H2V140Z" fill="#FFB941"/>
<path fill-rule="evenodd" clip-rule="evenodd" d="M519.865 69.3483C519.034 72.1843 516.487 73.9346 514.177 73.2577C511.866 72.5808 510.666 69.7331 511.497 66.8971C512.328 64.0611 514.874 62.3108 517.185 62.9877C519.496 63.6646 520.695 66.5123 519.865 69.3483ZM524.551 81.304C522.854 83.4022 520.002 83.9089 518.181 82.4359C516.36 80.9628 516.259 78.0677 517.956 75.9694C519.653 73.8712 522.505 73.3645 524.326 74.8375C526.148 76.3106 526.248 79.2057 524.551 81.304ZM514.434 89.3986C512.372 94.951 509.039 92.2464 506.294 90.0185C505.314 89.2235 504.409 88.4891 503.663 88.2123C502.55 87.7989 501.006 87.8656 499.472 87.9318C495.843 88.0887 492.269 88.2432 494.577 82.0266C496.976 75.5624 504.597 72.727 508.202 74.0652C511.806 75.4034 516.834 82.9344 514.434 89.3986ZM494.076 75.9001C491.734 75.8278 489.9 73.7023 489.979 71.1527C490.057 68.603 492.019 66.5947 494.361 66.667C496.702 66.7393 498.536 68.8649 498.457 71.4145C498.379 73.9642 496.417 75.9724 494.076 75.9001ZM504.036 69.8272C506.407 70.2466 508.706 68.4572 509.17 65.8305C509.635 63.2038 508.09 60.7344 505.719 60.315C503.348 59.8956 501.049 61.685 500.584 64.3117C500.12 66.9384 501.665 69.4078 504.036 69.8272Z" fill="#FFB941" fill-opacity="0.6"/>
<path fill-rule="evenodd" clip-rule="evenodd" d="M551.883 105.188C549.89 106.386 547.484 106.041 546.507 104.418C545.531 102.794 546.355 100.507 548.348 99.3087C550.341 98.1106 552.747 98.4554 553.724 100.079C554.7 101.703 553.876 103.99 551.883 105.188ZM548.222 114.605C546.121 114.914 544.2 113.687 543.932 111.863C543.663 110.04 545.148 108.311 547.249 108.002C549.35 107.692 551.27 108.92 551.539 110.743C551.807 112.566 550.322 114.295 548.222 114.605ZM538.053 113.895C533.9 116.009 533.414 112.667 533.013 109.914C532.87 108.931 532.737 108.024 532.454 107.466C532.03 106.633 531.101 105.849 530.178 105.07L530.178 105.07C527.994 103.225 525.844 101.409 530.493 99.0424C535.328 96.5813 541.249 99.0034 542.622 101.699C543.994 104.396 542.888 111.434 538.053 113.895ZM533.467 95.2304C532.151 93.9403 532.222 91.7326 533.627 90.2992C535.032 88.8658 537.238 88.7496 538.554 90.0397C539.871 91.3298 539.799 93.5376 538.394 94.9709C536.989 96.4043 534.783 96.5205 533.467 95.2304ZM542.471 97.0263C543.619 98.533 545.903 98.7231 547.573 97.4508C549.242 96.1786 549.664 93.9258 548.516 92.4191C547.367 90.9124 545.083 90.7223 543.414 91.9945C541.745 93.2668 541.323 95.5196 542.471 97.0263Z" fill="#FFB941" fill-opacity="0.6"/>
<path fill-rule="evenodd" clip-rule="evenodd" d="M549.516 70.4408C548.376 71.6859 546.63 71.9423 545.615 71.0137C544.601 70.085 544.702 68.3228 545.842 67.0777C546.982 65.8326 548.728 65.5761 549.743 66.5048C550.757 67.4335 550.656 69.1957 549.516 70.4408ZM548.91 77.7509C547.511 78.3996 545.921 77.9416 545.358 76.7278C544.795 75.514 545.472 74.0042 546.87 73.3554C548.269 72.7067 549.859 73.1648 550.422 74.3786C550.985 75.5923 550.308 77.1022 548.91 77.7509ZM541.686 79.3549C539.231 81.6831 538.203 79.4573 537.356 77.6238C537.054 76.9696 536.774 76.3653 536.462 76.0356C535.995 75.5433 535.187 75.189 534.383 74.8369C532.483 74.0038 530.611 73.1833 533.359 70.5766C536.217 67.866 540.838 68.3304 542.35 69.9238C543.861 71.5173 544.543 76.6444 541.686 79.3549ZM534.643 67.3092C533.461 66.6828 533.055 65.1312 533.737 63.8437C534.419 62.5562 535.931 62.0202 537.113 62.6466C538.296 63.273 538.701 64.8246 538.019 66.1121C537.337 67.3997 535.825 67.9356 534.643 67.3092ZM541.28 66.7022C542.391 67.514 544.02 67.1751 544.919 65.9451C545.819 64.7152 545.648 63.06 544.538 62.2482C543.427 61.4364 541.798 61.7753 540.899 63.0052C539.999 64.2351 540.17 65.8903 541.28 66.7022Z" fill="#FFB941" fill-opacity="0.6"/>
</svg>
